<svg width="33" height="33" viewBox="0 0 33 33" fill="none" xmlns="http://www.w3.org/2000/svg">
<g clip-path="url(#clip0_891_77663)">
<path d="M26.125 0H6.875C3.07804 0 0 3.07804 0 6.875V26.125C0 29.922 3.07804 33 6.875 33H26.125C29.922 33 33 29.922 33 26.125V6.875C33 3.07804 29.922 0 26.125 0Z" fill="white"/>
<path fill-rule="evenodd" clip-rule="evenodd" d="M27.0001 16.384L21.8903 8.79834L20.626 12.0349L23.576 16.384L20.6261 20.8343L21.9961 23.9756L27.0002 16.384H27.0001Z" fill="#00B4F0"/>
<path d="M12.3636 24.3486C11.2397 24.3486 10.2249 24.1519 9.3187 23.7586C8.41967 23.3582 7.67872 22.7893 7.09573 22.0518C6.51975 21.3073 6.15447 20.4223 6 19.3968L8.99215 18.9543C9.20285 19.8253 9.63825 20.496 10.2986 20.9666C10.9588 21.4372 11.7104 21.6725 12.5532 21.6725C13.0187 21.6733 13.4812 21.5986 13.9228 21.4513C14.3654 21.3037 14.727 21.086 15.008 20.7981C15.296 20.51 15.44 20.1553 15.44 19.7339C15.44 19.5794 15.4154 19.4319 15.3662 19.2914C15.324 19.144 15.2503 19.007 15.1449 18.8805C15.0396 18.7541 14.8886 18.6347 14.6919 18.5224C14.5023 18.4099 14.26 18.3082 13.965 18.2168L10.0247 17.0578C9.7296 16.9736 9.38544 16.8541 8.99215 16.6997C8.60587 16.5451 8.23008 16.3239 7.8648 16.036C7.49963 15.7479 7.19397 15.3686 6.94827 14.8981C6.70945 14.4205 6.5901 13.8199 6.5901 13.0964C6.5901 12.078 6.84642 11.2316 7.35905 10.5574C7.8718 9.88307 8.55663 9.38094 9.41355 9.05077C10.2705 8.7206 11.2186 8.55914 12.2582 8.56614C13.3047 8.58014 14.2389 8.75934 15.0607 9.1035C15.8825 9.44767 16.5708 9.9498 17.1257 10.61C17.6806 11.2634 18.0808 12.0639 18.3268 13.0122L15.2293 13.5389C15.1168 13.0473 14.9096 12.6329 14.6077 12.2957C14.3056 11.9586 13.9438 11.7023 13.5224 11.5267C13.1085 11.3511 12.6654 11.2546 12.216 11.2421C11.7665 11.2281 11.3416 11.2914 10.9412 11.4318C10.5479 11.5653 10.2249 11.762 9.97192 12.0218C9.7261 12.2817 9.60325 12.5908 9.60325 12.949C9.60325 13.2791 9.70499 13.5494 9.90869 13.7603C10.1124 13.9638 10.3688 14.1289 10.6779 14.2554C10.9865 14.3817 11.3033 14.4873 11.626 14.5714L14.26 15.2879C14.6533 15.3932 15.0888 15.5337 15.5663 15.7093C16.044 15.8779 16.5006 16.1167 16.936 16.4257C17.3785 16.7278 17.7403 17.1281 18.0212 17.6268C18.3092 18.1255 18.4531 18.7577 18.4531 19.5232C18.4531 20.3379 18.281 21.0509 17.9369 21.662C17.5997 22.266 17.1432 22.7682 16.5673 23.1685C15.9913 23.5619 15.3381 23.8568 14.6077 24.0535C13.8842 24.2502 13.1362 24.3486 12.3636 24.3486V24.3486Z" fill="black"/>
</g>
<defs>
<clipPath id="clip0_891_77663">
<rect width="33" height="33" fill="white"/>
</clipPath>
</defs>
</svg>
