<svg width="645" height="487" viewBox="0 0 645 487" fill="none" xmlns="http://www.w3.org/2000/svg">
<path opacity="0.3" fill-rule="evenodd" clip-rule="evenodd" d="M325.504 424C425.191 424 506.004 343.187 506.004 243.5C506.004 143.813 425.191 63 325.504 63C225.817 63 145.004 143.813 145.004 243.5C145.004 343.187 225.817 424 325.504 424ZM325.504 434C430.714 434 516.004 348.71 516.004 243.5C516.004 138.29 430.714 53 325.504 53C220.294 53 135.004 138.29 135.004 243.5C135.004 348.71 220.294 434 325.504 434Z" fill="#92E2FB"/>
<path opacity="0.3" fill-rule="evenodd" clip-rule="evenodd" d="M247.312 150.313C195.846 193.498 189.133 270.228 232.318 321.693C275.503 373.159 352.233 379.872 403.698 336.687C455.164 293.502 461.877 216.773 418.692 165.307C375.507 113.841 298.778 107.128 247.312 150.313ZM244.098 146.483C190.517 191.443 183.528 271.326 228.488 324.907C273.448 378.489 353.331 385.477 406.912 340.517C460.494 295.558 467.482 215.674 422.523 162.093C377.563 108.512 297.679 101.523 244.098 146.483Z" fill="#92E2FB"/>
<path opacity="0.3" fill-rule="evenodd" clip-rule="evenodd" d="M288.663 199.593C264.414 219.941 261.251 256.093 281.598 280.342C301.945 304.591 338.097 307.753 362.346 287.406C386.595 267.059 389.758 230.907 369.411 206.658C349.064 182.409 312.911 179.246 288.663 199.593ZM285.449 195.763C259.084 217.885 255.646 257.191 277.768 283.556C299.89 309.92 339.196 313.359 365.56 291.236C391.924 269.114 395.363 229.808 373.241 203.444C351.119 177.08 311.813 173.641 285.449 195.763Z" fill="#92E2FB"/>
<g filter="url(#filter0_b_1148_6317)">
<rect x="70" y="131" width="231" height="171" rx="20" fill="url(#paint0_linear_1148_6317)"/>
<rect x="70.5" y="131.5" width="230" height="170" rx="19.5" stroke="url(#paint1_linear_1148_6317)"/>
</g>
<path d="M94.0234 167.826L93.7832 168.57C93.3496 168.445 92.9609 168.383 92.6172 168.383C92.2891 168.383 92.0625 168.477 91.9375 168.664C91.8164 168.848 91.7559 169.221 91.7559 169.783V169.895H93.8066V170.686H91.7559V176H90.8418V170.686H89.3066V169.895H90.8418V169.689C90.8418 168.912 90.9746 168.367 91.2402 168.055C91.5059 167.742 91.9648 167.586 92.6172 167.586C93.0391 167.586 93.5078 167.666 94.0234 167.826ZM101.28 176H100.366V175.098C99.7098 175.797 99.0184 176.146 98.2919 176.146C97.1473 176.146 96.5751 175.453 96.5751 174.066V169.895H97.4891V173.803C97.4891 174.322 97.5712 174.711 97.7352 174.969C97.8993 175.223 98.1766 175.35 98.5673 175.35C99.1259 175.35 99.7255 175.002 100.366 174.307V169.895H101.28V176ZM108.619 176H107.705V172.086C107.705 171.543 107.617 171.15 107.441 170.908C107.269 170.662 106.998 170.539 106.627 170.539C106.068 170.539 105.469 170.887 104.828 171.582V176H103.914V169.895H104.828V170.791C105.484 170.096 106.176 169.748 106.902 169.748C108.047 169.748 108.619 170.439 108.619 171.822V176ZM115.923 175.795C115.391 176.037 114.807 176.158 114.171 176.158C113.21 176.158 112.442 175.867 111.868 175.285C111.298 174.699 111.012 173.922 111.012 172.953C111.012 171.984 111.299 171.209 111.874 170.627C112.452 170.041 113.21 169.748 114.147 169.748C114.76 169.748 115.344 169.855 115.899 170.07L115.659 170.826C115.104 170.635 114.604 170.539 114.159 170.539C113.487 170.539 112.954 170.756 112.559 171.189C112.169 171.623 111.973 172.211 111.973 172.953C111.973 173.633 112.176 174.205 112.583 174.67C112.989 175.131 113.518 175.361 114.171 175.361C114.686 175.361 115.217 175.262 115.764 175.062L115.923 175.795ZM123.332 175.725C122.718 176.006 122.115 176.146 121.521 176.146C120.431 176.146 119.886 175.57 119.886 174.418V170.686H118.714V169.895H119.886V168.225H120.777V169.895H122.851V170.686H120.777V174.178C120.777 174.549 120.859 174.838 121.023 175.045C121.187 175.248 121.41 175.35 121.691 175.35C122.191 175.35 122.685 175.238 123.173 175.016L123.332 175.725ZM128.631 167.586C128.803 167.586 128.95 167.648 129.071 167.773C129.192 167.895 129.252 168.041 129.252 168.213C129.252 168.393 129.192 168.543 129.071 168.664C128.954 168.785 128.807 168.846 128.631 168.846C128.471 168.846 128.329 168.783 128.204 168.658C128.082 168.529 128.022 168.381 128.022 168.213C128.022 168.045 128.082 167.898 128.204 167.773C128.329 167.648 128.471 167.586 128.631 167.586ZM129.077 176H128.162V170.686H126.364V169.895H129.077V176ZM135.56 169.748C136.4 169.748 137.068 170.041 137.564 170.627C138.06 171.213 138.308 171.984 138.308 172.941C138.308 173.906 138.06 174.684 137.564 175.273C137.068 175.863 136.4 176.158 135.56 176.158C134.716 176.158 134.046 175.865 133.55 175.279C133.058 174.689 132.812 173.91 132.812 172.941C132.812 171.98 133.06 171.209 133.556 170.627C134.052 170.041 134.72 169.748 135.56 169.748ZM135.56 175.361C136.115 175.361 136.552 175.127 136.872 174.658C137.193 174.189 137.353 173.621 137.353 172.953C137.353 172.25 137.195 171.672 136.878 171.219C136.562 170.766 136.122 170.539 135.56 170.539C134.993 170.539 134.554 170.764 134.241 171.213C133.929 171.658 133.773 172.238 133.773 172.953C133.773 173.633 133.931 174.205 134.247 174.67C134.564 175.131 135.001 175.361 135.56 175.361ZM145.254 176H144.34V172.086C144.34 171.543 144.252 171.15 144.076 170.908C143.904 170.662 143.633 170.539 143.262 170.539C142.703 170.539 142.104 170.887 141.463 171.582V176H140.549V169.895H141.463V170.791C142.119 170.096 142.811 169.748 143.537 169.748C144.682 169.748 145.254 170.439 145.254 171.822V176Z" fill="#9C59FD"/>
<path d="M214.733 170.686C214.936 170.404 215.21 170.178 215.554 170.006C215.901 169.834 216.267 169.748 216.649 169.748C217.353 169.748 217.903 170.039 218.302 170.621C218.704 171.199 218.905 171.953 218.905 172.883C218.905 173.82 218.694 174.602 218.272 175.227C217.854 175.848 217.29 176.158 216.579 176.158C216.2 176.158 215.845 176.064 215.513 175.877C215.185 175.686 214.925 175.434 214.733 175.121V178.414H213.819V169.895H214.733V170.686ZM214.733 171.594V174.131C214.905 174.475 215.138 174.762 215.431 174.992C215.724 175.223 216.026 175.338 216.339 175.338C216.831 175.338 217.222 175.107 217.511 174.646C217.804 174.186 217.95 173.613 217.95 172.93C217.95 172.227 217.811 171.652 217.534 171.207C217.257 170.762 216.87 170.539 216.374 170.539C215.729 170.539 215.183 170.891 214.733 171.594ZM226.004 176H225.096C225.021 175.754 224.984 175.426 224.984 175.016C224.465 175.777 223.758 176.158 222.863 176.158C222.41 176.158 222.01 175.998 221.662 175.678C221.318 175.354 221.146 174.938 221.146 174.43C221.146 174.129 221.207 173.863 221.328 173.633C221.449 173.402 221.627 173.209 221.861 173.053C222.096 172.893 222.381 172.768 222.717 172.678C223.053 172.584 223.451 172.52 223.912 172.484L224.937 172.402V172.109C224.937 171.062 224.449 170.539 223.473 170.539C223.242 170.539 222.949 170.59 222.594 170.691C222.242 170.789 221.939 170.906 221.685 171.043L221.445 170.387C222.277 169.961 223.051 169.748 223.765 169.748C225.156 169.748 225.851 170.484 225.851 171.957V174.582C225.851 175.113 225.902 175.586 226.004 176ZM224.937 174.189V173.082C224.113 173.156 223.547 173.227 223.238 173.293C222.933 173.355 222.668 173.475 222.441 173.65C222.219 173.826 222.107 174.064 222.107 174.365C222.107 174.639 222.203 174.859 222.394 175.027C222.586 175.195 222.83 175.279 223.127 175.279C223.451 175.279 223.773 175.184 224.094 174.992C224.414 174.797 224.695 174.529 224.937 174.189ZM233.155 176H232.241V175.121C232.053 175.422 231.784 175.67 231.432 175.865C231.085 176.061 230.717 176.158 230.331 176.158C229.632 176.158 229.079 175.848 228.673 175.227C228.266 174.602 228.063 173.811 228.063 172.854C228.063 171.959 228.274 171.219 228.696 170.633C229.122 170.043 229.684 169.748 230.384 169.748C231.153 169.748 231.772 170.061 232.241 170.686V167.732H233.155V176ZM232.241 174.131V171.594C231.803 170.891 231.276 170.539 230.659 170.539C230.155 170.539 229.757 170.764 229.464 171.213C229.171 171.658 229.024 172.223 229.024 172.906C229.024 173.609 229.161 174.191 229.434 174.652C229.712 175.109 230.091 175.338 230.571 175.338C230.801 175.338 231.034 175.275 231.268 175.15C231.503 175.025 231.723 174.838 231.93 174.588C232.137 174.338 232.241 174.186 232.241 174.131ZM240.482 176H239.568V175.121C239.38 175.422 239.111 175.67 238.759 175.865C238.412 176.061 238.045 176.158 237.658 176.158C236.959 176.158 236.406 175.848 236 175.227C235.593 174.602 235.39 173.811 235.39 172.854C235.39 171.959 235.601 171.219 236.023 170.633C236.449 170.043 237.011 169.748 237.711 169.748C238.48 169.748 239.099 170.061 239.568 170.686V167.732H240.482V176ZM239.568 174.131V171.594C239.13 170.891 238.603 170.539 237.986 170.539C237.482 170.539 237.084 170.764 236.791 171.213C236.498 171.658 236.351 172.223 236.351 172.906C236.351 173.609 236.488 174.191 236.761 174.652C237.039 175.109 237.418 175.338 237.898 175.338C238.129 175.338 238.361 175.275 238.595 175.15C238.83 175.025 239.05 174.838 239.257 174.588C239.464 174.338 239.568 174.186 239.568 174.131ZM245.864 167.586C246.036 167.586 246.182 167.648 246.303 167.773C246.424 167.895 246.485 168.041 246.485 168.213C246.485 168.393 246.424 168.543 246.303 168.664C246.186 168.785 246.04 168.846 245.864 168.846C245.704 168.846 245.561 168.783 245.436 168.658C245.315 168.529 245.254 168.381 245.254 168.213C245.254 168.045 245.315 167.898 245.436 167.773C245.561 167.648 245.704 167.586 245.864 167.586ZM246.309 176H245.395V170.686H243.596V169.895H246.309V176ZM255.16 176H254.245V172.086C254.245 171.543 254.158 171.15 253.982 170.908C253.81 170.662 253.538 170.539 253.167 170.539C252.609 170.539 252.009 170.887 251.369 171.582V176H250.454V169.895H251.369V170.791C252.025 170.096 252.716 169.748 253.443 169.748C254.587 169.748 255.16 170.439 255.16 171.822V176ZM259.475 173.697C258.905 173.975 258.619 174.219 258.619 174.43C258.619 174.543 258.684 174.639 258.813 174.717C258.946 174.795 259.125 174.834 259.352 174.834L261.408 174.775C261.897 174.775 262.276 174.895 262.545 175.133C262.819 175.371 262.955 175.709 262.955 176.146C262.955 176.838 262.647 177.389 262.03 177.799C261.412 178.209 260.692 178.414 259.867 178.414C259.192 178.414 258.639 178.271 258.209 177.986C257.78 177.705 257.565 177.34 257.565 176.891C257.565 176.402 257.897 175.99 258.561 175.654C258.01 175.396 257.735 175.08 257.735 174.705C257.735 174.275 258.09 173.875 258.801 173.504C258.473 173.305 258.221 173.047 258.045 172.73C257.869 172.414 257.781 172.08 257.781 171.729C257.781 171.154 257.977 170.684 258.367 170.316C258.758 169.945 259.246 169.76 259.832 169.76C260.254 169.76 260.635 169.848 260.975 170.023L262.785 169.748V170.639H261.619C261.795 170.947 261.883 171.311 261.883 171.729C261.883 172.283 261.69 172.752 261.303 173.135C260.916 173.518 260.426 173.709 259.832 173.709C259.707 173.709 259.588 173.705 259.475 173.697ZM259.832 173C260.168 173 260.442 172.885 260.653 172.654C260.867 172.42 260.975 172.115 260.975 171.74C260.975 171.346 260.871 171.037 260.664 170.814C260.457 170.592 260.18 170.48 259.832 170.48C259.508 170.48 259.235 170.598 259.012 170.832C258.793 171.062 258.684 171.365 258.684 171.74C258.684 172.107 258.793 172.41 259.012 172.648C259.235 172.883 259.508 173 259.832 173ZM259.867 177.705C260.469 177.705 260.981 177.57 261.403 177.301C261.828 177.035 262.041 176.705 262.041 176.311C262.041 175.904 261.74 175.701 261.139 175.701C260.94 175.701 260.596 175.713 260.108 175.736C259.799 175.752 259.557 175.76 259.381 175.76C259.295 175.76 259.16 175.83 258.977 175.971C258.797 176.111 258.658 176.252 258.561 176.393C258.467 176.537 258.42 176.686 258.42 176.838C258.42 177.076 258.553 177.279 258.819 177.447C259.084 177.619 259.434 177.705 259.867 177.705ZM267.4 169.807C267.599 169.807 267.767 169.875 267.903 170.012C268.04 170.145 268.109 170.309 268.109 170.504C268.109 170.699 268.04 170.865 267.903 171.002C267.767 171.135 267.599 171.201 267.4 171.201C267.204 171.201 267.038 171.135 266.901 171.002C266.769 170.865 266.702 170.699 266.702 170.504C266.702 170.309 266.769 170.145 266.901 170.012C267.038 169.875 267.204 169.807 267.4 169.807ZM267.4 174.705C267.599 174.705 267.767 174.771 267.903 174.904C268.04 175.037 268.109 175.203 268.109 175.402C268.109 175.598 268.04 175.762 267.903 175.895C267.767 176.027 267.599 176.094 267.4 176.094C267.204 176.094 267.038 176.027 266.901 175.895C266.769 175.762 266.702 175.598 266.702 175.402C266.702 175.203 266.769 175.037 266.901 174.904C267.038 174.771 267.204 174.705 267.4 174.705ZM201.515 195.158C201.312 195.135 201.144 195.051 201.011 194.906C200.878 194.762 200.812 194.598 200.812 194.414C200.812 194.215 200.876 194.047 201.005 193.91C201.134 193.773 201.296 193.705 201.491 193.705C201.71 193.705 201.9 193.795 202.06 193.975C202.22 194.15 202.3 194.363 202.3 194.613C202.3 195.379 201.874 195.977 201.023 196.406L200.8 195.984C201.277 195.75 201.515 195.475 201.515 195.158ZM216.556 186.586C216.728 186.586 216.874 186.648 216.995 186.773C217.116 186.895 217.177 187.041 217.177 187.213C217.177 187.393 217.116 187.543 216.995 187.664C216.878 187.785 216.731 187.846 216.556 187.846C216.395 187.846 216.253 187.783 216.128 187.658C216.007 187.529 215.946 187.381 215.946 187.213C215.946 187.045 216.007 186.898 216.128 186.773C216.253 186.648 216.395 186.586 216.556 186.586ZM217.001 195H216.087V189.686H214.288V188.895H217.001V195ZM225.851 195H224.937V191.086C224.937 190.543 224.849 190.15 224.674 189.908C224.502 189.662 224.23 189.539 223.859 189.539C223.301 189.539 222.701 189.887 222.06 190.582V195H221.146V188.895H222.06V189.791C222.717 189.096 223.408 188.748 224.135 188.748C225.279 188.748 225.851 189.439 225.851 190.822V195ZM229.387 189.686C229.591 189.404 229.864 189.178 230.208 189.006C230.555 188.834 230.921 188.748 231.303 188.748C232.007 188.748 232.557 189.039 232.956 189.621C233.358 190.199 233.559 190.953 233.559 191.883C233.559 192.82 233.348 193.602 232.926 194.227C232.509 194.848 231.944 195.158 231.233 195.158C230.854 195.158 230.499 195.064 230.167 194.877C229.839 194.686 229.579 194.434 229.387 194.121V197.414H228.473V188.895H229.387V189.686ZM229.387 190.594V193.131C229.559 193.475 229.792 193.762 230.085 193.992C230.378 194.223 230.68 194.338 230.993 194.338C231.485 194.338 231.876 194.107 232.165 193.646C232.458 193.186 232.604 192.613 232.604 191.93C232.604 191.227 232.466 190.652 232.188 190.207C231.911 189.762 231.524 189.539 231.028 189.539C230.384 189.539 229.837 189.891 229.387 190.594ZM240.494 195H239.58V194.098C238.923 194.797 238.232 195.146 237.505 195.146C236.361 195.146 235.789 194.453 235.789 193.066V188.895H236.703V192.803C236.703 193.322 236.785 193.711 236.949 193.969C237.113 194.223 237.39 194.35 237.781 194.35C238.339 194.35 238.939 194.002 239.58 193.307V188.895H240.494V195ZM247.891 194.725C247.278 195.006 246.674 195.146 246.081 195.146C244.991 195.146 244.446 194.57 244.446 193.418V189.686H243.274V188.895H244.446V187.225H245.336V188.895H247.411V189.686H245.336V193.178C245.336 193.549 245.418 193.838 245.583 194.045C245.747 194.248 245.969 194.35 246.25 194.35C246.75 194.35 247.245 194.238 247.733 194.016L247.891 194.725ZM252.745 188.807C252.945 188.807 253.113 188.875 253.249 189.012C253.386 189.145 253.454 189.309 253.454 189.504C253.454 189.699 253.386 189.865 253.249 190.002C253.113 190.135 252.945 190.201 252.745 190.201C252.55 190.201 252.384 190.135 252.247 190.002C252.115 189.865 252.048 189.699 252.048 189.504C252.048 189.309 252.115 189.145 252.247 189.012C252.384 188.875 252.55 188.807 252.745 188.807ZM252.745 193.705C252.945 193.705 253.113 193.771 253.249 193.904C253.386 194.037 253.454 194.203 253.454 194.402C253.454 194.598 253.386 194.762 253.249 194.895C253.113 195.027 252.945 195.094 252.745 195.094C252.55 195.094 252.384 195.027 252.247 194.895C252.115 194.762 252.048 194.598 252.048 194.402C252.048 194.203 252.115 194.037 252.247 193.904C252.384 193.771 252.55 193.705 252.745 193.705ZM93.3262 208.768C92.8145 208.6 92.332 208.516 91.8789 208.516C91.3828 208.516 90.9902 208.6 90.7012 208.768C90.4121 208.932 90.2676 209.152 90.2676 209.43C90.2676 209.605 90.334 209.76 90.4668 209.893C90.5996 210.021 90.8652 210.143 91.2637 210.256L92.1367 210.508C92.5391 210.621 92.8672 210.758 93.1211 210.918C93.375 211.074 93.5645 211.266 93.6895 211.492C93.8184 211.715 93.8828 211.975 93.8828 212.271C93.8828 212.854 93.6387 213.314 93.1504 213.654C92.6621 213.99 92.041 214.158 91.2871 214.158C90.5371 214.158 89.918 214.045 89.4297 213.818L89.6055 213.027C90.1172 213.27 90.666 213.391 91.252 213.391C91.7598 213.391 92.1719 213.297 92.4883 213.109C92.8086 212.918 92.9688 212.666 92.9688 212.354C92.9688 212.143 92.8887 211.955 92.7285 211.791C92.5723 211.623 92.2012 211.449 91.6152 211.27C91.1426 211.125 90.7949 211.018 90.5723 210.947C90.3496 210.873 90.1426 210.766 89.9512 210.625C89.7598 210.484 89.6133 210.316 89.5117 210.121C89.4141 209.926 89.3652 209.707 89.3652 209.465C89.3652 208.938 89.5957 208.52 90.0566 208.211C90.5176 207.902 91.1289 207.748 91.8906 207.748C92.3828 207.748 92.9297 207.832 93.5312 208L93.3262 208.768ZM101.35 213.725C100.737 214.006 100.134 214.146 99.5399 214.146C98.4501 214.146 97.9052 213.57 97.9052 212.418V208.686H96.7333V207.895H97.9052V206.225H98.7958V207.895H100.87V208.686H98.7958V212.178C98.7958 212.549 98.8778 212.838 99.0419 213.045C99.2059 213.248 99.4286 213.35 99.7098 213.35C100.21 213.35 100.704 213.238 101.192 213.016L101.35 213.725ZM108.713 208.059L108.344 208.938C107.941 208.762 107.594 208.674 107.301 208.674C107.031 208.674 106.767 208.752 106.51 208.908C106.252 209.061 106.013 209.281 105.795 209.57C105.58 209.855 105.472 210.016 105.472 210.051V214H104.564V207.895H105.472V209.131C105.961 208.209 106.594 207.748 107.371 207.748C107.832 207.748 108.279 207.852 108.713 208.059ZM113.977 205.586C114.149 205.586 114.296 205.648 114.417 205.773C114.538 205.895 114.598 206.041 114.598 206.213C114.598 206.393 114.538 206.543 114.417 206.664C114.299 206.785 114.153 206.846 113.977 206.846C113.817 206.846 113.674 206.783 113.549 206.658C113.428 206.529 113.368 206.381 113.368 206.213C113.368 206.045 113.428 205.898 113.549 205.773C113.674 205.648 113.817 205.586 113.977 205.586ZM114.423 214H113.508V208.686H111.71V207.895H114.423V214ZM123.273 214H122.359V210.086C122.359 209.543 122.271 209.15 122.095 208.908C121.923 208.662 121.652 208.539 121.281 208.539C120.722 208.539 120.123 208.887 119.482 209.582V214H118.568V207.895H119.482V208.791C120.138 208.096 120.83 207.748 121.556 207.748C122.701 207.748 123.273 208.439 123.273 209.822V214ZM127.588 211.697C127.018 211.975 126.733 212.219 126.733 212.43C126.733 212.543 126.797 212.639 126.926 212.717C127.059 212.795 127.239 212.834 127.465 212.834L129.522 212.775C130.01 212.775 130.389 212.895 130.659 213.133C130.932 213.371 131.069 213.709 131.069 214.146C131.069 214.838 130.76 215.389 130.143 215.799C129.526 216.209 128.805 216.414 127.981 216.414C127.305 216.414 126.752 216.271 126.323 215.986C125.893 215.705 125.678 215.34 125.678 214.891C125.678 214.402 126.01 213.99 126.674 213.654C126.123 213.396 125.848 213.08 125.848 212.705C125.848 212.275 126.204 211.875 126.914 211.504C126.586 211.305 126.334 211.047 126.159 210.73C125.983 210.414 125.895 210.08 125.895 209.729C125.895 209.154 126.09 208.684 126.481 208.316C126.871 207.945 127.36 207.76 127.946 207.76C128.368 207.76 128.748 207.848 129.088 208.023L130.899 207.748V208.639H129.733C129.909 208.947 129.996 209.311 129.996 209.729C129.996 210.283 129.803 210.752 129.416 211.135C129.03 211.518 128.539 211.709 127.946 211.709C127.821 211.709 127.702 211.705 127.588 211.697ZM127.946 211C128.282 211 128.555 210.885 128.766 210.654C128.981 210.42 129.088 210.115 129.088 209.74C129.088 209.346 128.985 209.037 128.778 208.814C128.571 208.592 128.293 208.48 127.946 208.48C127.621 208.48 127.348 208.598 127.125 208.832C126.907 209.062 126.797 209.365 126.797 209.74C126.797 210.107 126.907 210.41 127.125 210.648C127.348 210.883 127.621 211 127.946 211ZM127.981 215.705C128.582 215.705 129.094 215.57 129.516 215.301C129.942 215.035 130.155 214.705 130.155 214.311C130.155 213.904 129.854 213.701 129.252 213.701C129.053 213.701 128.709 213.713 128.221 213.736C127.912 213.752 127.67 213.76 127.495 213.76C127.409 213.76 127.274 213.83 127.09 213.971C126.911 214.111 126.772 214.252 126.674 214.393C126.58 214.537 126.534 214.686 126.534 214.838C126.534 215.076 126.666 215.279 126.932 215.447C127.198 215.619 127.547 215.705 127.981 215.705ZM133.908 205.586C134.783 206.246 135.447 207.012 135.9 207.883C136.353 208.75 136.579 209.674 136.579 210.654C136.579 211.627 136.351 212.551 135.894 213.426C135.441 214.301 134.779 215.068 133.908 215.729L133.544 215.225C134.259 214.592 134.773 213.92 135.085 213.209C135.402 212.494 135.56 211.639 135.56 210.643C135.56 209.615 135.398 208.756 135.074 208.064C134.749 207.373 134.24 206.715 133.544 206.09L133.908 205.586ZM142.84 207.807C143.039 207.807 143.207 207.875 143.344 208.012C143.481 208.145 143.549 208.309 143.549 208.504C143.549 208.699 143.481 208.865 143.344 209.002C143.207 209.135 143.039 209.201 142.84 209.201C142.645 209.201 142.479 209.135 142.342 209.002C142.209 208.865 142.143 208.699 142.143 208.504C142.143 208.309 142.209 208.145 142.342 208.012C142.479 207.875 142.645 207.807 142.84 207.807ZM142.84 212.705C143.039 212.705 143.207 212.771 143.344 212.904C143.481 213.037 143.549 213.203 143.549 213.402C143.549 213.598 143.481 213.762 143.344 213.895C143.207 214.027 143.039 214.094 142.84 214.094C142.645 214.094 142.479 214.027 142.342 213.895C142.209 213.762 142.143 213.598 142.143 213.402C142.143 213.203 142.209 213.037 142.342 212.904C142.479 212.771 142.645 212.705 142.84 212.705ZM137.927 233H137.013V229.086C137.013 228.543 136.925 228.15 136.749 227.908C136.577 227.662 136.306 227.539 135.935 227.539C135.376 227.539 134.777 227.887 134.136 228.582V233H133.222V226.895H134.136V227.791C134.792 227.096 135.484 226.748 136.21 226.748C137.355 226.748 137.927 227.439 137.927 228.822V233ZM145.436 229.977H141.246C141.246 230.668 141.445 231.238 141.844 231.688C142.246 232.137 142.738 232.361 143.32 232.361C143.875 232.361 144.447 232.262 145.037 232.062L145.195 232.795C144.656 233.037 144.028 233.158 143.309 233.158C142.403 233.158 141.672 232.867 141.117 232.285C140.563 231.703 140.285 230.918 140.285 229.93C140.285 228.961 140.533 228.189 141.029 227.615C141.529 227.037 142.174 226.748 142.963 226.748C143.666 226.748 144.254 227.016 144.727 227.551C145.199 228.086 145.436 228.799 145.436 229.689V229.977ZM144.44 229.232C144.44 228.756 144.291 228.355 143.994 228.031C143.697 227.703 143.365 227.539 142.998 227.539C142.526 227.539 142.133 227.695 141.82 228.008C141.512 228.32 141.34 228.729 141.305 229.232H144.44ZM153.302 226.895L152.423 233H151.726L150.29 229.543L148.849 233H148.151L147.29 226.895H148.198C148.522 229.746 148.69 231.242 148.702 231.383L149.821 228.729H150.759L151.872 231.365L152.364 226.895H153.302ZM167.089 233H162.77V224.732H167.054V225.57H163.731V228.131H166.925V228.969H163.731V232.162H167.089V233ZM174.656 227.059L174.287 227.938C173.884 227.762 173.537 227.674 173.244 227.674C172.974 227.674 172.711 227.752 172.453 227.908C172.195 228.061 171.957 228.281 171.738 228.57C171.523 228.855 171.416 229.016 171.416 229.051V233H170.507V226.895H171.416V228.131C171.904 227.209 172.537 226.748 173.314 226.748C173.775 226.748 174.222 226.852 174.656 227.059ZM181.983 227.059L181.614 227.938C181.211 227.762 180.864 227.674 180.571 227.674C180.301 227.674 180.038 227.752 179.78 227.908C179.522 228.061 179.284 228.281 179.065 228.57C178.85 228.855 178.743 229.016 178.743 229.051V233H177.835V226.895H178.743V228.131C179.231 227.209 179.864 226.748 180.641 226.748C181.102 226.748 181.549 226.852 181.983 227.059ZM186.849 226.748C187.689 226.748 188.357 227.041 188.853 227.627C189.349 228.213 189.597 228.984 189.597 229.941C189.597 230.906 189.349 231.684 188.853 232.273C188.357 232.863 187.689 233.158 186.849 233.158C186.005 233.158 185.335 232.865 184.839 232.279C184.347 231.689 184.101 230.91 184.101 229.941C184.101 228.98 184.349 228.209 184.845 227.627C185.341 227.041 186.009 226.748 186.849 226.748ZM186.849 232.361C187.404 232.361 187.841 232.127 188.162 231.658C188.482 231.189 188.642 230.621 188.642 229.953C188.642 229.25 188.484 228.672 188.167 228.219C187.851 227.766 187.412 227.539 186.849 227.539C186.283 227.539 185.843 227.764 185.531 228.213C185.218 228.658 185.062 229.238 185.062 229.953C185.062 230.633 185.22 231.205 185.537 231.67C185.853 232.131 186.29 232.361 186.849 232.361ZM196.637 227.059L196.268 227.938C195.866 227.762 195.518 227.674 195.225 227.674C194.955 227.674 194.692 227.752 194.434 227.908C194.176 228.061 193.938 228.281 193.719 228.57C193.504 228.855 193.397 229.016 193.397 229.051V233H192.489V226.895H193.397V228.131C193.885 227.209 194.518 226.748 195.295 226.748C195.756 226.748 196.203 226.852 196.637 227.059ZM210.342 226.139L210.131 227.779H209.662L209.445 226.139V224.732H210.342V226.139ZM208.221 226.139L208.004 227.779H207.535L207.318 226.139V224.732H208.221V226.139ZM218.653 233H217.587L214.622 226.473V233H213.661V224.732H214.733L217.71 231.201V224.732H218.653V233ZM223.484 226.748C224.324 226.748 224.992 227.041 225.488 227.627C225.984 228.213 226.232 228.984 226.232 229.941C226.232 230.906 225.984 231.684 225.488 232.273C224.992 232.863 224.324 233.158 223.484 233.158C222.64 233.158 221.971 232.865 221.474 232.279C220.982 231.689 220.736 230.91 220.736 229.941C220.736 228.98 220.984 228.209 221.48 227.627C221.976 227.041 222.644 226.748 223.484 226.748ZM223.484 232.361C224.039 232.361 224.476 232.127 224.797 231.658C225.117 231.189 225.277 230.621 225.277 229.953C225.277 229.25 225.119 228.672 224.803 228.219C224.486 227.766 224.047 227.539 223.484 227.539C222.918 227.539 222.478 227.764 222.166 228.213C221.853 228.658 221.697 229.238 221.697 229.953C221.697 230.633 221.855 231.205 222.172 231.67C222.488 232.131 222.926 232.361 223.484 232.361ZM233.237 232.725C232.624 233.006 232.02 233.146 231.426 233.146C230.337 233.146 229.792 232.57 229.792 231.418V227.686H228.62V226.895H229.792V225.225H230.682V226.895H232.757V227.686H230.682V231.178C230.682 231.549 230.764 231.838 230.928 232.045C231.092 232.248 231.315 232.35 231.596 232.35C232.096 232.35 232.591 232.238 233.079 232.016L233.237 232.725ZM91.9961 243.586C92.168 243.586 92.3145 243.648 92.4355 243.773C92.5566 243.895 92.6172 244.041 92.6172 244.213C92.6172 244.393 92.5566 244.543 92.4355 244.664C92.3184 244.785 92.1719 244.846 91.9961 244.846C91.8359 244.846 91.6934 244.783 91.5684 244.658C91.4473 244.529 91.3867 244.381 91.3867 244.213C91.3867 244.045 91.4473 243.898 91.5684 243.773C91.6934 243.648 91.8359 243.586 91.9961 243.586ZM92.4414 252H91.5273V246.686H89.7285V245.895H92.4414V252ZM101.772 252H100.858V247.992C100.858 247.023 100.679 246.539 100.319 246.539C100.136 246.539 99.9325 246.707 99.7098 247.043C99.4911 247.375 99.3817 247.559 99.3817 247.594V252H98.4735V247.992C98.4735 247.023 98.2919 246.539 97.9286 246.539C97.7489 246.539 97.5477 246.707 97.3251 247.043C97.1063 247.375 96.997 247.559 96.997 247.594V252H96.0829V245.895H96.9618V246.814C97.1337 246.49 97.3368 246.232 97.5712 246.041C97.8095 245.846 98.0458 245.748 98.2802 245.748C98.5262 245.748 98.747 245.846 98.9423 246.041C99.1376 246.232 99.2723 246.49 99.3466 246.814C99.5184 246.49 99.7235 246.232 99.9618 246.041C100.2 245.846 100.434 245.748 100.665 245.748C101.403 245.748 101.772 246.408 101.772 247.729V252ZM104.828 246.686C105.031 246.404 105.304 246.178 105.648 246.006C105.996 245.834 106.361 245.748 106.744 245.748C107.447 245.748 107.998 246.039 108.396 246.621C108.799 247.199 109 247.953 109 248.883C109 249.82 108.789 250.602 108.367 251.227C107.949 251.848 107.385 252.158 106.674 252.158C106.295 252.158 105.939 252.064 105.607 251.877C105.279 251.686 105.019 251.434 104.828 251.121V254.414H103.914V245.895H104.828V246.686ZM104.828 247.594V250.131C105 250.475 105.232 250.762 105.525 250.992C105.818 251.223 106.121 251.338 106.433 251.338C106.926 251.338 107.316 251.107 107.605 250.646C107.898 250.186 108.045 249.613 108.045 248.93C108.045 248.227 107.906 247.652 107.629 247.207C107.351 246.762 106.965 246.539 106.469 246.539C105.824 246.539 105.277 246.891 104.828 247.594ZM115.501 252H113.005V244.523H111.411V243.732H113.919V251.209H115.501V252ZM123.455 248.977H119.265C119.265 249.668 119.464 250.238 119.863 250.688C120.265 251.137 120.757 251.361 121.339 251.361C121.894 251.361 122.466 251.262 123.056 251.062L123.214 251.795C122.675 252.037 122.046 252.158 121.328 252.158C120.421 252.158 119.691 251.867 119.136 251.285C118.582 250.703 118.304 249.918 118.304 248.93C118.304 247.961 118.552 247.189 119.048 246.615C119.548 246.037 120.193 245.748 120.982 245.748C121.685 245.748 122.273 246.016 122.746 246.551C123.218 247.086 123.455 247.799 123.455 248.689V248.977ZM122.459 248.232C122.459 247.756 122.31 247.355 122.013 247.031C121.716 246.703 121.384 246.539 121.017 246.539C120.544 246.539 120.152 246.695 119.839 247.008C119.531 247.32 119.359 247.729 119.324 248.232H122.459ZM131.08 252H130.166V247.992C130.166 247.023 129.987 246.539 129.627 246.539C129.444 246.539 129.241 246.707 129.018 247.043C128.799 247.375 128.69 247.559 128.69 247.594V252H127.782V247.992C127.782 247.023 127.6 246.539 127.237 246.539C127.057 246.539 126.856 246.707 126.633 247.043C126.414 247.375 126.305 247.559 126.305 247.594V252H125.391V245.895H126.27V246.814C126.442 246.49 126.645 246.232 126.879 246.041C127.118 245.846 127.354 245.748 127.588 245.748C127.834 245.748 128.055 245.846 128.25 246.041C128.446 246.232 128.58 246.49 128.655 246.814C128.827 246.49 129.032 246.232 129.27 246.041C129.508 245.846 129.743 245.748 129.973 245.748C130.711 245.748 131.08 246.408 131.08 247.729V252ZM138.109 248.977H133.919C133.919 249.668 134.118 250.238 134.517 250.688C134.919 251.137 135.411 251.361 135.993 251.361C136.548 251.361 137.12 251.262 137.71 251.062L137.868 251.795C137.329 252.037 136.7 252.158 135.982 252.158C135.075 252.158 134.345 251.867 133.79 251.285C133.236 250.703 132.958 249.918 132.958 248.93C132.958 247.961 133.206 247.189 133.702 246.615C134.202 246.037 134.847 245.748 135.636 245.748C136.339 245.748 136.927 246.016 137.4 246.551C137.872 247.086 138.109 247.799 138.109 248.689V248.977ZM137.113 248.232C137.113 247.756 136.964 247.355 136.667 247.031C136.37 246.703 136.038 246.539 135.671 246.539C135.199 246.539 134.806 246.695 134.493 247.008C134.185 247.32 134.013 247.729 133.978 248.232H137.113ZM145.254 252H144.34V248.086C144.34 247.543 144.252 247.15 144.076 246.908C143.904 246.662 143.633 246.539 143.262 246.539C142.703 246.539 142.104 246.887 141.463 247.582V252H140.549V245.895H141.463V246.791C142.119 246.096 142.811 245.748 143.537 245.748C144.682 245.748 145.254 246.439 145.254 247.822V252ZM152.64 251.725C152.026 252.006 151.423 252.146 150.829 252.146C149.739 252.146 149.194 251.57 149.194 250.418V246.686H148.022V245.895H149.194V244.225H150.085V245.895H152.159V246.686H150.085V250.178C150.085 250.549 150.167 250.838 150.331 251.045C150.495 251.248 150.718 251.35 150.999 251.35C151.499 251.35 151.993 251.238 152.481 251.016L152.64 251.725ZM160.09 248.977H155.9C155.9 249.668 156.1 250.238 156.498 250.688C156.9 251.137 157.393 251.361 157.975 251.361C158.529 251.361 159.101 251.262 159.691 251.062L159.85 251.795C159.31 252.037 158.682 252.158 157.963 252.158C157.057 252.158 156.326 251.867 155.771 251.285C155.217 250.703 154.939 249.918 154.939 248.93C154.939 247.961 155.187 247.189 155.684 246.615C156.184 246.037 156.828 245.748 157.617 245.748C158.32 245.748 158.908 246.016 159.381 246.551C159.853 247.086 160.09 247.799 160.09 248.689V248.977ZM159.094 248.232C159.094 247.756 158.945 247.355 158.648 247.031C158.351 246.703 158.019 246.539 157.652 246.539C157.18 246.539 156.787 246.695 156.475 247.008C156.166 247.32 155.994 247.729 155.959 248.232H159.094ZM167.212 252H166.298V251.121C166.11 251.422 165.841 251.67 165.489 251.865C165.141 252.061 164.774 252.158 164.387 252.158C163.688 252.158 163.136 251.848 162.729 251.227C162.323 250.602 162.12 249.811 162.12 248.854C162.12 247.959 162.331 247.219 162.753 246.633C163.179 246.043 163.741 245.748 164.44 245.748C165.21 245.748 165.829 246.061 166.298 246.686V243.732H167.212V252ZM166.298 250.131V247.594C165.86 246.891 165.333 246.539 164.716 246.539C164.212 246.539 163.813 246.764 163.52 247.213C163.227 247.658 163.081 248.223 163.081 248.906C163.081 249.609 163.218 250.191 163.491 250.652C163.768 251.109 164.147 251.338 164.628 251.338C164.858 251.338 165.091 251.275 165.325 251.15C165.559 251.025 165.78 250.838 165.987 250.588C166.194 250.338 166.298 250.186 166.298 250.131ZM182.165 245.895L179.85 252C179.514 252.898 179.18 253.525 178.848 253.881C178.52 254.236 178.145 254.414 177.723 254.414C177.348 254.414 176.977 254.346 176.61 254.209L176.762 253.477C177.059 253.57 177.325 253.617 177.559 253.617C177.887 253.617 178.157 253.49 178.368 253.236C178.579 252.982 178.792 252.566 179.006 251.988L176.715 245.895H177.711L179.44 250.764L181.169 245.895H182.165ZM189.398 248.977H185.208C185.208 249.668 185.408 250.238 185.806 250.688C186.208 251.137 186.701 251.361 187.283 251.361C187.837 251.361 188.41 251.262 188.999 251.062L189.158 251.795C188.619 252.037 187.99 252.158 187.271 252.158C186.365 252.158 185.634 251.867 185.08 251.285C184.525 250.703 184.247 249.918 184.247 248.93C184.247 247.961 184.496 247.189 184.992 246.615C185.492 246.037 186.136 245.748 186.925 245.748C187.628 245.748 188.216 246.016 188.689 246.551C189.162 247.086 189.398 247.799 189.398 248.689V248.977ZM188.402 248.232C188.402 247.756 188.253 247.355 187.956 247.031C187.66 246.703 187.328 246.539 186.96 246.539C186.488 246.539 186.095 246.695 185.783 247.008C185.474 247.32 185.302 247.729 185.267 248.232H188.402ZM196.602 251.725C195.989 252.006 195.385 252.146 194.791 252.146C193.701 252.146 193.157 251.57 193.157 250.418V246.686H191.985V245.895H193.157V244.225H194.047V245.895H196.121V246.686H194.047V250.178C194.047 250.549 194.129 250.838 194.293 251.045C194.457 251.248 194.68 251.35 194.961 251.35C195.461 251.35 195.955 251.238 196.444 251.016L196.602 251.725ZM201.937 246.422L201.661 249.516H201.157L200.882 246.422V243.732H201.937V246.422ZM201.433 250.658C201.64 250.658 201.814 250.729 201.954 250.869C202.095 251.01 202.165 251.184 202.165 251.391C202.165 251.598 202.093 251.777 201.948 251.93C201.808 252.082 201.636 252.158 201.433 252.158C201.234 252.158 201.064 252.084 200.923 251.936C200.782 251.783 200.712 251.602 200.712 251.391C200.712 251.18 200.78 251.006 200.917 250.869C201.058 250.729 201.23 250.658 201.433 250.658ZM210.342 245.139L210.131 246.779H209.662L209.445 245.139V243.732H210.342V245.139ZM208.221 245.139L208.004 246.779H207.535L207.318 245.139V243.732H208.221V245.139ZM223.484 245.807C223.683 245.807 223.851 245.875 223.988 246.012C224.125 246.145 224.193 246.309 224.193 246.504C224.193 246.703 224.125 246.869 223.988 247.002C223.851 247.135 223.683 247.201 223.484 247.201C223.289 247.201 223.125 247.135 222.992 247.002C222.859 246.865 222.793 246.699 222.793 246.504C222.793 246.309 222.859 246.145 222.992 246.012C223.125 245.875 223.289 245.807 223.484 245.807ZM223.496 252.158C223.293 252.135 223.125 252.051 222.992 251.906C222.859 251.762 222.793 251.598 222.793 251.414C222.793 251.215 222.857 251.047 222.986 250.91C223.115 250.773 223.277 250.705 223.473 250.705C223.691 250.705 223.881 250.795 224.041 250.975C224.201 251.15 224.281 251.363 224.281 251.613C224.281 252.379 223.855 252.977 223.004 253.406L222.781 252.984C223.258 252.75 223.496 252.475 223.496 252.158Z" fill="url(#paint2_linear_1148_6317)"/>
<path d="M156.117 170.686C156.32 170.404 156.594 170.178 156.937 170.006C157.285 169.834 157.65 169.748 158.033 169.748C158.736 169.748 159.287 170.039 159.685 170.621C160.088 171.199 160.289 171.953 160.289 172.883C160.289 173.82 160.078 174.602 159.656 175.227C159.238 175.848 158.674 176.158 157.963 176.158C157.584 176.158 157.228 176.064 156.896 175.877C156.568 175.686 156.309 175.434 156.117 175.121V178.414H155.203V169.895H156.117V170.686ZM156.117 171.594V174.131C156.289 174.475 156.521 174.762 156.814 174.992C157.107 175.223 157.41 175.338 157.723 175.338C158.215 175.338 158.605 175.107 158.894 174.646C159.187 174.186 159.334 173.613 159.334 172.93C159.334 172.227 159.195 171.652 158.918 171.207C158.641 170.762 158.254 170.539 157.758 170.539C157.113 170.539 156.566 170.891 156.117 171.594ZM167.387 176H166.479C166.405 175.754 166.368 175.426 166.368 175.016C165.848 175.777 165.141 176.158 164.247 176.158C163.794 176.158 163.393 175.998 163.046 175.678C162.702 175.354 162.53 174.938 162.53 174.43C162.53 174.129 162.591 173.863 162.712 173.633C162.833 173.402 163.011 173.209 163.245 173.053C163.479 172.893 163.764 172.768 164.1 172.678C164.436 172.584 164.835 172.52 165.296 172.484L166.321 172.402V172.109C166.321 171.062 165.833 170.539 164.856 170.539C164.626 170.539 164.333 170.59 163.977 170.691C163.626 170.789 163.323 170.906 163.069 171.043L162.829 170.387C163.661 169.961 164.434 169.748 165.149 169.748C166.54 169.748 167.235 170.484 167.235 171.957V174.582C167.235 175.113 167.286 175.586 167.387 176ZM166.321 174.189V173.082C165.497 173.156 164.93 173.227 164.622 173.293C164.317 173.355 164.052 173.475 163.825 173.65C163.602 173.826 163.491 174.064 163.491 174.365C163.491 174.639 163.587 174.859 163.778 175.027C163.97 175.195 164.214 175.279 164.511 175.279C164.835 175.279 165.157 175.184 165.477 174.992C165.798 174.797 166.079 174.529 166.321 174.189ZM174.539 176H173.625V175.121C173.437 175.422 173.168 175.67 172.816 175.865C172.468 176.061 172.101 176.158 171.715 176.158C171.015 176.158 170.463 175.848 170.056 175.227C169.65 174.602 169.447 173.811 169.447 172.854C169.447 171.959 169.658 171.219 170.08 170.633C170.506 170.043 171.068 169.748 171.767 169.748C172.537 169.748 173.156 170.061 173.625 170.686V167.732H174.539V176ZM173.625 174.131V171.594C173.187 170.891 172.66 170.539 172.043 170.539C171.539 170.539 171.14 170.764 170.847 171.213C170.554 171.658 170.408 172.223 170.408 172.906C170.408 173.609 170.545 174.191 170.818 174.652C171.095 175.109 171.474 175.338 171.955 175.338C172.185 175.338 172.418 175.275 172.652 175.15C172.886 175.025 173.107 174.838 173.314 174.588C173.521 174.338 173.625 174.186 173.625 174.131ZM181.924 176H177.424V167.732H178.385V175.162H181.924V176ZM189.398 172.977H185.208C185.208 173.668 185.408 174.238 185.806 174.688C186.208 175.137 186.701 175.361 187.283 175.361C187.837 175.361 188.41 175.262 188.999 175.062L189.158 175.795C188.619 176.037 187.99 176.158 187.271 176.158C186.365 176.158 185.634 175.867 185.08 175.285C184.525 174.703 184.247 173.918 184.247 172.93C184.247 171.961 184.496 171.189 184.992 170.615C185.492 170.037 186.136 169.748 186.925 169.748C187.628 169.748 188.216 170.016 188.689 170.551C189.162 171.086 189.398 171.799 189.398 172.689V172.977ZM188.402 172.232C188.402 171.756 188.253 171.355 187.956 171.031C187.66 170.703 187.328 170.539 186.96 170.539C186.488 170.539 186.095 170.695 185.783 171.008C185.474 171.32 185.302 171.729 185.267 172.232H188.402ZM196.602 167.826L196.362 168.57C195.928 168.445 195.539 168.383 195.196 168.383C194.868 168.383 194.641 168.477 194.516 168.664C194.395 168.848 194.334 169.221 194.334 169.783V169.895H196.385V170.686H194.334V176H193.42V170.686H191.885V169.895H193.42V169.689C193.42 168.912 193.553 168.367 193.819 168.055C194.084 167.742 194.543 167.586 195.196 167.586C195.618 167.586 196.086 167.666 196.602 167.826ZM203.929 175.725C203.316 176.006 202.712 176.146 202.118 176.146C201.029 176.146 200.484 175.57 200.484 174.418V170.686H199.312V169.895H200.484V168.225H201.374V169.895H203.448V170.686H201.374V174.178C201.374 174.549 201.456 174.838 201.62 175.045C201.784 175.248 202.007 175.35 202.288 175.35C202.788 175.35 203.282 175.238 203.771 175.016L203.929 175.725Z" fill="#FE6D64"/>
<path d="M210.846 177.225L210.488 177.729C209.617 177.068 208.953 176.301 208.496 175.426C208.039 174.551 207.811 173.627 207.811 172.654C207.811 171.674 208.037 170.75 208.49 169.883C208.943 169.012 209.609 168.246 210.488 167.586L210.846 168.09C210.131 168.73 209.615 169.402 209.299 170.105C208.986 170.805 208.83 171.65 208.83 172.643C208.83 173.67 208.992 174.535 209.316 175.238C209.645 175.938 210.154 176.6 210.846 177.225ZM143.309 197.244H142.406V186.732H143.309V197.244ZM210.594 216.004H210.131C209.568 216.004 209.162 215.852 208.912 215.547C208.666 215.246 208.543 214.686 208.543 213.865V213.303C208.543 212.572 208.447 212.064 208.256 211.779C208.065 211.49 207.756 211.346 207.33 211.346V210.391C207.756 210.391 208.065 210.248 208.256 209.963C208.447 209.674 208.543 209.164 208.543 208.434V207.865C208.543 207.049 208.666 206.49 208.912 206.189C209.162 205.885 209.568 205.732 210.131 205.732H210.594V206.5H210.418C210.055 206.5 209.801 206.578 209.656 206.734C209.516 206.891 209.445 207.264 209.445 207.854V208.229C209.445 209.037 209.352 209.633 209.164 210.016C208.977 210.398 208.658 210.682 208.209 210.865C208.658 211.053 208.977 211.338 209.164 211.721C209.352 212.104 209.445 212.699 209.445 213.508V213.883C209.445 214.473 209.516 214.846 209.656 215.002C209.801 215.158 210.055 215.236 210.418 215.236H210.594V216.004ZM203.519 234.225L203.161 234.729C202.29 234.068 201.626 233.301 201.169 232.426C200.712 231.551 200.484 230.627 200.484 229.654C200.484 228.674 200.71 227.75 201.163 226.883C201.616 226.012 202.282 225.246 203.161 224.586L203.519 225.09C202.804 225.73 202.288 226.402 201.972 227.105C201.659 227.805 201.503 228.65 201.503 229.643C201.503 230.67 201.665 231.535 201.989 232.238C202.318 232.938 202.827 233.6 203.519 234.225ZM214.505 243.586C215.38 244.246 216.044 245.012 216.497 245.883C216.95 246.75 217.177 247.674 217.177 248.654C217.177 249.627 216.948 250.551 216.491 251.426C216.038 252.301 215.376 253.068 214.505 253.729L214.142 253.225C214.856 252.592 215.37 251.92 215.683 251.209C215.999 250.494 216.157 249.639 216.157 248.643C216.157 247.615 215.995 246.756 215.671 246.064C215.347 245.373 214.837 244.715 214.142 244.09L214.505 243.586ZM93.0742 268.346C92.6523 268.346 92.3438 268.49 92.1484 268.779C91.957 269.064 91.8613 269.572 91.8613 270.303V270.865C91.8613 271.686 91.7383 272.246 91.4922 272.547C91.2461 272.852 90.8418 273.004 90.2793 273.004H89.8105V272.236H89.9922C90.3555 272.236 90.6074 272.158 90.748 272.002C90.8926 271.846 90.9648 271.473 90.9648 270.883V270.508C90.9648 269.699 91.0586 269.104 91.2461 268.721C91.4336 268.338 91.752 268.053 92.2012 267.865C91.752 267.682 91.4336 267.398 91.2461 267.016C91.0586 266.633 90.9648 266.037 90.9648 265.229V264.854C90.9648 264.264 90.8926 263.891 90.748 263.734C90.6074 263.578 90.3555 263.5 89.9922 263.5H89.8105V262.732H90.2793C90.8418 262.732 91.2461 262.885 91.4922 263.189C91.7383 263.49 91.8613 264.049 91.8613 264.865V265.434C91.8613 266.094 91.9473 266.586 92.1191 266.91C92.291 267.23 92.6094 267.391 93.0742 267.391V268.346Z" fill="#F9F9F9"/>
<path d="M93.9648 195H93.0508V191.086C93.0508 190.543 92.9629 190.15 92.7871 189.908C92.6152 189.662 92.3438 189.539 91.9727 189.539C91.4141 189.539 90.8145 189.887 90.1738 190.582V195H89.2598V188.895H90.1738V189.791C90.8301 189.096 91.5215 188.748 92.248 188.748C93.3926 188.748 93.9648 189.439 93.9648 190.822V195ZM101.28 195H100.366V194.098C99.7098 194.797 99.0184 195.146 98.2919 195.146C97.1473 195.146 96.5751 194.453 96.5751 193.066V188.895H97.4891V192.803C97.4891 193.322 97.5712 193.711 97.7352 193.969C97.8993 194.223 98.1766 194.35 98.5673 194.35C99.1259 194.35 99.7255 194.002 100.366 193.307V188.895H101.28V195ZM109.099 195H108.185V190.992C108.185 190.023 108.006 189.539 107.646 189.539C107.463 189.539 107.26 189.707 107.037 190.043C106.818 190.375 106.709 190.559 106.709 190.594V195H105.801V190.992C105.801 190.023 105.619 189.539 105.256 189.539C105.076 189.539 104.875 189.707 104.652 190.043C104.433 190.375 104.324 190.559 104.324 190.594V195H103.41V188.895H104.289V189.814C104.461 189.49 104.664 189.232 104.898 189.041C105.136 188.846 105.373 188.748 105.607 188.748C105.853 188.748 106.074 188.846 106.269 189.041C106.465 189.232 106.599 189.49 106.674 189.814C106.845 189.49 107.051 189.232 107.289 189.041C107.527 188.846 107.761 188.748 107.992 188.748C108.73 188.748 109.099 189.408 109.099 190.729V195ZM112.155 189.686C112.358 189.404 112.631 189.178 112.975 189.006C113.323 188.834 113.688 188.748 114.071 188.748C114.782 188.748 115.335 189.033 115.729 189.604C116.128 190.174 116.327 190.924 116.327 191.854C116.327 192.795 116.116 193.582 115.694 194.215C115.272 194.844 114.708 195.158 114.001 195.158C113.622 195.158 113.266 195.064 112.934 194.877C112.606 194.686 112.346 194.434 112.155 194.121V195H111.241V186.732H112.155V189.686ZM112.155 190.594V193.131C112.327 193.475 112.559 193.762 112.852 193.992C113.145 194.223 113.448 194.338 113.76 194.338C114.253 194.338 114.643 194.104 114.932 193.635C115.225 193.166 115.372 192.59 115.372 191.906C115.372 191.203 115.233 190.633 114.956 190.195C114.678 189.758 114.292 189.539 113.796 189.539C113.151 189.539 112.604 189.891 112.155 190.594ZM123.455 191.977H119.265C119.265 192.668 119.464 193.238 119.863 193.688C120.265 194.137 120.757 194.361 121.339 194.361C121.894 194.361 122.466 194.262 123.056 194.062L123.214 194.795C122.675 195.037 122.046 195.158 121.328 195.158C120.421 195.158 119.691 194.867 119.136 194.285C118.582 193.703 118.304 192.918 118.304 191.93C118.304 190.961 118.552 190.189 119.048 189.615C119.548 189.037 120.193 188.748 120.982 188.748C121.685 188.748 122.273 189.016 122.746 189.551C123.218 190.086 123.455 190.799 123.455 191.689V191.977ZM122.459 191.232C122.459 190.756 122.31 190.355 122.013 190.031C121.716 189.703 121.384 189.539 121.017 189.539C120.544 189.539 120.152 189.695 119.839 190.008C119.531 190.32 119.359 190.729 119.324 191.232H122.459ZM130.694 189.059L130.325 189.938C129.922 189.762 129.575 189.674 129.282 189.674C129.012 189.674 128.748 189.752 128.491 189.908C128.233 190.061 127.995 190.281 127.776 190.57C127.561 190.855 127.454 191.016 127.454 191.051V195H126.545V188.895H127.454V190.131C127.942 189.209 128.575 188.748 129.352 188.748C129.813 188.748 130.26 188.852 130.694 189.059ZM159.269 189.768C158.758 189.6 158.275 189.516 157.822 189.516C157.326 189.516 156.934 189.6 156.644 189.768C156.355 189.932 156.211 190.152 156.211 190.43C156.211 190.605 156.277 190.76 156.41 190.893C156.543 191.021 156.809 191.143 157.207 191.256L158.08 191.508C158.482 191.621 158.81 191.758 159.064 191.918C159.318 192.074 159.508 192.266 159.633 192.492C159.762 192.715 159.826 192.975 159.826 193.271C159.826 193.854 159.582 194.314 159.094 194.654C158.605 194.99 157.984 195.158 157.23 195.158C156.48 195.158 155.861 195.045 155.373 194.818L155.549 194.027C156.06 194.27 156.609 194.391 157.195 194.391C157.703 194.391 158.115 194.297 158.432 194.109C158.752 193.918 158.912 193.666 158.912 193.354C158.912 193.143 158.832 192.955 158.672 192.791C158.516 192.623 158.144 192.449 157.559 192.27C157.086 192.125 156.738 192.018 156.516 191.947C156.293 191.873 156.086 191.766 155.894 191.625C155.703 191.484 155.557 191.316 155.455 191.121C155.357 190.926 155.309 190.707 155.309 190.465C155.309 189.938 155.539 189.52 156 189.211C156.461 188.902 157.072 188.748 157.834 188.748C158.326 188.748 158.873 188.832 159.475 189L159.269 189.768ZM167.294 194.725C166.68 195.006 166.077 195.146 165.483 195.146C164.393 195.146 163.848 194.57 163.848 193.418V189.686H162.677V188.895H163.848V187.225H164.739V188.895H166.813V189.686H164.739V193.178C164.739 193.549 164.821 193.838 164.985 194.045C165.149 194.248 165.372 194.35 165.653 194.35C166.153 194.35 166.647 194.238 167.136 194.016L167.294 194.725ZM174.656 189.059L174.287 189.938C173.884 189.762 173.537 189.674 173.244 189.674C172.974 189.674 172.711 189.752 172.453 189.908C172.195 190.061 171.957 190.281 171.738 190.57C171.523 190.855 171.416 191.016 171.416 191.051V195H170.507V188.895H171.416V190.131C171.904 189.209 172.537 188.748 173.314 188.748C173.775 188.748 174.222 188.852 174.656 189.059ZM179.92 186.586C180.092 186.586 180.239 186.648 180.36 186.773C180.481 186.895 180.542 187.041 180.542 187.213C180.542 187.393 180.481 187.543 180.36 187.664C180.243 187.785 180.096 187.846 179.92 187.846C179.76 187.846 179.618 187.783 179.493 187.658C179.372 187.529 179.311 187.381 179.311 187.213C179.311 187.045 179.372 186.898 179.493 186.773C179.618 186.648 179.76 186.586 179.92 186.586ZM180.366 195H179.452V189.686H177.653V188.895H180.366V195ZM189.216 195H188.302V191.086C188.302 190.543 188.214 190.15 188.039 189.908C187.867 189.662 187.595 189.539 187.224 189.539C186.665 189.539 186.066 189.887 185.425 190.582V195H184.511V188.895H185.425V189.791C186.081 189.096 186.773 188.748 187.499 188.748C188.644 188.748 189.216 189.439 189.216 190.822V195ZM193.532 192.697C192.961 192.975 192.676 193.219 192.676 193.43C192.676 193.543 192.741 193.639 192.869 193.717C193.002 193.795 193.182 193.834 193.409 193.834L195.465 193.775C195.953 193.775 196.332 193.895 196.602 194.133C196.875 194.371 197.012 194.709 197.012 195.146C197.012 195.838 196.703 196.389 196.086 196.799C195.469 197.209 194.748 197.414 193.924 197.414C193.248 197.414 192.696 197.271 192.266 196.986C191.836 196.705 191.621 196.34 191.621 195.891C191.621 195.402 191.953 194.99 192.618 194.654C192.067 194.396 191.791 194.08 191.791 193.705C191.791 193.275 192.147 192.875 192.858 192.504C192.53 192.305 192.278 192.047 192.102 191.73C191.926 191.414 191.838 191.08 191.838 190.729C191.838 190.154 192.034 189.684 192.424 189.316C192.815 188.945 193.303 188.76 193.889 188.76C194.311 188.76 194.692 188.848 195.032 189.023L196.842 188.748V189.639H195.676C195.852 189.947 195.94 190.311 195.94 190.729C195.94 191.283 195.746 191.752 195.36 192.135C194.973 192.518 194.483 192.709 193.889 192.709C193.764 192.709 193.645 192.705 193.532 192.697ZM193.889 192C194.225 192 194.498 191.885 194.709 191.654C194.924 191.42 195.032 191.115 195.032 190.74C195.032 190.346 194.928 190.037 194.721 189.814C194.514 189.592 194.237 189.48 193.889 189.48C193.565 189.48 193.291 189.598 193.069 189.832C192.85 190.062 192.741 190.365 192.741 190.74C192.741 191.107 192.85 191.41 193.069 191.648C193.291 191.883 193.565 192 193.889 192ZM193.924 196.705C194.526 196.705 195.037 196.57 195.459 196.301C195.885 196.035 196.098 195.705 196.098 195.311C196.098 194.904 195.797 194.701 195.196 194.701C194.996 194.701 194.653 194.713 194.164 194.736C193.856 194.752 193.614 194.76 193.438 194.76C193.352 194.76 193.217 194.83 193.034 194.971C192.854 195.111 192.715 195.252 192.618 195.393C192.524 195.537 192.477 195.686 192.477 195.838C192.477 196.076 192.61 196.279 192.875 196.447C193.141 196.619 193.491 196.705 193.924 196.705ZM159.269 208.768C158.758 208.6 158.275 208.516 157.822 208.516C157.326 208.516 156.934 208.6 156.644 208.768C156.355 208.932 156.211 209.152 156.211 209.43C156.211 209.605 156.277 209.76 156.41 209.893C156.543 210.021 156.809 210.143 157.207 210.256L158.08 210.508C158.482 210.621 158.81 210.758 159.064 210.918C159.318 211.074 159.508 211.266 159.633 211.492C159.762 211.715 159.826 211.975 159.826 212.271C159.826 212.854 159.582 213.314 159.094 213.654C158.605 213.99 157.984 214.158 157.23 214.158C156.48 214.158 155.861 214.045 155.373 213.818L155.549 213.027C156.06 213.27 156.609 213.391 157.195 213.391C157.703 213.391 158.115 213.297 158.432 213.109C158.752 212.918 158.912 212.666 158.912 212.354C158.912 212.143 158.832 211.955 158.672 211.791C158.516 211.623 158.144 211.449 157.559 211.27C157.086 211.125 156.738 211.018 156.516 210.947C156.293 210.873 156.086 210.766 155.894 210.625C155.703 210.484 155.557 210.316 155.455 210.121C155.357 209.926 155.309 209.707 155.309 209.465C155.309 208.938 155.539 208.52 156 208.211C156.461 207.902 157.072 207.748 157.834 207.748C158.326 207.748 158.873 207.832 159.475 208L159.269 208.768ZM167.294 213.725C166.68 214.006 166.077 214.146 165.483 214.146C164.393 214.146 163.848 213.57 163.848 212.418V208.686H162.677V207.895H163.848V206.225H164.739V207.895H166.813V208.686H164.739V212.178C164.739 212.549 164.821 212.838 164.985 213.045C165.149 213.248 165.372 213.35 165.653 213.35C166.153 213.35 166.647 213.238 167.136 213.016L167.294 213.725ZM174.656 208.059L174.287 208.938C173.884 208.762 173.537 208.674 173.244 208.674C172.974 208.674 172.711 208.752 172.453 208.908C172.195 209.061 171.957 209.281 171.738 209.57C171.523 209.855 171.416 210.016 171.416 210.051V214H170.507V207.895H171.416V209.131C171.904 208.209 172.537 207.748 173.314 207.748C173.775 207.748 174.222 207.852 174.656 208.059ZM179.92 205.586C180.092 205.586 180.239 205.648 180.36 205.773C180.481 205.895 180.542 206.041 180.542 206.213C180.542 206.393 180.481 206.543 180.36 206.664C180.243 206.785 180.096 206.846 179.92 206.846C179.76 206.846 179.618 206.783 179.493 206.658C179.372 206.529 179.311 206.381 179.311 206.213C179.311 206.045 179.372 205.898 179.493 205.773C179.618 205.648 179.76 205.586 179.92 205.586ZM180.366 214H179.452V208.686H177.653V207.895H180.366V214ZM189.216 214H188.302V210.086C188.302 209.543 188.214 209.15 188.039 208.908C187.867 208.662 187.595 208.539 187.224 208.539C186.665 208.539 186.066 208.887 185.425 209.582V214H184.511V207.895H185.425V208.791C186.081 208.096 186.773 207.748 187.499 207.748C188.644 207.748 189.216 208.439 189.216 209.822V214ZM193.532 211.697C192.961 211.975 192.676 212.219 192.676 212.43C192.676 212.543 192.741 212.639 192.869 212.717C193.002 212.795 193.182 212.834 193.409 212.834L195.465 212.775C195.953 212.775 196.332 212.895 196.602 213.133C196.875 213.371 197.012 213.709 197.012 214.146C197.012 214.838 196.703 215.389 196.086 215.799C195.469 216.209 194.748 216.414 193.924 216.414C193.248 216.414 192.696 216.271 192.266 215.986C191.836 215.705 191.621 215.34 191.621 214.891C191.621 214.402 191.953 213.99 192.618 213.654C192.067 213.396 191.791 213.08 191.791 212.705C191.791 212.275 192.147 211.875 192.858 211.504C192.53 211.305 192.278 211.047 192.102 210.73C191.926 210.414 191.838 210.08 191.838 209.729C191.838 209.154 192.034 208.684 192.424 208.316C192.815 207.945 193.303 207.76 193.889 207.76C194.311 207.76 194.692 207.848 195.032 208.023L196.842 207.748V208.639H195.676C195.852 208.947 195.94 209.311 195.94 209.729C195.94 210.283 195.746 210.752 195.36 211.135C194.973 211.518 194.483 211.709 193.889 211.709C193.764 211.709 193.645 211.705 193.532 211.697ZM193.889 211C194.225 211 194.498 210.885 194.709 210.654C194.924 210.42 195.032 210.115 195.032 209.74C195.032 209.346 194.928 209.037 194.721 208.814C194.514 208.592 194.237 208.48 193.889 208.48C193.565 208.48 193.291 208.598 193.069 208.832C192.85 209.062 192.741 209.365 192.741 209.74C192.741 210.107 192.85 210.41 193.069 210.648C193.291 210.883 193.565 211 193.889 211ZM193.924 215.705C194.526 215.705 195.037 215.57 195.459 215.301C195.885 215.035 196.098 214.705 196.098 214.311C196.098 213.904 195.797 213.701 195.196 213.701C194.996 213.701 194.653 213.713 194.164 213.736C193.856 213.752 193.614 213.76 193.438 213.76C193.352 213.76 193.217 213.83 193.034 213.971C192.854 214.111 192.715 214.252 192.618 214.393C192.524 214.537 192.477 214.686 192.477 214.838C192.477 215.076 192.61 215.279 192.875 215.447C193.141 215.619 193.491 215.705 193.924 215.705Z" fill="#36CDCE"/>
<path d="M94.0234 232.725C93.4102 233.006 92.8066 233.146 92.2129 233.146C91.123 233.146 90.5781 232.57 90.5781 231.418V227.686H89.4062V226.895H90.5781V225.225H91.4688V226.895H93.543V227.686H91.4688V231.178C91.4688 231.549 91.5508 231.838 91.7148 232.045C91.8789 232.248 92.1016 232.35 92.3828 232.35C92.8828 232.35 93.377 232.238 93.8652 232.016L94.0234 232.725ZM101.292 233H100.378V229.086C100.378 228.543 100.29 228.15 100.114 227.908C99.9423 227.662 99.6708 227.539 99.2997 227.539C98.7411 227.539 98.1415 227.887 97.5009 228.582V233H96.5868V224.732H97.5009V227.791C98.1571 227.096 98.8485 226.748 99.5751 226.748C100.72 226.748 101.292 227.439 101.292 228.822V233ZM108.713 227.059L108.344 227.938C107.941 227.762 107.594 227.674 107.301 227.674C107.031 227.674 106.767 227.752 106.51 227.908C106.252 228.061 106.013 228.281 105.795 228.57C105.58 228.855 105.472 229.016 105.472 229.051V233H104.564V226.895H105.472V228.131C105.961 227.209 106.594 226.748 107.371 226.748C107.832 226.748 108.279 226.852 108.713 227.059ZM113.579 226.748C114.419 226.748 115.087 227.041 115.583 227.627C116.079 228.213 116.327 228.984 116.327 229.941C116.327 230.906 116.079 231.684 115.583 232.273C115.087 232.863 114.419 233.158 113.579 233.158C112.735 233.158 112.065 232.865 111.569 232.279C111.077 231.689 110.831 230.91 110.831 229.941C110.831 228.98 111.079 228.209 111.575 227.627C112.071 227.041 112.739 226.748 113.579 226.748ZM113.579 232.361C114.133 232.361 114.571 232.127 114.891 231.658C115.212 231.189 115.372 230.621 115.372 229.953C115.372 229.25 115.214 228.672 114.897 228.219C114.581 227.766 114.141 227.539 113.579 227.539C113.012 227.539 112.573 227.764 112.26 228.213C111.948 228.658 111.792 229.238 111.792 229.953C111.792 230.633 111.95 231.205 112.266 231.67C112.583 232.131 113.02 232.361 113.579 232.361ZM123.994 226.895L123.115 233H122.417L120.982 229.543L119.541 233H118.843L117.982 226.895H118.89C119.214 229.746 119.382 231.242 119.394 231.383L120.513 228.729H121.451L122.564 231.365L123.056 226.895H123.994Z" fill="#E51983"/>
<g filter="url(#filter1_b_1148_6317)">
<rect x="313" y="76" width="213" height="140" rx="20" fill="url(#paint3_linear_1148_6317)"/>
</g>
<g filter="url(#filter2_b_1148_6317)">
<rect x="146" y="192" width="350" height="220" rx="20" fill="url(#paint4_linear_1148_6317)"/>
<rect x="146.5" y="192.5" width="349" height="219" rx="19.5" stroke="url(#paint5_linear_1148_6317)"/>
</g>
<path d="M241.075 323.998C238.108 324.04 235.163 323.48 232.427 322.352C229.956 321.298 227.786 319.663 226.111 317.591C224.44 315.43 223.368 312.881 223 310.193L231.49 308.961C232.097 311.389 233.333 313.259 235.199 314.57C237.065 315.879 239.309 316.568 241.603 316.537C242.925 316.54 244.239 316.332 245.493 315.921C246.656 315.568 247.714 314.943 248.577 314.1C248.976 313.712 249.289 313.248 249.498 312.736C249.706 312.224 249.806 311.676 249.79 311.125C249.792 310.705 249.721 310.289 249.581 309.893C249.458 309.471 249.244 309.08 248.953 308.747C248.588 308.341 248.153 308.003 247.667 307.747C247.014 307.388 246.321 307.102 245.602 306.896L234.432 303.673C233.595 303.441 232.614 303.109 231.49 302.676C230.341 302.216 229.266 301.595 228.297 300.834C227.208 299.968 226.32 298.884 225.693 297.653C225.013 296.324 224.675 294.651 224.677 292.633C224.677 289.794 225.405 287.434 226.86 285.554C228.365 283.641 230.391 282.185 232.703 281.355C235.284 280.411 238.022 279.953 240.775 280.004C243.501 279.992 246.204 280.497 248.735 281.492C251.007 282.405 253.019 283.846 254.599 285.691C256.241 287.639 257.408 289.929 258.013 292.386L249.22 293.853C248.945 292.569 248.337 291.376 247.455 290.389C246.605 289.455 245.551 288.722 244.371 288.244C243.196 287.756 241.938 287.487 240.663 287.452C239.432 287.406 238.203 287.586 237.039 287.982C236.002 288.306 235.059 288.869 234.289 289.624C233.949 289.967 233.682 290.371 233.502 290.815C233.322 291.259 233.233 291.733 233.24 292.21C233.225 292.625 233.294 293.038 233.442 293.427C233.591 293.815 233.817 294.17 234.107 294.472C234.735 295.07 235.478 295.538 236.293 295.85C237.169 296.207 238.069 296.505 238.986 296.743L246.46 298.751C247.579 299.049 248.813 299.436 250.172 299.924C251.557 300.409 252.866 301.081 254.062 301.92C255.339 302.784 256.394 303.927 257.143 305.259C257.962 306.648 258.371 308.411 258.371 310.547C258.418 312.623 257.912 314.674 256.903 316.499C255.958 318.177 254.628 319.618 253.019 320.707C251.32 321.833 249.439 322.667 247.455 323.173C245.375 323.727 243.23 324.004 241.075 323.998V323.998Z" fill="white"/>
<path d="M265.799 323.115V280.826H296.245V288.283H273.937V297.33H292.046V304.79H273.937V315.655H296.245V323.115H265.799Z" fill="white"/>
<path d="M303.607 323.115V280.826H311.867L330.6 309.019V280.826H338.86V323.115H330.6L311.867 294.922V323.115H303.607Z" fill="white"/>
<path d="M398.019 323.115V305.906L383.295 280.826H392.813L402.149 296.741L411.486 280.826H421.001L406.279 305.906V323.115H398.019Z" fill="white"/>
<path d="M363.813 280.947C357.412 280.78 349.713 280.846 349.713 280.846L349.94 289.58C349.94 289.58 360.353 288.984 363.813 289.687C367.273 290.389 374.186 293.993 374.186 302.027C374.186 310.062 367.27 313.823 363.813 314.588C360.356 315.353 350.019 314.814 350.019 314.814V323.146C350.019 323.146 357.412 323.206 363.813 323.054C370.214 322.902 383.016 318.471 383.016 302.027C383.016 285.583 370.214 281.116 363.813 280.947Z" fill="white"/>
<path fill-rule="evenodd" clip-rule="evenodd" d="M364.233 301.969L349.721 280.826L346.131 289.846L354.509 301.969L346.131 314.375L350.021 323.13L364.233 301.969H364.236H364.233Z" fill="#00B4F0"/>
<rect x="338" y="122" width="48" height="48" rx="10" fill="url(#paint6_linear_1148_6317)"/>
<rect x="338" y="122" width="48" height="48" rx="10" fill="white"/>
<path fill-rule="evenodd" clip-rule="evenodd" d="M356.333 146.09L348.321 160.18L345 154.34L349.696 146.09L345 137.84L348.321 132L356.333 146.09ZM367.667 146.09L359.655 160.18L356.334 154.34L361.03 146.09L356.334 137.84L359.655 132L367.667 146.09ZM370.987 160.18L378.999 146.09L370.987 132L367.666 137.84L372.362 146.09L367.666 154.34L370.987 160.18Z" fill="url(#paint7_linear_1148_6317)"/>
<rect x="396" y="122" width="48" height="48" rx="10" fill="url(#paint8_linear_1148_6317)"/>
<rect x="396" y="122" width="48" height="48" rx="10" fill="white"/>
<rect x="454" y="122" width="48" height="48" rx="10" fill="url(#paint9_linear_1148_6317)"/>
<rect x="454" y="122" width="48" height="48" rx="10" fill="white"/>
<path fill-rule="evenodd" clip-rule="evenodd" d="M437.777 145.948L429.314 133.386L427.221 138.746L432.106 145.948L427.221 153.318L429.49 158.52L437.777 145.948H437.777Z" fill="#00B4F0"/>
<path d="M413.538 159.137C411.677 159.137 409.997 158.811 408.496 158.16C407.007 157.497 405.78 156.555 404.815 155.333C403.861 154.1 403.256 152.635 403 150.936L407.955 150.204C408.304 151.646 409.025 152.757 410.119 153.536C411.212 154.315 412.457 154.705 413.852 154.705C414.623 154.706 415.389 154.583 416.121 154.339C416.853 154.094 417.452 153.734 417.918 153.257C418.395 152.78 418.633 152.193 418.633 151.495C418.633 151.239 418.592 150.995 418.511 150.762C418.441 150.518 418.319 150.291 418.144 150.082C417.97 149.872 417.72 149.674 417.394 149.488C417.08 149.302 416.679 149.134 416.19 148.982L409.665 147.063C409.176 146.924 408.606 146.726 407.955 146.47C407.315 146.214 406.693 145.848 406.088 145.371C405.483 144.894 404.977 144.266 404.57 143.486C404.175 142.695 403.977 141.701 403.977 140.503C403.977 138.816 404.402 137.415 405.251 136.298C406.1 135.181 407.234 134.35 408.653 133.803C410.072 133.256 411.642 132.989 413.364 133C415.097 133.024 416.644 133.32 418.005 133.89C419.366 134.46 420.506 135.292 421.425 136.385C422.344 137.467 423.006 138.793 423.414 140.363L418.284 141.236C418.098 140.421 417.755 139.735 417.255 139.177C416.755 138.618 416.155 138.194 415.458 137.903C414.772 137.612 414.038 137.453 413.294 137.432C412.55 137.409 411.846 137.513 411.183 137.746C410.532 137.967 409.997 138.293 409.578 138.723C409.171 139.154 408.967 139.665 408.967 140.259C408.967 140.805 409.136 141.253 409.473 141.602C409.81 141.939 410.235 142.213 410.747 142.422C411.258 142.631 411.783 142.806 412.317 142.945L416.679 144.132C417.33 144.306 418.052 144.539 418.842 144.83C419.633 145.109 420.39 145.504 421.111 146.016C421.843 146.516 422.443 147.179 422.908 148.005C423.385 148.831 423.623 149.878 423.623 151.146C423.623 152.495 423.338 153.676 422.768 154.688C422.21 155.688 421.454 156.52 420.5 157.183C419.546 157.834 418.464 158.323 417.255 158.648C416.057 158.974 414.818 159.137 413.538 159.137V159.137Z" fill="black"/>
<path d="M477.027 133.09C473.035 132.988 468.235 133.001 468.235 133.001L468.377 138.389C468.377 138.389 474.869 138.024 477.027 138.455C479.184 138.886 483.494 141.098 483.494 146.03C483.494 150.962 479.182 153.27 477.027 153.74C474.871 154.209 468.426 153.879 468.426 153.879L468.42 158.993C468.42 158.993 473.035 159.03 477.027 158.937C481.018 158.843 489 156.124 489 146.03C489 135.936 481.018 133.194 477.027 133.09Z" fill="black"/>
<path fill-rule="evenodd" clip-rule="evenodd" d="M477.287 145.998L468.235 133.001L466 138.556L471.224 145.998L466 153.613L468.42 158.993L477.287 145.998Z" fill="#00B4F0"/>
<defs>
<filter id="filter0_b_1148_6317" x="60" y="121" width="251" height="191" filterUnits="userSpaceOnUse" color-interpolation-filters="sRGB">
<feFlood flood-opacity="0" result="BackgroundImageFix"/>
<feGaussianBlur in="BackgroundImageFix" stdDeviation="5"/>
<feComposite in2="SourceAlpha" operator="in" result="effect1_backgroundBlur_1148_6317"/>
<feBlend mode="normal" in="SourceGraphic" in2="effect1_backgroundBlur_1148_6317" result="shape"/>
</filter>
<filter id="filter1_b_1148_6317" x="303" y="66" width="233" height="160" filterUnits="userSpaceOnUse" color-interpolation-filters="sRGB">
<feFlood flood-opacity="0" result="BackgroundImageFix"/>
<feGaussianBlur in="BackgroundImageFix" stdDeviation="5"/>
<feComposite in2="SourceAlpha" operator="in" result="effect1_backgroundBlur_1148_6317"/>
<feBlend mode="normal" in="SourceGraphic" in2="effect1_backgroundBlur_1148_6317" result="shape"/>
</filter>
<filter id="filter2_b_1148_6317" x="144" y="190" width="354" height="224" filterUnits="userSpaceOnUse" color-interpolation-filters="sRGB">
<feFlood flood-opacity="0" result="BackgroundImageFix"/>
<feGaussianBlur in="BackgroundImageFix" stdDeviation="1"/>
<feComposite in2="SourceAlpha" operator="in" result="effect1_backgroundBlur_1148_6317"/>
<feBlend mode="normal" in="SourceGraphic" in2="effect1_backgroundBlur_1148_6317" result="shape"/>
</filter>
<linearGradient id="paint0_linear_1148_6317" x1="-786.272" y1="-352.778" x2="205.387" y2="468.338" gradientUnits="userSpaceOnUse">
<stop offset="0.161458" stop-color="white"/>
<stop offset="0.578125" stop-color="#6D6D6D"/>
<stop offset="0.932292" stop-color="#11101D"/>
</linearGradient>
<linearGradient id="paint1_linear_1148_6317" x1="67" y1="131" x2="301" y2="302" gradientUnits="userSpaceOnUse">
<stop stop-color="#767676"/>
<stop offset="1" stop-color="#252525"/>
</linearGradient>
<linearGradient id="paint2_linear_1148_6317" x1="285" y1="276" x2="186.16" y2="105.197" gradientUnits="userSpaceOnUse">
<stop stop-color="#9C59FD"/>
<stop offset="1" stop-color="#3F53D8"/>
</linearGradient>
<linearGradient id="paint3_linear_1148_6317" x1="-78.4485" y1="-420.5" x2="329.708" y2="327.911" gradientUnits="userSpaceOnUse">
<stop stop-color="white"/>
<stop offset="0.906032" stop-color="#14101D"/>
</linearGradient>
<linearGradient id="paint4_linear_1148_6317" x1="35.9685" y1="38.5879" x2="79.715" y2="445.022" gradientUnits="userSpaceOnUse">
<stop stop-color="white" stop-opacity="0.7"/>
<stop offset="0.667914" stop-color="#F9F9F9" stop-opacity="0.175336"/>
<stop offset="1" stop-color="#F9F9F9" stop-opacity="0.1"/>
<stop offset="1" stop-color="white" stop-opacity="0.2"/>
</linearGradient>
<linearGradient id="paint5_linear_1148_6317" x1="139.118" y1="192" x2="210.723" y2="481.178" gradientUnits="userSpaceOnUse">
<stop stop-color="white"/>
<stop offset="1" stop-color="white" stop-opacity="0.1"/>
</linearGradient>
<linearGradient id="paint6_linear_1148_6317" x1="338" y1="146" x2="386" y2="146" gradientUnits="userSpaceOnUse">
<stop stop-color="#00F5A0"/>
<stop offset="1" stop-color="#00D9F5"/>
</linearGradient>
<linearGradient id="paint7_linear_1148_6317" x1="334.433" y1="146.55" x2="389.796" y2="146.779" gradientUnits="userSpaceOnUse">
<stop stop-color="#00B4F0"/>
<stop offset="1" stop-color="#33CCCC"/>
</linearGradient>
<linearGradient id="paint8_linear_1148_6317" x1="396" y1="146" x2="444" y2="146" gradientUnits="userSpaceOnUse">
<stop stop-color="#00F5A0"/>
<stop offset="1" stop-color="#00D9F5"/>
</linearGradient>
<linearGradient id="paint9_linear_1148_6317" x1="454" y1="146" x2="502" y2="146" gradientUnits="userSpaceOnUse">
<stop stop-color="#00F5A0"/>
<stop offset="1" stop-color="#00D9F5"/>
</linearGradient>
</defs>
</svg>
