<svg width="100" height="100" viewBox="0 0 100 100" fill="none" xmlns="http://www.w3.org/2000/svg">
<path d="M39.8572 9.11738V13.4178H28.8607V0.0976562H39.8572V4.81055H33.5736V9.11738H39.8572ZM51.1613 4.81055H55.5543V0.0976562H44.5566C44.5566 0.0976562 44.5566 2.46328 44.5566 4.81055C46.0279 6.28184 46.7951 6.98613 48.9231 9.11406C47.6791 9.11406 44.5566 9.11816 44.5566 9.11816V13.4178H55.5543V9.11738L51.1613 4.81055ZM66.7482 4.81055H71.1408V0.0976562H60.1436C60.1436 0.0976562 60.1436 2.46328 60.1436 4.81055C61.6145 6.28184 62.382 6.98613 64.5098 9.11406C63.2666 9.11406 60.1436 9.11816 60.1436 9.11816V13.4178H71.141V9.11738L66.7482 4.81055ZM85.625 19.7482L78.9447 92.1088L50.0008 99.9017L21.0563 92.1088L14.377 19.7482H85.625ZM72.1645 34.4615H49.9746H27.3926L28.4725 43.1996H49.9746H51.1824L49.9746 43.7023L29.2584 52.3307L29.9455 60.8717L49.9746 60.9367L60.7096 60.9709L60.0219 72.3598L49.9746 75.1887V75.1797L49.8922 75.2023L40.1883 72.7527L39.5994 65.6834H39.5674H30.5664H30.5348L31.7129 79.331L49.9746 84.7312V84.7215L50.0074 84.7312L68.1715 79.4293L70.5283 52.3309H49.9746H49.9238L49.9746 52.309L71.2805 43.1998L72.1645 34.4615Z" fill="#424147"/>
</svg>
