<svg width="100" height="100" viewBox="0 0 100 100" fill="none" xmlns="http://www.w3.org/2000/svg">
<path d="M42.8987 21.3822V24.3924H35.2012V15.0684H42.8987V18.3674H38.5002V21.3822H42.8987ZM50.8116 18.3674H53.8866V15.0684H46.1883C46.1883 15.0684 46.1883 16.7243 46.1883 18.3674C47.2182 19.3973 47.7552 19.8903 49.2448 21.3798C48.374 21.3798 46.1883 21.3827 46.1883 21.3827V24.3924H53.8866V21.3822L50.8116 18.3674ZM61.7224 18.3674H64.7972V15.0684H57.0991C57.0991 15.0684 57.0991 16.7243 57.0991 18.3674C58.1288 19.3973 58.6661 19.8903 60.1555 21.3798C59.2853 21.3798 57.0991 21.3827 57.0991 21.3827V24.3924H64.7973V21.3822L61.7224 18.3674ZM74.9361 28.8238L70.2599 79.4761L49.9992 84.9312L29.738 79.4761L25.0625 28.8238H74.9361ZM65.5138 39.1231H49.9809H34.1734L34.9294 45.2397H49.9809H50.8263L49.9809 45.5916L35.4795 51.6315L35.9605 57.6102L49.9809 57.6557L57.4953 57.6796L57.0139 65.6518L49.9809 67.6321V67.6258L49.9232 67.6416L43.1304 65.9269L42.7182 60.9784H42.6958H36.3951H36.373L37.1977 70.5317L49.9809 74.3119V74.305L50.0038 74.3119L62.7187 70.6005L64.3685 51.6316H49.9809H49.9453L49.9809 51.6163L64.895 45.2399L65.5138 39.1231Z" fill="#424147"/>
</svg>
