<svg width="149" height="100" viewBox="0 0 149 100" fill="none" xmlns="http://www.w3.org/2000/svg">
<path d="M15.473 39.9933C15.2806 39.9933 15.0881 39.8009 15.2806 39.6084L16.6278 37.6837C16.8203 37.4912 17.0128 37.2988 17.3977 37.2988H41.6488C41.8412 37.2988 42.0337 37.4912 41.8412 37.6837L40.6864 39.4159C40.4939 39.6084 40.3015 39.8009 39.9165 39.8009L15.473 39.9933ZM5.27219 46.1523C5.07972 46.1523 4.88725 45.9599 5.07972 45.7674L6.427 43.8427C6.61947 43.6502 6.81194 43.4578 7.19688 43.4578H38.1843C38.3768 43.4578 38.5693 43.6502 38.5693 43.8427L37.9919 45.7674C37.9919 45.9599 37.6069 46.1523 37.4144 46.1523H5.27219ZM21.632 52.5038C21.4396 52.5038 21.2471 52.3113 21.4396 52.1188L22.4019 50.3866C22.5944 50.1942 22.7868 50.0017 23.1718 50.0017H36.6446C36.837 50.0017 37.0295 50.1942 37.0295 50.3866L36.837 51.9264C36.837 52.1188 36.6446 52.3113 36.4521 52.3113L21.632 52.5038ZM92.0755 38.646L80.7199 41.5331C79.7575 41.7255 79.5651 41.918 78.7952 40.7632C77.8329 39.6084 77.063 38.8385 75.5232 38.2611C71.2889 36.144 67.0546 36.7214 63.2052 39.2234C58.586 42.1105 56.2764 46.5373 56.2764 52.1188C56.2764 57.508 60.1257 61.9347 65.5149 62.7046C70.1341 63.282 73.9835 61.7423 77.063 58.2778C77.6404 57.508 78.2178 56.7381 78.9877 55.7758H65.8998C64.5525 55.7758 64.1676 54.8134 64.5525 53.6586C65.5149 51.5414 67.0546 48.077 68.0169 46.3448C68.2094 45.9599 68.7868 45.19 69.7492 45.19H94.3851C94.1927 47.1147 94.1927 48.8469 94.0002 50.7716C93.2303 55.5833 91.4981 60.2025 88.4186 64.0519C83.6069 70.4034 77.2554 74.4452 69.1718 75.6C62.4354 76.5624 56.2764 75.2151 50.8872 71.1732C45.8831 67.3239 42.996 62.3197 42.2262 56.1607C41.2638 48.8469 43.5734 42.1105 48.0002 36.3364C52.8119 29.985 59.1634 25.9431 67.0546 24.5958C73.4061 23.441 79.5651 24.2109 84.9542 27.8678C88.6111 30.1774 91.1132 33.4494 92.8454 37.4912C93.0379 38.2611 92.8454 38.4536 92.0755 38.646Z" fill="#424147"/>
<path d="M114.403 76.177C108.244 75.9845 102.662 74.2523 97.8504 70.2104C93.8086 66.746 91.3065 62.3192 90.5366 57.1226C89.3818 49.4238 91.499 42.6874 96.1182 36.7209C101.122 30.177 107.089 26.905 115.173 25.3653C122.101 24.2104 128.645 24.7878 134.419 28.8297C139.809 32.4866 143.081 37.4908 144.043 44.0347C145.198 53.2732 142.503 60.587 136.344 66.9385C131.917 71.5577 126.336 74.2523 120.177 75.5996C118.06 75.9845 116.135 75.9845 114.403 76.177ZM130.57 48.8464C130.57 47.8841 130.57 47.3067 130.378 46.5368C129.223 39.8004 123.064 35.951 116.52 37.4908C110.168 38.8381 106.127 42.8799 104.587 49.2314C103.432 54.428 105.934 59.8171 110.746 62.1268C114.403 63.6665 118.252 63.474 121.717 61.7418C127.298 59.0473 130.185 54.6205 130.57 48.8464Z" fill="#424147"/>
</svg>
