<svg width="200" height="100" viewBox="0 0 200 100" fill="none" xmlns="http://www.w3.org/2000/svg">
<path d="M14.9615 35.7053C14.6865 35.7053 14.4116 35.4304 14.6865 35.1554L16.6112 32.4058C16.8862 32.1309 17.1611 31.8559 17.711 31.8559H52.3554C52.6303 31.8559 52.9053 32.1309 52.6303 32.4058L50.9806 34.8804C50.7056 35.1554 50.4307 35.4304 49.8808 35.4304L14.9615 35.7053ZM0.388846 44.5039C0.113891 44.5039 -0.161065 44.2289 0.11389 43.954L2.03858 41.2044C2.31353 40.9295 2.58849 40.6545 3.1384 40.6545H47.4062C47.6811 40.6545 47.9561 40.9295 47.9561 41.2044L47.1312 43.954C47.1312 44.2289 46.5813 44.5039 46.3064 44.5039H0.388846ZM23.76 53.5774C23.4851 53.5774 23.2101 53.3024 23.4851 53.0275L24.8599 50.5529C25.1348 50.2779 25.4098 50.003 25.9597 50.003H45.2065C45.4815 50.003 45.7564 50.2779 45.7564 50.5529L45.4815 52.7525C45.4815 53.0275 45.2065 53.3024 44.9316 53.3024L23.76 53.5774ZM124.394 33.7806L108.171 37.905C106.796 38.1799 106.522 38.4549 105.422 36.8051C104.047 35.1554 102.947 34.0556 100.747 33.2307C94.6985 30.2062 88.6494 31.0311 83.1503 34.6055C76.5514 38.7298 73.252 45.0538 73.252 53.0275C73.252 60.7262 78.7511 67.0502 86.4498 68.15C93.0487 68.9749 98.5478 66.7752 102.947 61.826C103.772 60.7262 104.597 59.6264 105.697 58.2516H86.9997C85.075 58.2516 84.5251 56.8769 85.075 55.2271C86.4498 52.2026 88.6494 47.2534 90.0242 44.7788C90.2992 44.2289 91.124 43.1291 92.4988 43.1291H127.693C127.418 45.8786 127.418 48.3532 127.143 51.1028C126.043 57.9767 123.569 64.5756 119.169 70.0747C112.296 79.1482 103.222 84.9223 91.674 86.572C82.0505 87.9468 73.252 86.0221 65.5532 80.248C58.4044 74.7489 54.2801 67.6001 53.1802 58.8015C51.8055 48.3532 55.1049 38.7298 61.4289 30.4812C68.3028 21.4076 77.3763 15.6336 88.6494 13.7089C97.723 12.0592 106.522 13.159 114.22 18.3831C119.444 21.6826 123.019 26.3568 125.493 32.1309C125.768 33.2307 125.493 33.5057 124.394 33.7806Z" fill="#424147"/>
<path d="M156.289 87.3973C147.491 87.1224 139.517 84.6478 132.643 78.8737C126.869 73.9245 123.295 67.6006 122.195 60.1768C120.545 49.1786 123.57 39.5551 130.169 31.0315C137.317 21.6831 145.841 17.0088 157.389 14.8092C167.288 13.1594 176.636 13.9843 184.885 19.7584C192.583 24.9825 197.258 32.1313 198.632 41.4798C200.282 54.6777 196.433 65.126 187.634 74.1995C181.31 80.7984 173.337 84.6478 164.538 86.5725C161.513 87.1224 158.764 87.1224 156.289 87.3973ZM179.386 48.3537C179.386 46.9789 179.386 46.1541 179.111 45.0542C177.461 35.4308 168.662 29.9317 159.314 32.1313C150.24 34.056 144.466 39.8301 142.267 48.9036C140.617 56.3274 144.191 64.0261 151.065 67.3256C156.289 69.5252 161.788 69.2503 166.738 66.7757C174.711 62.9263 178.836 56.6024 179.386 48.3537Z" fill="#424147"/>
</svg>
