<svg width="200" height="100" viewBox="0 0 200 100" fill="none" xmlns="http://www.w3.org/2000/svg">
<path fill-rule="evenodd" clip-rule="evenodd" d="M78.1181 46.1134H82.9764C84.4826 46.1134 85.6875 45.9138 86.5782 45.5188C87.469 45.1237 88.1554 44.5525 88.6309 43.8113C89.1064 43.0701 89.427 42.1548 89.5948 41.0717C89.7626 39.9886 89.8465 38.7271 89.8465 37.2978C89.8465 35.8685 89.7605 34.6092 89.5948 33.5239C89.4291 32.4387 89.0784 31.5106 88.547 30.7418C88.0155 29.973 87.256 29.4039 86.3265 29.0344C85.397 28.6648 84.1211 28.4779 82.5569 28.4779H78.1181V46.1134ZM69.5762 20.5224H83.3142C93.3666 20.5224 98.3927 26.2926 98.3927 37.8351C98.3927 41.2586 97.8484 44.1999 96.7575 46.6571C95.6666 49.1142 93.756 51.0893 91.0192 52.5823L100.232 79.5027H91.1848L83.0948 53.8841H78.1181V79.5027H69.5762V20.5224ZM105.259 20.5224H118.074C120.44 20.5224 122.484 20.8261 124.27 21.4356C126.056 22.0452 127.676 23.1198 129.129 24.6637C130.574 26.1976 131.611 28.0623 132.145 30.0898C132.705 32.1605 132.984 34.9638 132.984 38.4998C132.984 41.095 132.773 42.9533 132.468 44.8031C132.162 46.6528 131.17 49.8724 127.274 52.0556C124.838 53.4212 121.342 53.9118 118.16 53.9118H113.805V79.5027H105.263L105.259 20.5224ZM113.8 46.1134H117.906C119.638 46.1134 120.976 45.8947 121.929 45.455C122.882 45.0154 123.577 44.4229 124.023 43.6711C124.468 42.9193 124.733 42.0061 124.819 40.9379C124.905 39.8696 124.944 38.6782 124.944 37.3658C124.944 36.151 124.901 34.9978 124.819 33.9041C124.737 32.8104 124.483 31.8653 124.066 31.0583C123.648 30.2513 122.99 29.6248 122.097 29.1639C121.204 28.7031 119.92 28.4716 118.246 28.4716H113.807L113.8 46.1134ZM166.487 66.3313C166.487 68.1535 166.138 69.8928 165.439 71.5493C164.74 73.2059 163.778 74.6564 162.55 75.8987C161.311 77.1479 159.848 78.159 158.236 78.8805C156.566 79.631 154.751 80.0129 152.917 79.9997C151.297 79.9997 149.651 79.7788 147.975 79.3371C146.319 78.9051 144.777 78.128 143.452 77.0583C142.111 75.9816 141.01 74.5587 140.143 72.7896C139.276 71.0205 138.845 68.7864 138.845 66.0786V33.5855C138.845 31.6742 139.181 29.8584 139.85 28.2019C140.519 26.5453 141.47 25.1097 142.699 23.8949C143.927 22.6801 145.393 21.7287 147.097 21.0364C148.801 20.344 150.686 20 152.751 20C154.705 20 156.521 20.3462 158.195 21.0364C159.869 21.7266 161.321 22.6929 162.55 23.9353C163.778 25.1777 164.744 26.6685 165.439 28.4079C166.134 30.1472 166.487 32.0182 166.487 34.0825V37.3955H157.945V34.5794C157.945 32.9229 157.472 31.4873 156.521 30.2725C156.075 29.684 155.492 29.2108 154.821 28.8935C154.15 28.5761 153.411 28.4241 152.667 28.4503C150.546 28.4503 149.134 29.1002 148.437 30.3978C147.74 31.6954 147.389 33.3392 147.389 35.3248V65.4776C147.389 67.1893 147.766 68.625 148.521 69.7845C149.276 70.9441 150.63 71.526 152.583 71.526C153.143 71.526 153.745 71.4283 154.384 71.235C155.023 71.0418 155.611 70.7253 156.144 70.2794C156.678 69.8334 157.108 69.2302 157.442 68.4572C157.775 67.6842 157.945 66.7157 157.945 65.5583V62.6594H166.487V66.3313ZM183.227 49.9361C183.227 47.7827 181.462 46.037 179.289 46.037H157.952V53.8311H175.35V62.5277H172.669L179.334 71.8233L186 62.5277H183.229L183.227 49.9361ZM33.3882 53.9075V65.5817C33.3882 68.0112 33.8078 70.1264 34.6447 71.9189C35.4817 73.7113 36.5855 75.2043 37.9539 76.3915C39.3223 77.5786 40.8586 78.477 42.5584 79.0843C44.2083 79.6824 45.9516 79.9907 47.7093 79.9954C49.467 79.9907 51.2103 79.6824 52.8603 79.0843C54.5644 78.477 56.0985 77.5765 57.4647 76.3915C58.831 75.2064 59.9348 73.7155 60.7739 71.9189C61.6131 70.1222 62.0305 68.0112 62.0305 65.5817V46.1283L46.7217 46.107L46.7002 53.9075H53.4843V65.5838C53.4843 67.6268 52.9119 69.1304 51.7673 70.0988C50.6404 71.0596 49.1939 71.5761 47.705 71.5493C46.2162 71.5761 44.7697 71.0596 43.6428 70.0988C42.4981 69.1325 41.9258 67.6268 41.9258 65.5838V34.4393C41.9258 32.3962 42.4981 30.8926 43.6428 29.9242C44.7697 28.9634 46.2162 28.4469 47.705 28.4737C49.1939 28.4469 50.6404 28.9634 51.7673 29.9242C52.9119 30.8905 53.4843 32.3962 53.4843 34.4393V37.421H62.0262V34.4393C62.0262 32.0649 61.6066 29.9667 60.7696 28.1445C59.9326 26.3223 58.8289 24.8166 57.4604 23.6295C56.092 22.4423 54.5558 21.544 52.856 20.9366C51.206 20.3385 49.4627 20.0302 47.705 20.0255C45.9473 20.0302 44.204 20.3385 42.5541 20.9366C40.85 21.544 39.3159 22.4444 37.9496 23.6295C36.5833 24.8145 35.4796 26.3223 34.6404 28.1445C33.8013 29.9667 33.3839 32.0649 33.3839 34.4393V46.1134H24.6505V37.4188H27.3314L20.6657 28.1233L14 37.4188H16.7713V50.0126C16.7713 52.166 18.5356 53.9118 20.7087 53.9118H33.3882V53.9075Z" fill="#424147"/>
</svg>
