<svg width="102" height="100" viewBox="0 0 102 100" fill="none" xmlns="http://www.w3.org/2000/svg">
<path d="M22.0081 0.0976562H26.5279V4.54219H30.6624V0.0976562H35.1826V13.5564H30.6628V9.04941H26.5283V13.5564H22.0085V0.0976562H22.0081ZM41.126 4.56094H37.1473V0.0976562H49.6269V4.56094H45.6462V13.5564H41.1264V4.56094H41.126ZM51.6073 0.0976562H56.321L59.2196 4.82676L62.1159 0.0976562H66.8301V13.5564H62.3288V6.88574L59.2194 11.6709H59.1419L56.0303 6.88574V13.5564H51.6073V0.0976562ZM69.08 0.0976562H73.6009V9.10801H79.9573V13.5564H69.08V0.0976562ZM15.3984 19.7119L21.8637 91.8863L50.8763 99.902L79.9694 91.8748L86.4416 19.7117L15.3984 19.7119ZM72.9555 36.8396L72.5506 41.3273L72.3729 43.3172H72.3436H50.9201H50.8891H38.3385L39.1513 52.3811H50.8891H50.9201H69.1663H71.5632L71.3461 54.7584L69.2562 78.0631L69.1224 79.5576L50.9201 84.5789V84.5805L50.8793 84.592L32.6607 79.558L31.4144 65.6594H35.5295H40.3427L40.9759 72.7191L50.8808 75.3816L50.8891 75.3791V75.3783L60.8091 72.7143L61.8407 61.2336H50.9201H50.8891H31.0172L28.8313 36.8396L28.6184 34.4652H50.8891H50.9201H73.1684L72.9555 36.8396Z" fill="#424147"/>
</svg>
