<svg width="100" height="100" viewBox="0 0 100 100" fill="none" xmlns="http://www.w3.org/2000/svg">
<path d="M29.9276 15.0684H33.0914V18.1795H35.9856V15.0684H39.1497V24.4895H35.9859V21.3346H33.0917V24.4895H29.9278V15.0684H29.9276ZM43.3101 18.1927H40.525V15.0684H49.2607V18.1927H46.4742V24.4895H43.3104V18.1927H43.3101ZM50.647 15.0684H53.9465L55.9756 18.3787L58.003 15.0684H61.3029V24.4895H58.152V19.82L55.9755 23.1696H55.9212L53.7431 19.82V24.4895H50.647V15.0684ZM62.8779 15.0684H66.0425V21.3756H70.492V24.4895H62.8779V15.0684ZM25.3008 28.7983L29.8265 79.3204L50.1353 84.9314L70.5005 79.3124L75.031 28.7982L25.3008 28.7983ZM65.5907 40.7878L65.3073 43.9291L65.1829 45.322H65.1624H50.1659H50.1442H41.3588L41.9278 51.6667H50.1442H50.1659H62.9383H64.6161L64.4642 53.3309L63.0012 69.6442L62.9075 70.6903L50.1659 74.2052V74.2063L50.1374 74.2144L37.3844 70.6906L36.512 60.9616H39.3925H42.7617L43.205 65.9034L50.1385 67.7671L50.1442 67.7654V67.7648L57.0883 65.9L57.8104 57.8635H50.1659H50.1442H36.2339L34.7038 40.7878L34.5548 39.1257H50.1442H50.1659H65.7398L65.5907 40.7878Z" fill="#424147"/>
</svg>
