<svg width="149" height="100" viewBox="0 0 149 100" fill="none" xmlns="http://www.w3.org/2000/svg">
<g clip-path="url(#clip0_1147_6132)">
<path d="M20.0384 68.0304C20.0384 68.0304 17.5178 69.5467 21.793 69.9812C26.9283 70.63 29.6814 70.5228 35.3788 69.4395C35.3788 69.4395 36.9123 70.4128 38.995 71.1745C26.1752 76.5911 9.96031 70.8501 20.0398 68.0332L20.0384 68.0304ZM18.3951 60.9888C18.3951 60.9888 15.6563 63.0482 19.9286 63.4813C25.5161 64.0229 29.914 64.1301 37.4601 62.6152C37.4601 62.6152 38.4443 63.6985 40.0891 64.2402C24.6403 68.7907 7.32845 64.6718 18.3951 60.9888ZM48.6366 73.3397C48.6366 73.3397 50.4996 74.8561 46.5539 76.048C39.2132 78.2147 15.7661 78.8649 9.19143 76.048C6.89051 75.0747 11.2741 73.6501 12.6977 73.4484C14.1242 73.1239 14.8888 73.1239 14.8888 73.1239C12.3696 71.3889 -1.87523 76.6997 7.65654 78.202C33.8425 82.4266 55.4266 76.3598 48.6337 73.327L48.6366 73.3397ZM21.2424 53.6214C21.2424 53.6214 9.29984 56.4383 16.9686 57.413C20.2552 57.8461 26.7201 57.7375 32.7455 57.3044C37.6755 56.8714 42.6068 56.0039 42.6068 56.0039C42.6068 56.0039 40.8522 56.7628 39.6483 57.5202C27.4861 60.6616 4.14881 59.2552 10.8333 56.0039C16.5307 53.2956 21.2424 53.6059 21.2424 53.6059V53.6214ZM42.6082 65.4307C54.8789 59.1466 49.1815 53.0798 45.2373 53.8387C44.253 54.0559 43.8108 54.2717 43.8108 54.2717C43.8108 54.2717 44.1389 53.6228 44.9063 53.4056C52.6849 50.6973 58.8217 61.5305 42.3857 65.7565C42.3857 65.7565 42.4956 65.6479 42.6054 65.4321L42.6082 65.4307ZM22.4492 82.5479C34.2819 83.3068 52.3625 82.1149 52.799 76.5897C52.799 76.5897 51.9232 78.7563 43.0476 80.3813C32.9681 82.2235 20.4778 82.0063 13.1342 80.8143C13.1342 80.8143 14.6677 82.1135 22.4492 82.5479Z" fill="#424147"/>
<path d="M35.4799 17.2441C35.4799 17.2441 42.4135 24.0794 28.8811 34.3831C18.0336 42.7351 26.4058 47.5085 28.8811 52.9315C22.5065 47.3997 17.9215 42.519 21.052 37.9617C25.6385 31.2366 38.2755 27.9828 35.4799 17.2441ZM31.9009 48.3756C35.1435 51.9556 31.0054 55.2108 31.0054 55.2108C31.0054 55.2108 39.2816 51.0871 35.4784 45.9889C32.013 41.1082 29.3281 38.7215 43.8652 30.5856C43.8652 30.5856 20.9384 36.1173 31.8995 48.3742L31.9009 48.3756Z" fill="#424147"/>
<path d="M101.665 61.7176V44.9533C101.665 40.675 99.2886 37.7693 93.3486 37.7693C89.9541 37.7693 87.0667 38.6249 84.5226 39.65L85.3716 42.7295C87.2377 42.0447 89.6165 41.3613 92.1606 41.3613C95.3856 41.3613 96.9126 42.7295 96.9126 45.4673V47.6926H95.2289C87.081 47.6926 83.3489 50.7721 83.3489 55.7323C83.3489 59.8383 85.8944 62.233 90.4769 62.233C93.3628 62.233 95.5693 60.8648 97.6049 59.1535L97.9439 61.719H101.676L101.665 61.7176ZM96.9098 56.2448C95.2147 57.7838 93.3458 58.6395 91.6478 58.6395C89.4399 58.6395 88.0838 57.2713 88.0838 54.8781C88.0838 52.4848 89.4413 50.7721 94.8728 50.7721H96.9098V56.2462V56.2448ZM117.616 61.719H111.676L104.549 38.2847H109.642L114.055 52.6557L115.073 56.9339C117.281 50.7749 118.976 44.4465 119.656 38.289H124.747C123.389 45.987 121.015 54.3684 117.619 61.7233L117.616 61.719ZM145.111 61.719V44.9533C145.111 40.675 142.735 37.7693 136.792 37.7693C133.397 37.7693 130.513 38.6249 127.966 39.65L128.645 42.7295C130.682 42.0447 133.058 41.3613 135.604 41.3613C138.829 41.3613 140.356 42.7295 140.356 45.4673V47.6926H138.661C130.513 47.6926 126.781 50.7721 126.781 55.7323C126.781 59.8383 129.157 62.233 133.739 62.233C136.795 62.233 139.001 60.8648 141.037 59.1535L141.376 61.719H145.108H145.111ZM140.359 56.2448C138.664 57.7838 136.795 58.6395 135.097 58.6395C132.889 58.6395 131.533 57.2713 131.533 54.8781C131.533 52.4848 132.89 50.7721 138.322 50.7721H140.359V56.2462V56.2448ZM78.0698 65.6527C76.7123 67.7057 74.6753 69.2447 72.1298 70.1004L69.9219 67.364C71.6198 66.3375 73.3164 64.7985 73.9958 63.4303C74.6753 62.233 74.8448 60.5216 74.8448 56.5879V29.9004H79.9373V56.2448C79.9373 61.5481 79.4259 63.5997 78.0698 65.6527Z" fill="#424147"/>
</g>
<defs>
<clipPath id="clip0_1147_6132">
<rect width="140" height="70" fill="white" transform="translate(5 15)"/>
</clipPath>
</defs>
</svg>
