<svg width="201" height="100" viewBox="0 0 201 100" fill="none" xmlns="http://www.w3.org/2000/svg">
<g clip-path="url(#clip0_1134_6104)">
<path d="M22.3261 75.7593C22.3261 75.7593 18.7252 77.9256 24.8326 78.5462C32.1688 79.4732 36.1018 79.32 44.241 77.7724C44.241 77.7724 46.4316 79.1628 49.4069 80.251C31.0929 87.989 7.92879 79.7875 22.3281 75.7634L22.3261 75.7593ZM19.9785 65.7C19.9785 65.7 16.0659 68.642 22.1692 69.2607C30.1514 70.0345 36.434 70.1876 47.2142 68.0234C47.2142 68.0234 48.6203 69.571 50.9699 70.3448C28.9001 76.8455 4.16899 70.9614 19.9785 65.7ZM63.1806 83.3442C63.1806 83.3442 65.842 85.5104 60.2053 87.2131C49.7187 90.3083 16.2228 91.2373 6.8304 87.2131C3.54337 85.8227 9.80563 83.7875 11.8394 83.4993C13.8772 83.0359 14.9695 83.0359 14.9695 83.0359C11.3707 80.5573 -8.97912 88.1441 4.63769 90.2902C42.0462 96.3254 72.8807 87.6585 63.1765 83.326L63.1806 83.3442ZM24.046 55.1751C24.046 55.1751 6.98527 59.1993 17.9407 60.5917C22.6358 61.2104 31.8713 61.0552 40.4791 60.4366C47.5219 59.8179 54.5667 58.5786 54.5667 58.5786C54.5667 58.5786 52.0601 59.6628 50.3402 60.7449C32.9656 65.2325 -0.373348 63.2234 9.17594 58.5786C17.3151 54.7097 24.046 55.153 24.046 55.153V55.1751ZM54.5687 72.0455C72.0981 63.0683 63.959 54.4013 58.3244 55.4855C56.9183 55.7958 56.2866 56.1041 56.2866 56.1041C56.2866 56.1041 56.7553 55.1772 57.8517 54.8668C68.964 50.9978 77.7307 66.4738 54.2508 72.511C54.2508 72.511 54.4077 72.3558 54.5646 72.0475L54.5687 72.0455ZM25.77 96.4987C42.6739 97.5828 68.5034 95.8801 69.127 87.9869C69.127 87.9869 67.8758 91.0821 55.1963 93.4035C40.797 96.0352 22.9537 95.7249 12.463 94.0222C12.463 94.0222 14.6536 95.8781 25.77 96.4987Z" fill="#424147"/>
<path d="M44.3867 3.20703C44.3867 3.20703 54.2919 12.9717 34.9599 27.6912C19.4634 39.6227 31.4238 46.4418 34.9599 54.1889C25.8534 46.2864 19.3033 39.314 23.7754 32.8036C30.3276 23.1963 48.3804 18.548 44.3867 3.20703ZM39.2739 47.6805C43.9062 52.7948 37.9947 57.4451 37.9947 57.4451C37.9947 57.4451 49.8177 51.5541 44.3846 44.2709C39.4341 37.2985 35.5984 33.889 56.3657 22.2662C56.3657 22.2662 23.6131 30.1687 39.2718 47.6785L39.2739 47.6805Z" fill="#424147"/>
<path d="M138.935 66.7402V42.7913C138.935 36.6795 135.54 32.5284 127.055 32.5284C122.205 32.5284 118.081 33.7507 114.446 35.2151L115.659 39.6144C118.325 38.6361 121.723 37.6598 125.358 37.6598C129.965 37.6598 132.146 39.6144 132.146 43.5255V46.7045H129.741C118.101 46.7045 112.769 51.1038 112.769 58.1898C112.769 64.0555 116.406 67.4765 122.952 67.4765C127.075 67.4765 130.227 65.5219 133.135 63.0772L133.619 66.7422H138.951L138.935 66.7402ZM132.142 58.922C129.72 61.1206 127.051 62.343 124.625 62.343C121.471 62.343 119.533 60.3884 119.533 56.9695C119.533 53.5506 121.473 51.1038 129.232 51.1038H132.142V58.924V58.922ZM161.722 66.7422H153.236L143.055 33.2646H150.33L156.635 53.7946L158.09 59.9064C161.244 51.1079 163.665 42.0673 164.636 33.2708H171.909C169.97 44.268 166.577 56.2414 161.726 66.7484L161.722 66.7422ZM201.001 66.7422V42.7913C201.001 36.6795 197.606 32.5284 189.116 32.5284C184.267 32.5284 180.146 33.7507 176.508 35.2151L177.479 39.6144C180.389 38.6361 183.783 37.6598 187.419 37.6598C192.026 37.6598 194.208 39.6144 194.208 43.5255V46.7045H191.786C180.146 46.7045 174.815 51.1038 174.815 58.1898C174.815 64.0555 178.209 67.4765 184.756 67.4765C189.121 67.4765 192.273 65.5219 195.181 63.0772L195.665 66.7422H200.997H201.001ZM194.212 58.922C191.79 61.1206 189.121 62.343 186.695 62.343C183.541 62.343 181.603 60.3884 181.603 56.9695C181.603 53.5506 183.543 51.1038 191.302 51.1038H194.212V58.924V58.922ZM105.228 72.3618C103.288 75.2947 100.379 77.4933 96.7421 78.7157L93.5879 74.8066C96.0135 73.3402 98.4372 71.1415 99.4078 69.187C100.379 67.4765 100.621 65.0318 100.621 59.4122V21.2871H107.896V58.922C107.896 66.4982 107.165 69.429 105.228 72.3618Z" fill="#424147"/>
</g>
<defs>
<clipPath id="clip0_1134_6104">
<rect width="200" height="100" fill="white" transform="translate(0.841797)"/>
</clipPath>
</defs>
</svg>
