<svg width="101" height="100" viewBox="0 0 101 100" fill="none" xmlns="http://www.w3.org/2000/svg">
<g clip-path="url(#clip0_1134_6076)">
<path fill-rule="evenodd" clip-rule="evenodd" d="M77.4818 92.1606C68.7568 92.1606 63.1168 88.001 60.3668 82.561L68.0168 78.1299C70.0318 81.4199 72.6468 83.8354 77.2818 83.8354C81.1718 83.8354 83.6567 81.8891 83.6567 79.2041C83.6567 75.1641 78.2668 73.5856 74.4618 71.9556C67.6818 69.0706 63.1817 65.4455 63.1817 57.7905C63.1817 50.7455 68.5518 45.376 76.9468 45.376C82.9168 45.376 87.2168 47.4556 90.3018 52.8906L82.9867 57.5903C81.3767 54.7053 79.6318 53.5645 76.9468 53.5645C74.1918 53.5645 72.4469 55.3103 72.4469 57.5903C72.4469 60.4103 74.1919 61.5509 78.2219 63.2959C86.6669 66.9159 93.0568 69.7598 93.0568 79.0698C93.0568 87.5298 86.4118 92.1606 77.4818 92.1606ZM55.8418 77.9956C55.8418 87.7306 49.8467 92.876 41.5217 92.876C34.0017 92.876 29.4968 90 27.2818 85H27.2068H27.1718H27.1518L34.7967 79.6558C36.2717 82.2708 37.6018 84.126 40.8218 84.126C43.9118 84.126 45.8418 82.5612 45.8418 77.8662V45H55.8418V77.9956ZM0.841797 100H100.842V0H0.841797V100Z" fill="#424147"/>
</g>
<defs>
<clipPath id="clip0_1134_6076">
<rect width="100" height="100" fill="white" transform="translate(0.841797)"/>
</clipPath>
</defs>
</svg>
