<svg width="100" height="100" viewBox="0 0 100 100" fill="none" xmlns="http://www.w3.org/2000/svg">
<g clip-path="url(#clip0_1147_6115)">
<path fill-rule="evenodd" clip-rule="evenodd" d="M65.984 75.2964C60.749 75.2964 57.365 72.8006 55.715 69.5366L60.305 66.8779C61.514 68.8519 63.083 70.3013 65.864 70.3013C68.198 70.3013 69.689 69.1335 69.689 67.5225C69.689 65.0985 66.455 64.1513 64.172 63.1733C60.104 61.4423 57.404 59.2673 57.404 54.6743C57.404 50.4473 60.626 47.2256 65.663 47.2256C69.245 47.2256 71.825 48.4734 73.676 51.7344L69.287 54.5542C68.321 52.8232 67.274 52.1387 65.663 52.1387C64.01 52.1387 62.963 53.1862 62.963 54.5542C62.963 56.2462 64.01 56.9305 66.428 57.9775C71.495 60.1495 75.329 61.8559 75.329 67.4419C75.329 72.5179 71.342 75.2964 65.984 75.2964ZM53 66.7974C53 72.6384 49.403 75.7256 44.408 75.7256C39.896 75.7256 37.193 74 35.864 71H35.819H35.798H35.786L40.373 67.7935C41.258 69.3625 42.056 70.4756 43.988 70.4756C45.842 70.4756 47 69.5367 47 66.7197V47H53V66.7974ZM20 80H80V20H20V80Z" fill="#424147"/>
</g>
<defs>
<clipPath id="clip0_1147_6115">
<rect width="60" height="60" fill="white" transform="translate(20 20)"/>
</clipPath>
</defs>
</svg>
