<svg width="118" height="26" viewBox="0 0 118 26" fill="none" xmlns="http://www.w3.org/2000/svg">
<path d="M10.723 25.9987C8.96259 26.0237 7.21592 25.6926 5.59265 25.0263C4.12633 24.4033 2.83945 23.4371 1.84563 22.2128C0.85423 20.9361 0.218337 19.43 0 17.8414L5.0368 17.1134C5.39657 18.5483 6.12991 19.6531 7.23681 20.428C8.3441 21.2014 9.67524 21.6086 11.036 21.5903C11.8204 21.5918 12.5998 21.4689 13.3439 21.2263C14.0337 21.0173 14.6614 20.6481 15.1734 20.1502C15.41 19.9208 15.5959 19.6464 15.7197 19.3439C15.8435 19.0415 15.9024 18.7174 15.8929 18.3918C15.8942 18.144 15.8522 17.8978 15.7688 17.6638C15.6959 17.4146 15.5689 17.1837 15.3964 16.9868C15.1801 16.7472 14.9218 16.5471 14.6337 16.396C14.2461 16.1836 13.8352 16.0149 13.4087 15.8931L6.7817 13.9887C6.28521 13.8515 5.70358 13.6552 5.0368 13.3996C4.35527 13.1275 3.71734 12.7609 3.14261 12.3112C2.49642 11.7993 1.96959 11.1584 1.59739 10.4314C1.19444 9.64599 0.993569 8.65717 0.994769 7.46496C0.994769 5.78743 1.42649 4.39301 2.28995 3.28169C3.18255 2.15127 4.38438 1.29104 5.75635 0.800558C7.28716 0.243121 8.91162 -0.0276997 10.5449 0.00223655C12.1622 -0.00491695 13.7656 0.293631 15.2669 0.881445C16.615 1.4209 17.8089 2.27235 18.7459 3.36257C19.7199 4.51376 20.4126 5.86685 20.7714 7.31901L15.5547 8.18591C15.3916 7.42701 15.031 6.72206 14.5078 6.13911C14.0036 5.58708 13.3782 5.15366 12.6784 4.8713C11.9812 4.58286 11.2351 4.42423 10.4783 4.40356C9.74813 4.37634 9.01912 4.48249 8.32871 4.71655C7.71334 4.90805 7.15387 5.24089 6.69715 5.6872C6.4956 5.88931 6.33686 6.12833 6.23005 6.39056C6.12324 6.65278 6.07046 6.93305 6.07474 7.21527C6.06574 7.46022 6.10658 7.70449 6.1949 7.93389C6.28321 8.1633 6.41724 8.37328 6.58922 8.55166C6.96171 8.90484 7.40268 9.18165 7.88619 9.36581C8.40581 9.57684 8.9395 9.75309 9.48358 9.89334L13.9178 11.0803C14.5815 11.2561 15.3137 11.4847 16.1196 11.7731C16.9411 12.0599 17.7178 12.457 18.4275 12.953C19.1849 13.4633 19.8105 14.1387 20.2551 14.9259C20.7408 15.7465 20.9837 16.7881 20.9837 18.0506C21.0117 19.277 20.7116 20.4893 20.113 21.5675C19.5521 22.5594 18.7633 23.4105 17.8087 24.0539C16.8009 24.7193 15.6847 25.2122 14.5078 25.5116C13.2741 25.8386 12.0012 26.0024 10.723 25.9987V25.9987Z" fill="white"/>
<path d="M25.3906 25.4772V0.488281H43.453V4.89488H30.2188V10.2405H40.9615V14.6488H30.2188V21.0688H43.453V25.4772H25.3906Z" fill="white"/>
<path d="M47.8203 25.4772V0.488281H52.7204L63.8337 17.1475V0.488281H68.7338V25.4772H63.8337L52.7204 8.81791V25.4772H47.8203Z" fill="white"/>
<path d="M103.829 25.4772V15.3082L95.0938 0.488281H100.74L106.279 9.8923L111.818 0.488281H117.463L108.729 15.3082V25.4772H103.829Z" fill="white"/>
<path d="M83.5366 0.559463C79.7392 0.460992 75.1719 0.499677 75.1719 0.499677L75.3068 5.66063C75.3068 5.66063 81.4841 5.30895 83.5366 5.72394C85.5891 6.13892 89.6905 8.26837 89.6905 13.0161C89.6905 17.7638 85.5873 19.9865 83.5366 20.4384C81.4859 20.8903 75.3536 20.572 75.3536 20.572V25.4956C75.3536 25.4956 79.7392 25.5308 83.5366 25.4411C87.334 25.3514 94.9287 22.7331 94.9287 13.0161C94.9287 3.29908 87.334 0.659693 83.5366 0.559463Z" fill="white"/>
<path fill-rule="evenodd" clip-rule="evenodd" d="M83.7861 12.9818L75.1767 0.488281L73.0469 5.81805L78.0171 12.9818L73.0469 20.3127L75.3548 25.486L83.7861 12.9818H83.7879H83.7861Z" fill="#00B4F0"/>
</svg>
