<svg width="241" height="100" viewBox="0 0 241 100" fill="none" xmlns="http://www.w3.org/2000/svg">
<path fill-rule="evenodd" clip-rule="evenodd" d="M215.371 44.9598C215.172 44.9996 214.973 45.437 214.973 45.6755C214.934 47.2656 214.894 51.4799 214.894 54.3421C214.894 54.4217 215.013 54.5805 215.132 54.5805C215.729 54.6203 217.16 54.6601 218.392 54.6601C220.102 54.6601 221.096 54.4217 221.652 54.1832C223.083 53.4676 223.759 51.9169 223.759 50.2074C223.759 46.3513 221.056 44.8802 217.04 44.8802C216.762 44.8408 215.967 44.8408 215.371 44.9598ZM225.628 62.7305C225.628 58.7948 222.725 56.608 217.478 56.608C217.239 56.608 215.57 56.5682 215.172 56.6478C215.053 56.6876 214.894 56.7672 214.894 56.8866C214.894 59.709 214.854 64.2015 214.973 65.9505C215.053 66.7059 215.61 67.7794 216.285 68.0974C217.001 68.4951 218.631 68.5743 219.744 68.5743C222.885 68.5743 225.628 66.8253 225.628 62.7305ZM207.261 42.7734C207.658 42.7734 208.851 42.8925 211.912 42.8925C214.814 42.8925 217.12 42.8132 219.943 42.8132C223.401 42.8132 228.172 44.0455 228.172 49.2135C228.172 51.7581 226.383 53.7856 224.037 54.7795C223.918 54.8193 223.918 54.8985 224.037 54.9383C227.377 55.7734 230.319 57.8407 230.319 61.7366C230.319 65.5532 227.934 67.978 224.475 69.4889C222.368 70.4032 219.744 70.7212 217.08 70.7212C215.053 70.7212 209.607 70.4828 206.585 70.5624C206.267 70.443 206.863 69.0117 207.142 68.7733C207.857 68.7335 208.414 68.6937 209.169 68.4553C210.243 68.177 210.362 67.859 210.521 66.2291C210.6 64.8376 210.6 59.9077 210.6 56.4094C210.6 51.5989 210.64 48.339 210.6 46.7489C210.561 45.5166 210.123 45.119 209.249 44.8802C208.573 44.7612 207.46 44.602 206.545 44.483C206.346 44.284 207.022 42.9323 207.261 42.7734ZM184.322 67.5012C185.276 68.2563 187.145 68.5743 188.814 68.5743C190.961 68.5743 193.108 68.177 195.175 66.3083C197.282 64.4002 198.753 61.4584 198.753 56.7672C198.753 52.2747 197.044 48.6173 193.545 46.4707C191.558 45.238 189.013 44.7214 186.071 44.7214C185.197 44.7214 184.362 44.7612 183.845 44.9996C183.726 45.0792 183.447 45.437 183.447 45.6357C183.368 46.4309 183.368 52.5529 183.368 56.1312C183.368 59.8284 183.368 64.9964 183.447 65.5927C183.447 66.1893 183.726 67.1036 184.322 67.5012ZM175.298 42.7734C176.053 42.7734 178.955 42.8925 180.346 42.8925C182.851 42.8925 184.64 42.7734 189.371 42.7734C193.346 42.7734 196.686 43.8469 199.071 45.8741C201.973 48.3788 203.484 51.8377 203.484 56.0516C203.484 62.0546 200.741 65.5134 197.998 67.5012C195.255 69.5287 191.677 70.7212 186.588 70.7212C183.885 70.7212 179.234 70.6416 175.377 70.6018H175.337C175.139 70.2444 175.655 68.8529 175.973 68.8131C177.007 68.6937 177.285 68.6539 177.802 68.4553C178.637 68.1372 178.796 67.6998 178.916 66.2291C179.035 63.4859 178.995 60.1863 178.995 56.4492C178.995 53.7856 179.035 48.5775 178.955 46.9077C178.836 45.5166 178.24 45.1588 177.047 44.92C176.451 44.801 175.655 44.6418 174.542 44.5228C174.383 44.2442 175.099 43.0119 175.298 42.7734Z" fill="#424147"/>
<path fill-rule="evenodd" clip-rule="evenodd" d="M127.191 69.0511C126.198 68.9317 125.482 68.7729 124.607 68.3753C124.488 68.2957 124.289 67.8984 124.289 67.7392C124.209 66.3477 124.209 62.3722 124.209 59.7086C124.209 57.5617 123.852 55.6934 122.937 54.3815C121.864 52.8706 120.314 51.9961 118.326 51.9961C116.577 51.9961 114.231 53.189 112.283 54.8587C112.243 54.8981 111.925 55.1767 111.965 54.7393C111.965 54.3019 112.045 53.4274 112.084 52.8311C112.124 52.2743 111.806 51.9961 111.806 51.9961C110.534 52.6321 106.956 53.4672 105.644 53.5862C104.69 53.7852 104.451 54.6995 105.445 55.0175H105.485C106.558 55.3355 107.274 55.6934 107.83 56.0512C108.228 56.3692 108.188 56.8066 108.188 57.1644C108.228 60.1461 108.228 64.7178 108.109 67.2226C108.069 68.2164 107.791 68.5739 107.075 68.7331L107.154 68.6933C106.598 68.8127 106.161 68.9317 105.485 69.0113C105.246 69.2497 105.246 70.5222 105.485 70.8004C105.922 70.8004 108.228 70.681 110.136 70.681C112.76 70.681 114.112 70.8004 114.788 70.8004C115.066 70.4824 115.146 69.2895 114.986 69.0113C114.231 68.9715 113.675 68.8923 113.158 68.7331C112.442 68.5739 112.243 68.2164 112.203 67.3814C112.124 65.2742 112.124 60.8219 112.124 57.8005C112.124 56.9654 112.363 56.5678 112.601 56.3294C113.515 55.5345 114.986 54.9777 116.298 54.9777C117.57 54.9777 118.405 55.3753 119.041 55.8924C119.916 56.6076 120.194 57.6413 120.314 58.3967C120.512 60.1063 120.433 63.4855 120.433 66.4273C120.433 68.0174 120.314 68.415 119.717 68.6137C119.439 68.7331 118.723 68.8923 117.888 68.9715C117.61 69.2497 117.69 70.4824 117.888 70.7606C119.041 70.7606 120.393 70.6412 122.381 70.6412C124.846 70.6412 126.436 70.7606 127.072 70.7606C127.271 70.5222 127.351 69.3691 127.191 69.0511ZM138.204 53.8648C136.096 53.8648 134.785 55.4947 134.785 58.0389C134.785 60.6229 135.937 63.6045 139.198 63.6045C139.754 63.6045 140.788 63.3661 141.264 62.8096C142.02 62.094 142.537 60.6627 142.537 59.1522C142.537 55.8526 140.907 53.8648 138.204 53.8648ZM137.925 71.4365C137.13 71.4365 136.573 71.6749 136.216 71.8739C134.546 72.947 133.791 73.9807 133.791 75.2133C133.791 76.366 134.228 77.2803 135.182 78.0755C136.335 79.0694 137.925 79.5466 139.953 79.5466C144.008 79.5466 145.797 77.3599 145.797 75.2133C145.797 73.7024 145.041 72.7086 143.491 72.1521C142.378 71.6749 140.35 71.4365 137.925 71.4365ZM138.204 81.7728C135.778 81.7728 134.029 81.2558 132.519 80.1031C131.048 78.9898 130.411 77.3201 130.411 76.1674C130.411 75.8494 130.491 74.9745 131.207 74.1796C131.644 73.7024 132.598 72.7882 134.864 71.2378C134.943 71.198 134.983 71.1582 134.983 71.0786C134.983 70.999 134.904 70.9194 134.824 70.88C132.956 70.1644 132.399 69.0113 132.24 68.3753V68.2957C132.201 68.0572 132.121 67.8188 132.479 67.58C132.757 67.3814 133.155 67.143 133.592 66.8647C134.268 66.4671 134.983 66.0297 135.421 65.6719C135.5 65.5923 135.5 65.513 135.5 65.4334C135.5 65.3538 135.421 65.2742 135.341 65.2348C132.558 64.3202 131.167 62.2528 131.167 59.1522C131.167 57.1246 132.081 55.2957 133.711 54.143C134.824 53.2682 137.607 52.1951 139.436 52.1951H139.555C141.424 52.2345 142.457 52.6321 143.928 53.1492C144.723 53.4274 145.479 53.5464 146.512 53.5464C148.063 53.5464 148.739 53.0696 149.295 52.5131C149.335 52.5923 149.414 52.7913 149.454 53.308C149.494 53.825 149.335 54.5801 148.937 55.1369C148.619 55.574 147.904 55.8924 147.188 55.8924H146.989C146.274 55.8128 145.956 55.7332 145.956 55.7332L145.797 55.8128C145.757 55.8924 145.797 55.9716 145.837 56.091L145.876 56.1706C145.956 56.5284 146.115 57.6015 146.115 57.8801C146.115 61.1399 144.803 62.5709 143.411 63.6443C142.06 64.6382 140.509 65.2742 138.76 65.4334C138.72 65.4334 138.561 65.4334 138.204 65.4732C138.005 65.4732 137.726 65.513 137.687 65.513H137.647C137.329 65.5923 136.534 65.9899 136.534 66.6657C136.534 67.262 136.892 67.9776 138.601 68.097C138.959 68.1368 139.317 68.1368 139.714 68.1766C141.98 68.3355 144.803 68.5344 146.115 68.9715C147.943 69.6473 149.096 71.2773 149.096 73.2256C149.096 76.1674 146.989 78.9106 143.491 80.6197C141.781 81.3752 140.072 81.7728 138.204 81.7728ZM160.864 54.0634C160.029 54.0634 159.274 54.2621 158.717 54.6597C157.167 55.6138 156.372 57.5223 156.372 60.3049C156.372 65.513 158.995 69.1705 162.732 69.1705C163.846 69.1705 164.72 68.8525 165.476 68.2164C166.628 67.262 167.225 65.3538 167.225 62.6902C167.225 57.5223 164.641 54.0634 160.864 54.0634ZM161.58 71.0786C154.821 71.0786 152.396 66.1093 152.396 61.458C152.396 58.1981 153.708 55.6934 156.332 53.9042C158.2 52.7515 160.427 52.1155 162.414 52.1155C167.582 52.1155 171.2 55.8128 171.2 61.1399C171.2 64.7576 169.769 67.6198 167.026 69.3691C165.714 70.2436 163.448 71.0786 161.58 71.0786ZM90.7359 54.0634C89.9008 54.0634 89.1458 54.2621 88.5889 54.6597C87.0386 55.6138 86.2434 57.5223 86.2434 60.3049C86.2434 65.513 88.8672 69.1705 92.6042 69.1705C93.7175 69.1705 94.592 68.8525 95.3474 68.2164C96.5001 67.262 97.0967 65.3538 97.0967 62.6902C97.0967 57.5223 94.5522 54.0634 90.7359 54.0634ZM91.4515 71.0786C84.6931 71.0786 82.2679 66.1093 82.2679 61.458C82.2679 58.1981 83.5798 55.6934 86.2036 53.9042C88.0723 52.7515 90.2985 52.1155 92.2862 52.1155C97.4546 52.1155 101.072 55.8128 101.072 61.1399C101.072 64.7576 99.6409 67.6198 96.8977 69.3691C95.6256 70.2436 93.3597 71.0786 91.4515 71.0786ZM46.0113 70.681C45.9317 70.562 45.8521 70.2042 45.8919 69.7667C45.8919 69.4487 45.9715 69.2497 46.0113 69.1705C46.846 69.0511 47.2834 68.9317 47.7603 68.8127C48.5555 68.6137 48.8735 68.1766 48.9133 67.1828C49.0327 64.7974 49.0327 60.2651 48.9929 57.1246V57.045C48.9929 56.6872 48.9929 56.2498 48.5555 55.9318C47.9195 55.5345 47.164 55.1767 46.1702 54.8981C45.8123 54.7791 45.5739 54.5801 45.6137 54.3417C45.6137 54.1032 45.8521 53.825 46.3692 53.7454C47.681 53.626 51.0997 52.7913 52.4514 52.1951C52.531 52.2743 52.6504 52.5131 52.6504 52.8311L52.6106 53.2682C52.5708 53.7056 52.531 54.2226 52.531 54.7393C52.531 54.8981 52.6902 55.0175 52.849 55.0175C52.9286 55.0175 53.0082 54.9777 53.0878 54.9379C55.632 52.9502 57.9378 52.2345 59.1303 52.2345C61.0786 52.2345 62.5891 53.1492 63.7422 55.0573C63.8214 55.1767 63.901 55.2161 64.0204 55.2161C64.1 55.2161 64.219 55.1767 64.2588 55.0971C66.6044 53.308 68.95 52.2345 70.5003 52.2345C74.1975 52.2345 76.3843 54.9777 76.3843 59.629C76.3843 60.9409 76.3843 62.6504 76.3445 64.2011C76.3445 65.5923 76.3047 66.8647 76.3047 67.779C76.3047 67.9776 76.5829 68.6137 77.0203 68.7331C77.5768 69.0113 78.3322 69.1307 79.3261 69.2895H79.3659C79.4455 69.5677 79.2863 70.6014 79.1275 70.8004C78.8887 70.8004 78.5308 70.8004 78.1336 70.7606C77.3781 70.7208 76.3047 70.681 75.1122 70.681C72.6472 70.681 71.3751 70.7208 70.1425 70.8004C70.0632 70.4824 70.0234 69.5283 70.1425 69.2895C70.8581 69.1705 71.2159 69.0511 71.6533 68.9317C72.4486 68.6933 72.6472 68.3355 72.687 67.3018C72.687 66.5467 72.8458 60.1063 72.6074 58.5556C72.369 56.9654 71.1761 55.0971 68.5523 55.0971C67.5585 55.0971 66.0081 55.4947 64.4972 56.6474C64.418 56.727 64.3384 56.9256 64.3384 57.045V57.0848C64.4972 57.9195 64.4972 58.874 64.4972 60.3447V62.9287C64.4972 64.7178 64.4574 66.3875 64.4972 67.6596C64.4972 68.5344 65.0143 68.7331 65.4517 68.8923C65.6901 68.9317 65.8489 68.9715 66.0479 69.0113C66.4058 69.0909 66.7636 69.1705 67.32 69.2895C67.3996 69.4487 67.3996 69.9654 67.2802 70.4028C67.2404 70.6412 67.1608 70.7606 67.1214 70.8004C65.7697 70.7606 64.3782 70.7208 62.3507 70.7208C61.7544 70.7208 60.7208 70.7606 59.8459 70.7606C59.1303 70.7606 58.4544 70.8004 58.0572 70.8004C58.0174 70.7208 57.9378 70.4426 57.9378 70.0052C57.9378 69.6473 58.0174 69.3691 58.097 69.2895C58.2956 69.2497 58.4544 69.2103 58.6534 69.2103C59.1303 69.1307 59.5279 69.0511 59.9255 68.9715C60.6014 68.7729 60.8398 68.415 60.8796 67.5406C60.999 65.5528 61.118 59.8678 60.8398 58.4365C60.3629 56.1308 59.051 54.9777 56.9439 54.9777C55.7116 54.9777 54.1609 55.574 52.8888 56.5284C52.6902 56.6872 52.531 57.0848 52.531 57.4427V59.7882C52.531 62.6504 52.531 66.2287 52.5708 67.779C52.6106 68.2559 52.7694 68.8127 53.6841 69.0113C53.8827 69.0511 54.2007 69.1307 54.5983 69.1705L55.314 69.2895C55.3936 69.5283 55.3538 70.4824 55.1946 70.8004C54.797 70.8004 54.3201 70.7606 53.7633 70.7606C52.9286 70.7208 51.8552 70.681 50.6627 70.681C49.2712 70.681 48.2773 70.7208 47.482 70.7606C46.9256 70.681 46.4882 70.681 46.0113 70.681Z" fill="#424147"/>
<path fill-rule="evenodd" clip-rule="evenodd" d="M25.0999 80.2227L23.47 79.6659C23.47 79.6659 23.669 71.3571 20.6873 70.7609C18.6996 68.4551 21.0054 -27.0369 28.1611 70.4428C28.1611 70.4428 25.6965 71.6751 25.2591 73.7823C24.7819 75.8496 25.0999 80.2227 25.0999 80.2227Z" fill="#424147"/>
<path fill-rule="evenodd" clip-rule="evenodd" d="M25.0999 80.2227L23.47 79.6659C23.47 79.6659 23.669 71.3571 20.6873 70.7609C18.6996 68.4551 21.0054 -27.0369 28.1611 70.4428C28.1611 70.4428 25.6965 71.6751 25.2591 73.7823C24.7819 75.8496 25.0999 80.2227 25.0999 80.2227Z" fill="#424147"/>
<path fill-rule="evenodd" clip-rule="evenodd" d="M25.9774 72.1935C25.9774 72.1935 40.2494 62.8112 36.91 43.2913C33.69 29.0989 26.0964 24.4475 25.2618 22.6584C24.3475 21.3863 23.4727 19.1602 23.4727 19.1602L24.0693 58.6368C24.0693 58.6766 22.8366 70.7224 25.9774 72.1935Z" fill="#424147"/>
<path fill-rule="evenodd" clip-rule="evenodd" d="M25.9774 72.1935C25.9774 72.1935 40.2494 62.8112 36.91 43.2913C33.69 29.0989 26.0964 24.4475 25.2618 22.6584C24.3475 21.3863 23.4727 19.1602 23.4727 19.1602L24.0693 58.6368C24.0693 58.6766 22.8366 70.7224 25.9774 72.1935Z" fill="#424147"/>
<path fill-rule="evenodd" clip-rule="evenodd" d="M22.6364 72.7092C22.6364 72.7092 9.23881 63.5654 10.0341 47.4648C10.7891 31.3639 20.251 23.4527 22.0795 22.0214C23.2724 20.7493 23.3122 20.2721 23.3918 19C24.2265 20.7891 24.0676 45.7553 24.1867 48.6971C24.5445 60.0273 23.5506 70.5626 22.6364 72.7092Z" fill="#424147"/>
<path fill-rule="evenodd" clip-rule="evenodd" d="M22.6364 72.7092C22.6364 72.7092 9.23881 63.5654 10.0341 47.4648C10.7891 31.3639 20.251 23.4527 22.0795 22.0214C23.2724 20.7493 23.3122 20.2721 23.3918 19C24.2265 20.7891 24.0676 45.7553 24.1867 48.6971C24.5445 60.0273 23.5506 70.5626 22.6364 72.7092Z" fill="#424147"/>
</svg>
