<svg width="351" height="100" viewBox="0 0 351 100" fill="none" xmlns="http://www.w3.org/2000/svg">
<path fill-rule="evenodd" clip-rule="evenodd" d="M327.159 41.356C326.843 41.4194 326.526 42.1162 326.526 42.496C326.463 45.0292 326.4 51.7426 326.4 56.3022C326.4 56.429 326.589 56.682 326.779 56.682C327.729 56.7454 330.009 56.8088 331.972 56.8088C334.696 56.8088 336.279 56.429 337.166 56.0492C339.446 54.9092 340.522 52.4389 340.522 49.7156C340.522 43.5727 336.216 41.2292 329.819 41.2292C329.376 41.1664 328.11 41.1664 327.159 41.356ZM343.499 69.6652C343.499 63.3955 338.876 59.912 330.516 59.912C330.136 59.912 327.476 59.8486 326.843 59.9754C326.653 60.0388 326.4 60.1656 326.4 60.3558C326.4 64.852 326.336 72.0087 326.526 74.7948C326.653 75.9983 327.54 77.7083 328.616 78.2149C329.756 78.8484 332.353 78.9746 334.126 78.9746C339.129 78.9746 343.499 76.1885 343.499 69.6652ZM314.24 37.873C314.873 37.873 316.773 38.0627 321.65 38.0627C326.273 38.0627 329.946 37.9364 334.443 37.9364C339.952 37.9364 347.552 39.8995 347.552 48.1323C347.552 52.1858 344.702 55.4158 340.965 56.9991C340.776 57.0625 340.776 57.1887 340.965 57.2521C346.285 58.5823 350.972 61.8757 350.972 68.0819C350.972 74.162 347.172 78.0247 341.662 80.4316C338.306 81.8881 334.126 82.3947 329.883 82.3947C326.653 82.3947 317.977 82.0149 313.163 82.1417C312.657 81.9515 313.607 79.6714 314.05 79.2916C315.19 79.2282 316.076 79.1648 317.28 78.785C318.99 78.3417 319.18 77.8351 319.433 75.2386C319.56 73.0219 319.56 65.1684 319.56 59.5956C319.56 51.9322 319.623 46.7392 319.56 44.2061C319.497 42.243 318.8 41.6096 317.407 41.2292C316.33 41.0396 314.557 40.786 313.1 40.5964C312.783 40.2794 313.86 38.1261 314.24 37.873ZM277.698 77.2651C279.218 78.468 282.194 78.9746 284.854 78.9746C288.274 78.9746 291.694 78.3417 294.987 75.3648C298.344 72.3251 300.687 67.6387 300.687 60.1656C300.687 53.0089 297.964 47.1824 292.391 43.7629C289.224 41.7992 285.171 40.9762 280.484 40.9762C279.091 40.9762 277.761 41.0396 276.938 41.4194C276.748 41.5462 276.305 42.1162 276.305 42.4326C276.178 43.6995 276.178 53.4521 276.178 59.1523C276.178 65.0422 276.178 73.2749 276.305 74.2248C276.305 75.1752 276.748 76.6317 277.698 77.2651ZM263.321 37.873C264.525 37.873 269.148 38.0627 271.365 38.0627C275.355 38.0627 278.204 37.873 285.741 37.873C292.074 37.873 297.394 39.5831 301.194 42.8125C305.817 46.8026 308.223 52.3127 308.223 59.0255C308.223 68.5885 303.853 74.0986 299.484 77.2651C295.114 80.495 289.414 82.3947 281.308 82.3947C277.001 82.3947 269.592 82.2679 263.448 82.2045H263.385C263.068 81.6351 263.891 79.4184 264.398 79.355C266.045 79.1648 266.488 79.1014 267.312 78.785C268.641 78.2783 268.895 77.5815 269.085 75.2386C269.275 70.8686 269.211 65.6122 269.211 59.659C269.211 55.4158 269.275 47.119 269.148 44.4591C268.958 42.243 268.008 41.673 266.108 41.2926C265.158 41.103 263.891 40.8494 262.119 40.6598C261.865 40.2159 263.005 38.2529 263.321 37.873Z" fill="#424147"/>
<path fill-rule="evenodd" clip-rule="evenodd" d="M186.689 79.7336C185.106 79.5434 183.966 79.2904 182.572 78.657C182.383 78.5301 182.066 77.8973 182.066 77.6437C181.939 75.427 181.939 69.0939 181.939 64.8508C181.939 61.4306 181.37 58.4543 179.912 56.3644C178.202 53.9575 175.733 52.5645 172.566 52.5645C169.779 52.5645 166.043 54.4647 162.94 57.1246C162.876 57.1874 162.37 57.6313 162.433 56.9344C162.433 56.2376 162.56 54.8445 162.623 53.8947C162.687 53.0077 162.18 52.5645 162.18 52.5645C160.153 53.5777 154.453 54.9079 152.363 55.0976C150.844 55.4146 150.464 56.871 152.047 57.3777H152.11C153.82 57.8843 154.96 58.4543 155.846 59.0243C156.48 59.5309 156.416 60.2278 156.416 60.7978C156.48 65.5476 156.48 72.8305 156.29 76.8207C156.227 78.4039 155.784 78.9734 154.644 79.227L154.77 79.1636C153.883 79.3538 153.187 79.5434 152.11 79.6702C151.73 80.05 151.73 82.0771 152.11 82.5203C152.807 82.5203 156.48 82.3301 159.52 82.3301C163.7 82.3301 165.853 82.5203 166.93 82.5203C167.373 82.0137 167.5 80.1134 167.246 79.6702C166.043 79.6068 165.156 79.4806 164.333 79.227C163.193 78.9734 162.876 78.4039 162.813 77.0737C162.687 73.7169 162.687 66.6242 162.687 61.811C162.687 60.4808 163.067 59.8474 163.446 59.4675C164.903 58.2013 167.246 57.3143 169.336 57.3143C171.363 57.3143 172.693 57.9477 173.706 58.7713C175.099 59.9108 175.542 61.5574 175.733 62.7609C176.049 65.4842 175.923 70.8674 175.923 75.5538C175.923 78.0869 175.733 78.7204 174.783 79.0368C174.34 79.227 173.2 79.4806 171.869 79.6068C171.426 80.05 171.553 82.0137 171.869 82.4569C173.706 82.4569 175.859 82.2667 179.026 82.2667C182.952 82.2667 185.486 82.4569 186.499 82.4569C186.816 82.0771 186.943 80.2402 186.689 79.7336ZM204.232 55.5414C200.875 55.5414 198.785 58.1379 198.785 62.1909C198.785 66.3072 200.622 71.057 205.815 71.057C206.702 71.057 208.348 70.6772 209.108 69.7908C210.312 68.6507 211.135 66.3706 211.135 63.9643C211.135 58.7079 208.538 55.5414 204.232 55.5414ZM203.788 83.5336C202.522 83.5336 201.635 83.9134 201.066 84.2304C198.405 85.9399 197.202 87.5865 197.202 89.5502C197.202 91.3865 197.898 92.8429 199.419 94.1098C201.255 95.6931 203.788 96.4533 207.018 96.4533C213.478 96.4533 216.328 92.9698 216.328 89.5502C216.328 87.1433 215.125 85.56 212.655 84.6736C210.882 83.9134 207.652 83.5336 203.788 83.5336ZM204.232 99.9996C200.369 99.9996 197.582 99.176 195.176 97.3397C192.832 95.5663 191.819 92.9063 191.819 91.0701C191.819 90.5634 191.946 89.1698 193.086 87.9035C193.782 87.1433 195.302 85.6868 198.912 83.2171C199.038 83.1537 199.102 83.0903 199.102 82.9635C199.102 82.8367 198.975 82.7099 198.849 82.6471C195.872 81.5071 194.985 79.6702 194.732 78.657V78.5301C194.669 78.1503 194.542 77.7705 195.112 77.3901C195.556 77.0737 196.189 76.6939 196.885 76.2506C197.962 75.6172 199.102 74.9204 199.799 74.3504C199.925 74.2236 199.925 74.0974 199.925 73.9706C199.925 73.8437 199.799 73.7169 199.672 73.6541C195.239 72.1971 193.022 68.9037 193.022 63.9643C193.022 60.7344 194.479 57.8209 197.075 55.9846C198.849 54.5909 203.282 52.8815 206.195 52.8815H206.385C209.362 52.9443 211.008 53.5777 213.351 54.4013C214.618 54.8445 215.822 55.0342 217.468 55.0342C219.938 55.0342 221.015 54.2745 221.901 53.3881C221.964 53.5143 222.091 53.8313 222.155 54.6543C222.218 55.478 221.964 56.6808 221.331 57.5679C220.824 58.2641 219.685 58.7713 218.545 58.7713H218.228C217.088 58.6445 216.581 58.5177 216.581 58.5177L216.328 58.6445C216.265 58.7713 216.328 58.8975 216.392 59.0877L216.455 59.2145C216.581 59.7846 216.835 61.494 216.835 61.9378C216.835 67.1309 214.745 69.4104 212.528 71.1204C210.375 72.7037 207.905 73.7169 205.119 73.9706C205.055 73.9706 204.802 73.9706 204.232 74.034C203.915 74.034 203.472 74.0974 203.408 74.0974H203.345C202.838 74.2236 201.572 74.857 201.572 75.9336C201.572 76.8835 202.142 78.0235 204.865 78.2137C205.435 78.2771 206.005 78.2771 206.638 78.3405C210.248 78.5935 214.745 78.9106 216.835 79.6068C219.748 80.6834 221.585 83.2799 221.585 86.3837C221.585 91.0701 218.228 95.44 212.655 98.1628C209.932 99.3662 207.208 99.9996 204.232 99.9996ZM240.331 55.8578C239.001 55.8578 237.797 56.1742 236.911 56.8076C234.441 58.3275 233.174 61.3678 233.174 65.8006C233.174 74.0974 237.354 79.9238 243.307 79.9238C245.081 79.9238 246.474 79.4172 247.677 78.4039C249.513 76.8835 250.464 73.8437 250.464 69.6006C250.464 61.3678 246.347 55.8578 240.331 55.8578ZM241.471 82.9635C230.704 82.9635 226.841 75.0472 226.841 67.6375C226.841 62.4445 228.931 58.4543 233.111 55.6042C236.088 53.7679 239.634 52.7547 242.801 52.7547C251.033 52.7547 256.797 58.6445 256.797 67.1309C256.797 72.8939 254.517 77.4535 250.147 80.2402C248.057 81.6333 244.448 82.9635 241.471 82.9635ZM128.614 55.8578C127.284 55.8578 126.081 56.1742 125.194 56.8076C122.725 58.3275 121.458 61.3678 121.458 65.8006C121.458 74.0974 125.638 79.9238 131.591 79.9238C133.364 79.9238 134.757 79.4172 135.961 78.4039C137.797 76.8835 138.748 73.8437 138.748 69.6006C138.748 61.3678 134.694 55.8578 128.614 55.8578ZM129.755 82.9635C118.988 82.9635 115.125 75.0472 115.125 67.6375C115.125 62.4445 117.215 58.4543 121.394 55.6042C124.371 53.7679 127.918 52.7547 131.084 52.7547C139.318 52.7547 145.081 58.6445 145.081 67.1309C145.081 72.8939 142.8 77.4535 138.431 80.2402C136.404 81.6333 132.794 82.9635 129.755 82.9635ZM57.3669 82.3301C57.2401 82.1405 57.1133 81.5705 57.1767 80.8736C57.1767 80.367 57.3035 80.05 57.3669 79.9238C58.6965 79.7336 59.3934 79.5434 60.153 79.3538C61.4199 79.0368 61.9265 78.3405 61.9899 76.7573C62.1801 72.9573 62.1801 65.7372 62.1167 60.7344V60.6076C62.1167 60.0376 62.1167 59.3407 61.4199 58.8341C60.4066 58.2013 59.2032 57.6313 57.6199 57.1875C57.0499 56.9978 56.6701 56.6808 56.7335 56.301C56.7335 55.9212 57.1133 55.478 57.9369 55.3512C60.0268 55.161 65.4728 53.8313 67.6261 52.8815C67.7529 53.0077 67.9431 53.3881 67.9431 53.8947L67.8797 54.5909C67.8163 55.2878 67.7529 56.1114 67.7529 56.9344C67.7529 57.1874 68.0065 57.3777 68.2595 57.3777C68.3863 57.3777 68.5132 57.3143 68.64 57.2509C72.6929 54.0843 76.3661 52.9443 78.2658 52.9443C81.3695 52.9443 83.7758 54.4013 85.6127 57.4411C85.7389 57.6313 85.8657 57.6941 86.0559 57.6941C86.1827 57.6941 86.3723 57.6313 86.4357 57.5045C90.1723 54.6543 93.9088 52.9443 96.3785 52.9443C102.268 52.9443 105.752 57.3143 105.752 64.724C105.752 66.8139 105.752 69.5372 105.689 72.0075C105.689 74.2236 105.625 76.2506 105.625 77.7071C105.625 78.0235 106.068 79.0368 106.765 79.227C107.652 79.6702 108.855 79.8604 110.438 80.1134H110.502C110.629 80.5566 110.375 82.2033 110.122 82.5203C109.741 82.5203 109.171 82.5203 108.539 82.4569C107.335 82.3935 105.625 82.3301 103.725 82.3301C99.7987 82.3301 97.7722 82.3935 95.8085 82.5203C95.6823 82.0137 95.6189 80.4938 95.8085 80.1134C96.9486 79.9238 97.5186 79.7336 98.2154 79.5434C99.4823 79.1636 99.7987 78.5936 99.8621 76.9469C99.8621 75.744 100.115 65.4842 99.7353 63.0139C99.3555 60.4808 97.4552 57.5045 93.2754 57.5045C91.6921 57.5045 89.2224 58.1379 86.8155 59.9742C86.6893 60.101 86.5625 60.4174 86.5625 60.6076V60.671C86.8155 62.0007 86.8155 63.5211 86.8155 65.864V69.9804C86.8155 72.8305 86.7521 75.4904 86.8155 77.5169C86.8155 78.9106 87.6392 79.227 88.336 79.4806C88.7158 79.5434 88.9688 79.6068 89.2858 79.6702C89.8559 79.797 90.4259 79.9238 91.3123 80.1134C91.4391 80.367 91.4391 81.1901 91.2489 81.8869C91.1855 82.2667 91.0587 82.4569 90.9959 82.5203C88.8426 82.4569 86.6259 82.3935 83.396 82.3935C82.4461 82.3935 80.7995 82.4569 79.4058 82.4569C78.2658 82.4569 77.1891 82.5203 76.5563 82.5203C76.4929 82.3935 76.3661 81.9503 76.3661 81.2535C76.3661 80.6834 76.4929 80.2402 76.6197 80.1134C76.9361 80.05 77.1891 79.9872 77.5061 79.9872C78.2658 79.8604 78.8992 79.7336 79.5326 79.6068C80.6093 79.2904 80.9891 78.7204 81.0525 77.3273C81.2427 74.1608 81.4323 65.1044 80.9891 62.8243C80.2294 59.1511 78.1396 57.3143 74.7828 57.3143C72.8197 57.3143 70.3494 58.2641 68.323 59.7846C68.0065 60.0376 67.7529 60.671 67.7529 61.241V64.9776C67.7529 69.5372 67.7529 75.2374 67.8163 77.7071C67.8797 78.4667 68.1327 79.3538 69.5898 79.6702C69.9062 79.7336 70.4128 79.8604 71.0463 79.9238L72.1863 80.1134C72.3131 80.4938 72.2497 82.0137 71.9961 82.5203C71.3627 82.5203 70.603 82.4569 69.716 82.4569C68.3863 82.3935 66.6763 82.3301 64.7766 82.3301C62.5599 82.3301 60.9766 82.3935 59.7098 82.4569C58.8233 82.3301 58.1265 82.3301 57.3669 82.3301Z" fill="#424147"/>
<path fill-rule="evenodd" clip-rule="evenodd" d="M24.0555 97.5285L21.459 96.6415C21.459 96.6415 21.776 83.4053 17.0262 82.4555C13.8597 78.7823 17.5329 -73.3393 28.9321 81.9489C28.9321 81.9489 25.006 83.912 24.3091 87.2687C23.5489 90.562 24.0555 97.5285 24.0555 97.5285Z" fill="#424147"/>
<path fill-rule="evenodd" clip-rule="evenodd" d="M24.0555 97.5285L21.459 96.6415C21.459 96.6415 21.776 83.4053 17.0262 82.4555C13.8597 78.7823 17.5329 -73.3393 28.9321 81.9489C28.9321 81.9489 25.006 83.912 24.3091 87.2687C23.5489 90.562 24.0555 97.5285 24.0555 97.5285Z" fill="#424147"/>
<path fill-rule="evenodd" clip-rule="evenodd" d="M25.4511 84.7377C25.4511 84.7377 48.1869 69.7914 42.867 38.6955C37.7374 16.0866 25.6407 8.67686 24.3111 5.82674C22.8546 3.80026 21.4609 0.253906 21.4609 0.253906L22.4114 63.1414C22.4114 63.2048 20.4477 82.3942 25.4511 84.7377Z" fill="#424147"/>
<path fill-rule="evenodd" clip-rule="evenodd" d="M25.4511 84.7377C25.4511 84.7377 48.1869 69.7914 42.867 38.6955C37.7374 16.0866 25.6407 8.67686 24.3111 5.82674C22.8546 3.80026 21.4609 0.253906 21.4609 0.253906L22.4114 63.1414C22.4114 63.2048 20.4477 82.3942 25.4511 84.7377Z" fill="#424147"/>
<path fill-rule="evenodd" clip-rule="evenodd" d="M20.1301 85.5604C20.1301 85.5604 -1.2126 70.994 0.054246 45.3453C1.2571 19.696 16.3301 7.0933 19.2431 4.8132C21.1433 2.78672 21.2067 2.02649 21.3335 0C22.6632 2.85012 22.4102 42.622 22.5998 47.3084C23.1698 65.3577 21.5866 82.1409 20.1301 85.5604Z" fill="#424147"/>
<path fill-rule="evenodd" clip-rule="evenodd" d="M20.1301 85.5604C20.1301 85.5604 -1.2126 70.994 0.054246 45.3453C1.2571 19.696 16.3301 7.0933 19.2431 4.8132C21.1433 2.78672 21.2067 2.02649 21.3335 0C22.6632 2.85012 22.4102 42.622 22.5998 47.3084C23.1698 65.3577 21.5866 82.1409 20.1301 85.5604Z" fill="#424147"/>
</svg>
