<svg width="200" height="100" viewBox="0 0 200 100" fill="none" xmlns="http://www.w3.org/2000/svg">
<path fill-rule="evenodd" clip-rule="evenodd" d="M20.1093 73.7245H0V35.5996H47.0315V73.7245H31.6414V84.401L20.1093 73.7245ZM13.2018 48.8514V64.96H7.57955V64.9585H7.57719V44.5142H16.3929L33.3579 60.3358V44.5142H38.9801V44.5156H38.9806V64.96H30.4526L30.4511 64.9585H30.4503L13.2018 48.8514Z" fill="#424147"/>
<path fill-rule="evenodd" clip-rule="evenodd" d="M80.1977 56.757L74.1016 48.0424L68.0056 56.757H80.1977ZM98.006 73.7239H50.9727V35.5801H98.006V73.7239ZM77.9895 44.4204H70.5084H70.4857L55.8093 65.0067H55.8518L55.8512 65.0075H62.2874L65.0284 61.0314H83.182L85.9457 65.0067H92.6659L92.6327 64.9601H92.6851L78.0087 44.4211H77.99L77.9895 44.4204Z" fill="#424147"/>
<path fill-rule="evenodd" clip-rule="evenodd" d="M149.012 73.7245H101.98V35.5996H149.012V73.7245ZM141.149 44.5156H141.169V49.1383H128.208V64.96H122.396V64.9548H122.377L122.356 49.1369H109.347V44.5142H141.149V44.5156Z" fill="#424147"/>
<path fill-rule="evenodd" clip-rule="evenodd" d="M152.967 73.7245V35.5996H200V73.7245H152.967ZM189.134 50.7604V50.8704C186.037 49.5358 180.654 48.5799 176.173 48.5799C171.767 48.5799 169.62 48.8043 168.73 49.3251C168.66 49.3711 168.6 49.4191 168.55 49.4689C168.312 49.7173 168.176 50.0455 168.167 50.3892C168.158 50.733 168.278 51.0676 168.503 51.3278C169.122 51.9487 171.409 52.138 176.747 52.2327V52.2156C184.563 52.4049 187.946 53.0751 189.661 54.7409C190.568 55.7423 191.047 57.0592 190.995 58.4095C190.995 59.9996 190.662 61.5065 189.519 62.6498C187.991 64.1737 184.66 65.3663 176.747 65.3663C171.777 65.3663 166.976 64.7156 163.715 63.704C163.093 63.5141 162.525 63.3112 162.021 63.0973V58.3345C162.053 58.3487 162.085 58.3628 162.118 58.377V58.3149C165.167 59.6968 171.696 60.9367 176.747 60.9367C180.031 60.9367 182.595 60.8548 184.034 60.4527C184.473 60.3215 184.796 60.1575 184.989 59.953C185.229 59.6974 185.348 59.351 185.322 59.0008C185.333 58.8422 185.309 58.683 185.251 58.5348C185.194 58.3865 185.104 58.2528 184.989 58.1433C184.512 57.6663 183.749 57.3331 176.697 57.14C169.216 56.9507 165.548 56.1859 163.831 54.4898C162.966 53.5055 162.521 52.2239 162.591 50.9158C162.591 49.3446 162.875 47.9628 164.162 46.6755C165.284 45.5533 167.121 44.8184 170.18 44.4445C171.813 44.236 173.801 44.1307 176.223 44.1307C181.318 44.1307 186.515 44.939 189.231 46.0369V50.8016C189.199 50.7878 189.167 50.7741 189.134 50.7604Z" fill="#424147"/>
</svg>
