<svg width="232" height="100" viewBox="0 0 232 100" fill="none" xmlns="http://www.w3.org/2000/svg">
<g clip-path="url(#clip0_1134_6108)">
<path d="M15.3632 79.9374H4.21602V68.9216H15.9697C20.2705 68.9216 22.4231 70.81 22.4231 74.5155C22.4231 78.1308 20.0698 79.9395 15.3653 79.9395M23.3776 68.7936C21.8507 67.4507 19.7131 66.7793 16.9648 66.7793L1 66.8632V93.2172H4.21602L4.18612 81.9979H16.0658C19.0447 81.9979 21.3895 81.3264 23.1 79.9836C24.8105 78.6407 25.6668 76.7733 25.6668 74.3896C25.6668 72.006 24.9023 70.1386 23.3755 68.7957L23.3776 68.7936ZM44.192 87.6862C43.8853 88.5486 43.3598 89.3199 42.6652 89.9272C41.2237 91.312 39.0263 91.9981 36.0452 91.9981C33.3759 91.9981 31.3472 91.3267 29.8951 89.9838C28.4429 88.6409 27.7489 86.8427 27.7489 84.5913C27.7489 83.4163 27.9368 82.3777 28.3105 81.4691C28.665 80.5894 29.2219 79.8023 29.9378 79.1694C31.4155 77.8476 33.4528 77.1824 36.0452 77.1824C41.811 77.1824 44.6576 79.652 44.6576 84.5892C44.6576 85.7642 44.4932 86.7924 44.1664 87.682M44.7494 77.9609C42.789 76.2046 39.8869 75.3255 36.0431 75.3255C32.4128 75.3255 29.6046 76.2235 27.6251 78.0175C25.8377 79.6416 24.945 81.8321 24.945 84.5892C24.945 87.3274 25.8676 89.5369 27.7126 91.2197C28.7312 92.1261 29.9186 92.7829 31.2724 93.1878C32.6263 93.5928 34.2194 93.8173 36.0431 93.8173C39.8869 93.8173 42.7784 92.9486 44.7985 91.2113C46.5859 89.625 47.4785 87.426 47.4785 84.6123C47.4785 81.7797 46.5752 79.5702 44.7665 77.9818L44.7494 77.9609ZM69.0938 88.4458C69.0938 92.0128 65.8585 93.767 59.3902 93.767C57.4127 93.767 55.7471 93.6411 54.3932 93.3977C53.0393 93.1543 51.9417 92.7409 51.096 92.1723C50.4499 91.7415 49.9171 91.1662 49.5414 90.4937C49.157 89.816 48.9072 88.92 48.794 87.8604L51.7836 87.8331C51.7836 89.2284 52.3111 90.2566 53.3639 90.9175C54.4957 91.7107 56.4966 92.1072 59.371 92.1072C63.8918 92.1072 66.1532 90.9952 66.1532 88.7668C66.1532 87.4659 65.3951 86.57 63.879 86.0811C63.5715 85.9867 61.7435 85.737 58.3908 85.332C55.0381 84.927 52.9539 84.5619 52.1275 84.2409C50.3422 83.5422 49.4496 82.2895 49.4496 80.4767C49.4167 79.6597 49.625 78.8509 50.0494 78.1476C50.4737 77.4444 51.0961 76.8767 51.8413 76.5131C52.6314 76.1564 53.6138 75.8773 54.7968 75.678C55.9799 75.4786 57.3487 75.38 58.9054 75.38C65.1325 75.38 68.246 77.2999 68.246 81.1397H65.3845C65.3845 78.4414 63.1956 77.0901 58.8179 77.0901C56.5906 77.0901 54.9313 77.3629 53.8358 77.9294C52.7403 78.4959 52.1915 79.3142 52.1915 80.4473C52.1915 81.5048 52.9304 82.2686 54.4081 82.7407C55.273 82.9862 57.259 83.2694 60.3704 83.5905C63.155 83.8359 65.0641 84.1843 66.102 84.6396C68.0794 85.3949 69.0917 86.6749 69.0917 88.4878L69.0938 88.4458ZM80.9158 93.2718L79.6921 93.4396L78.9276 93.4963C76.9673 93.4963 75.5536 93.2172 74.6887 92.657C73.8239 92.0967 73.4074 91.1211 73.4074 89.7194V77.6965H69.8412V75.9277H73.3861L73.4138 70.2456H76.1579V75.9277H80.9371V77.7259L76.1579 77.6965V89.3984C76.1579 90.2692 76.3715 90.8714 76.8626 91.2029C77.3538 91.5344 78.1738 91.7002 79.3825 91.7002C79.5533 91.7212 79.7455 91.7128 79.9591 91.6792C80.1726 91.6456 80.4865 91.5743 80.9094 91.4652L80.9392 93.2697L80.9158 93.2718ZM99.8937 89.2599C99.1318 89.8706 98.2636 90.3405 97.3311 90.6469C96.3702 90.9679 95.2683 91.1295 94.0211 91.1295C88.281 91.1295 85.4152 88.8214 85.4152 84.1423C85.4152 81.9748 86.1498 80.2773 87.6147 79.0519C89.0797 77.8266 91.1511 77.2139 93.8183 77.2139C96.5047 77.2139 98.5441 77.8308 99.9364 79.0666C101.329 80.3025 102.025 81.9559 102.025 84.0311C102.025 86.293 101.314 88.0178 99.8937 89.2641M104.769 75.9193H102.025L101.995 78.8925C100.786 77.686 99.9236 76.9201 99.4025 76.6012C97.865 75.7724 95.879 75.3569 93.4403 75.3569C89.8677 75.3569 87.1407 76.1585 85.2614 77.7615C83.4762 79.2303 82.5836 81.3642 82.5836 84.1549C82.5836 85.5313 82.8099 86.763 83.2605 87.8478C83.7111 88.9326 84.3709 89.8516 85.2358 90.6049C87.1214 92.1513 89.7844 92.9256 93.2267 92.9256C97.361 92.9256 100.274 91.8135 102.025 89.5684V92.6465C102.025 94.6084 101.395 96.1296 100.137 97.2039C98.8793 98.2782 96.8101 98.8195 93.9293 98.8195C91.2215 98.8195 89.2911 98.4523 88.1635 97.72C87.2987 97.1577 86.7029 96.1799 86.3783 94.7888H83.5701C83.8777 96.7297 84.7126 98.1355 86.0772 99.0021C87.6532 100.001 90.314 100.5 94.0596 100.5C101.226 100.5 104.81 97.8837 104.81 92.6486V75.8983L104.769 75.9193ZM119.61 77.6713C118.85 77.5449 118.08 77.4789 117.308 77.4741C112.798 77.4741 110.543 79.9038 110.543 84.7655V93.2172H107.831L107.801 75.9214L110.545 75.9486V79.0331H110.689C111.15 77.8161 111.878 76.8929 112.877 76.2676C113.971 75.6381 115.602 75.3548 117.772 75.3548H119.615V77.6692L119.61 77.6713ZM122.165 83.475C122.51 81.509 123.288 79.9878 124.496 78.9093C125.287 78.2861 126.177 77.8182 127.174 77.5034C128.172 77.1887 129.297 77.0355 130.544 77.0355C132.983 77.0355 134.973 77.6923 136.519 79.0079C138.065 80.3235 138.858 81.8111 138.858 83.4771H122.186M139.127 78.1413C138.123 77.1701 136.897 76.4498 135.552 76.041C134.13 75.5856 132.468 75.359 130.565 75.359C127.01 75.359 124.253 76.1711 122.293 77.793C120.332 79.4149 119.352 81.6265 119.352 84.4235C119.352 87.2204 120.292 89.4592 122.175 91.0791C124.21 92.892 127.083 93.7984 130.792 93.7984C132.27 93.7984 133.638 93.6306 134.896 93.3053C136.154 92.9801 137.254 92.508 138.196 91.91C139.848 90.7434 140.893 89.3082 141.335 87.596H138.345C137.326 90.5336 134.794 92.0317 130.743 92.0317C127.881 92.0317 125.682 91.3099 124.123 89.8621C122.799 88.6032 122.137 87.0169 122.137 85.0445H141.698C141.698 82.1112 140.843 79.8094 139.075 78.1203L139.127 78.1413Z" fill="#424147"/>
<path d="M170.421 86.1244C170.421 91.3894 166.23 94.0209 157.854 94.0209C152.833 94.0209 149.167 93.1172 146.857 91.299C144.947 89.808 144.023 87.5337 144.023 84.4784H147.42C147.42 89.3949 150.901 91.852 157.875 91.852C161.216 91.852 163.634 91.3485 165.122 90.3459C166.383 89.4572 167.033 88.0651 167.033 86.1717C167.033 84.2955 166.173 82.9808 164.453 82.2256C163.477 81.7953 161.099 81.3069 157.321 80.6872C152.566 79.9513 149.481 79.2176 148.07 78.4839C146.027 77.4017 145.004 75.5642 145.004 72.9715C145.004 70.5552 145.853 68.7543 147.611 67.5752C149.479 66.2799 152.691 65.6322 157.236 65.6322C165.451 65.6322 169.555 68.3971 169.555 73.9268H166.133C166.133 69.7849 163.082 67.715 157.004 67.715C153.948 67.715 151.71 68.1324 150.296 68.963C148.959 69.8537 148.29 71.1576 148.29 72.8832C148.29 74.6842 149.15 75.9515 150.87 76.6873C151.782 77.1133 154.478 77.7029 158.949 78.4603C163.152 79.0993 165.986 79.8438 167.44 80.698C169.446 81.7437 170.448 83.5532 170.448 86.1287L170.421 86.1244ZM197.822 88.8139C196.551 89.843 195.103 90.6243 193.551 91.1183C191.963 91.6304 190.186 91.8864 188.218 91.8864C184.185 91.8864 180.958 90.8106 178.483 88.5944C176.008 86.3783 174.768 83.48 174.768 79.8287C174.768 76.0203 175.995 73.0575 178.451 70.9317C180.907 68.8059 184.183 67.743 188.216 67.743C192.326 67.743 195.557 68.8532 197.907 71.078C199.149 72.1603 200.066 73.4448 200.66 74.8757C201.255 76.3065 201.552 77.974 201.552 79.8309C201.552 83.6177 200.308 86.6128 197.824 88.8161M199.618 90.6084C201.376 89.3518 202.675 87.8113 203.518 86.0405C204.36 84.2697 204.781 82.1675 204.781 79.8481C204.781 75.6524 203.405 72.2872 200.654 69.7354C199.183 68.3433 197.406 67.3084 195.347 66.6328C193.288 65.9571 190.889 65.6172 188.214 65.6172C183.02 65.6172 178.942 66.8931 175.98 69.4471C173.019 72.0011 171.539 75.4609 171.539 79.8309C171.539 84.0846 173.032 87.5165 175.997 90.1264C178.963 92.7363 183.066 94.0424 188.242 94.0424C190.265 94.0424 192.031 93.9025 193.54 93.6271C195.05 93.3517 196.328 92.9235 197.378 92.349L202.363 95.8497L204.443 93.9133L199.618 90.5955V90.6084ZM230.038 93.3689H206.988V66.3122L210.158 66.2541V91.1054H230.07L230.04 93.3646L230.038 93.3689Z" fill="#424147"/>
<path d="M114.167 39.8162C113.964 47.0707 114.218 54.3737 114.931 56.1494C115.643 57.925 117.171 61.3794 122.425 60.2574C126.813 59.3211 128.411 57.5096 129.102 53.5091L130.723 40.723M107.894 3.45302C107.894 3.45302 84.1127 -6.21824 85.2149 15.773C85.4268 20.4547 91.955 51.1746 99.7124 41.8955C102.548 38.5214 105.111 35.8431 105.111 35.8431M120.717 1.6879C119.869 1.94518 133.943 -3.42188 141.929 6.74918C144.748 10.3343 141.505 24.9909 133.663 36.5348" stroke="#424147" stroke-width="0.866" stroke-linecap="round" stroke-linejoin="round"/>
<path d="M133.662 36.5131C133.662 36.5131 134.171 39.0079 141.579 37.4874C144.821 36.821 142.85 39.358 139.58 40.8785C136.88 42.1227 130.826 42.4454 130.725 40.7224C130.47 36.2727 133.912 37.6266 133.662 36.5131ZM133.662 36.5131C133.438 35.5093 131.899 34.5245 130.881 32.0698C129.991 29.925 118.694 13.4864 134.018 15.9285C134.58 15.8125 130.021 1.42583 115.68 1.19174C101.34 0.95766 101.814 18.7375 101.814 18.7375" stroke="#424147" stroke-width="0.866" stroke-linecap="round" stroke-linejoin="bevel"/>
<path d="M110.153 38.0367C108.155 40.2574 108.742 40.6517 104.749 41.4678C100.707 42.2966 103.081 43.7728 104.632 44.1588C106.512 44.6269 110.863 45.2891 113.799 41.1958C114.693 39.9516 113.795 37.9608 112.565 37.4526C111.972 37.2079 111.177 36.9043 110.158 38.0367H110.153Z" stroke="#424147" stroke-width="0.866" stroke-linejoin="round"/>
<path d="M110.022 37.9993C109.821 36.6918 110.454 35.1397 111.131 33.3176C112.148 30.5887 114.522 27.8599 112.621 19.2051C111.222 12.7562 101.815 17.8617 101.811 18.7369C101.807 19.6121 102.235 23.1697 101.654 27.3137C100.891 32.7208 105.109 37.2949 109.969 36.8246" stroke="#424147" stroke-width="0.866" stroke-linecap="round" stroke-linejoin="round"/>
<path d="M107.783 18.6056C107.741 18.9051 108.334 19.7022 109.104 19.8077C109.873 19.9131 110.535 19.291 110.575 18.9937C110.615 18.6963 110.024 18.3652 109.252 18.2556C108.481 18.1459 107.822 18.3041 107.781 18.6035L107.783 18.6056Z" fill="#424147" stroke="#424147" stroke-width="0.289"/>
<path d="M131.253 17.9962C131.295 18.2957 130.702 19.0928 129.932 19.1983C129.163 19.3037 128.502 18.6816 128.459 18.3842C128.417 18.0869 129.01 17.7558 129.782 17.6504C130.553 17.5449 131.212 17.6989 131.255 17.9983L131.253 17.9962Z" fill="#424147" stroke="#424147" stroke-width="0.144"/>
<path d="M133.546 15.6172C133.634 17.989 133.19 19.6086 133.135 22.1343C133.052 25.8095 134.35 30.0124 132.395 34.2218" stroke="#424147" stroke-width="0.866" stroke-linecap="round" stroke-linejoin="round"/>
</g>
<defs>
<clipPath id="clip0_1134_6108">
<rect width="232" height="99" fill="white" transform="translate(0 0.5)"/>
</clipPath>
</defs>
</svg>
