<svg width="173" height="100" viewBox="0 0 173 100" fill="none" xmlns="http://www.w3.org/2000/svg">
<mask id="path-1-outside-1_1147_6138" maskUnits="userSpaceOnUse" x="3.62109" y="60.9883" width="102" height="26" fill="black">
<rect fill="white" x="3.62109" y="60.9883" width="102" height="26"/>
<path d="M14.8455 71.3773H6.91042V63.5169H15.2773C18.3388 63.5169 19.8711 64.8644 19.8711 67.5085C19.8711 70.0882 18.1959 71.3788 14.8471 71.3788M20.5506 63.4256C19.4637 62.4674 17.9421 61.9883 15.9856 61.9883L4.62109 62.0482V80.8532H6.91042L6.88914 72.8476H15.3457C17.4663 72.8476 19.1354 72.3685 20.353 71.4103C21.5706 70.452 22.1802 69.1195 22.1802 67.4187C22.1802 65.7178 21.636 64.3853 20.5491 63.4271L20.5506 63.4256ZM35.3674 76.9065C35.1491 77.5219 34.775 78.0723 34.2805 78.5056C33.2544 79.4937 31.6902 79.9833 29.5681 79.9833C27.6679 79.9833 26.2238 79.5042 25.1901 78.546C24.1564 77.5878 23.6623 76.3047 23.6623 74.6981C23.6623 73.8597 23.7961 73.1186 24.0621 72.4703C24.3144 71.8426 24.7109 71.2809 25.2205 70.8293C26.2724 69.8861 27.7226 69.4115 29.5681 69.4115C33.6724 69.4115 35.6988 71.1737 35.6988 74.6966C35.6988 75.5351 35.5817 76.2687 35.3492 76.9035M35.7642 69.9669C34.3687 68.7138 32.3028 68.0864 29.5666 68.0864C26.9823 68.0864 24.9833 68.7273 23.5742 70.0074C22.3018 71.1662 21.6664 72.7293 21.6664 74.6966C21.6664 76.6505 22.3231 78.2271 23.6365 79.4278C24.3616 80.0746 25.2068 80.5433 26.1706 80.8322C27.1343 81.1212 28.2684 81.2814 29.5666 81.2814C32.3028 81.2814 34.3611 80.6616 35.7991 79.4219C37.0715 78.29 37.7069 76.7209 37.7069 74.7131C37.7069 72.6919 37.0639 71.1153 35.7763 69.9819L35.7642 69.9669ZM53.0937 77.4485C53.0937 79.9938 50.7907 81.2455 46.1862 81.2455C44.7786 81.2455 43.5929 81.1556 42.6291 80.982C41.6653 80.8083 40.884 80.5133 40.282 80.1076C39.8221 79.8002 39.4428 79.3897 39.1753 78.9098C38.9017 78.4262 38.7239 77.7869 38.6433 77.0308L40.7715 77.0113C40.7715 78.007 41.147 78.7406 41.8964 79.2122C42.7021 79.7782 44.1264 80.0612 46.1725 80.0612C49.3907 80.0612 51.0005 79.2676 51.0005 77.6776C51.0005 76.7493 50.4608 76.11 49.3816 75.7612C49.1627 75.6938 47.8614 75.5156 45.4748 75.2267C43.0882 74.9377 41.6045 74.6772 41.0162 74.4481C39.7454 73.9495 39.11 73.0557 39.11 71.7621C39.0866 71.1792 39.2349 70.602 39.5369 70.1002C39.839 69.5984 40.282 69.1933 40.8125 68.9339C41.375 68.6793 42.0743 68.4802 42.9164 68.338C43.7586 68.1957 44.733 68.1254 45.8412 68.1254C50.2739 68.1254 52.4902 69.4953 52.4902 72.2352H50.4533C50.4533 70.3098 48.8951 69.3456 45.7788 69.3456C44.1933 69.3456 43.0122 69.5402 42.2323 69.9445C41.4525 70.3487 41.0618 70.9326 41.0618 71.7411C41.0618 72.4957 41.5878 73.0407 42.6397 73.3776C43.2554 73.5528 44.6691 73.7549 46.884 73.984C48.8662 74.1591 50.2252 74.4077 50.964 74.7326C52.3717 75.2716 53.0922 76.1849 53.0922 77.4785L53.0937 77.4485ZM61.5092 80.8921L60.6382 81.0119L60.094 81.0523C58.6985 81.0523 57.6921 80.8532 57.0765 80.4534C56.4608 80.0537 56.1644 79.3575 56.1644 78.3573V69.7783H53.6258V68.5161H56.1492L56.169 64.4617H58.1223V68.5161H61.5244V69.7993L58.1223 69.7783V78.1283C58.1223 78.7496 58.2744 79.1793 58.624 79.4159C58.9736 79.6524 59.5574 79.7707 60.4178 79.7707C60.5394 79.7857 60.6762 79.7797 60.8282 79.7557C60.9802 79.7318 61.2037 79.6809 61.5047 79.603L61.5259 80.8906L61.5092 80.8921ZM75.0187 78.0294C74.4763 78.4652 73.8583 78.8005 73.1945 79.0191C72.5104 79.2482 71.7261 79.3635 70.8383 79.3635C66.7522 79.3635 64.7121 77.7165 64.7121 74.3777C64.7121 72.8311 65.2351 71.6199 66.2779 70.7455C67.3207 69.8711 68.7952 69.4339 70.6939 69.4339C72.6062 69.4339 74.058 69.8741 75.0491 70.756C76.0402 71.6378 76.5358 72.8176 76.5358 74.2984C76.5358 75.9124 76.0296 77.1431 75.0187 78.0324M78.4891 68.5102H76.5358L76.5145 70.6317C75.6541 69.7708 75.04 69.2243 74.669 68.9968C73.5745 68.4054 72.1608 68.1089 70.4248 68.1089C67.8816 68.1089 65.9404 68.6808 64.6027 69.8247C63.3319 70.8728 62.6964 72.3954 62.6964 74.3867C62.6964 75.3689 62.8576 76.2478 63.1783 77.0218C63.4991 77.7959 63.9688 78.4517 64.5844 78.9892C65.9267 80.0926 67.8223 80.6451 70.2728 80.6451C73.2158 80.6451 75.2893 79.8516 76.5358 78.2495V80.446C76.5358 81.8459 76.0873 82.9313 75.192 83.6979C74.2966 84.4645 72.8236 84.8508 70.7729 84.8508C68.8454 84.8508 67.4712 84.5887 66.6686 84.0662C66.0529 83.665 65.6288 82.9673 65.3977 81.9746H63.3987C63.6176 83.3595 64.212 84.3627 65.1834 84.981C66.3052 85.6937 68.1993 86.05 70.8657 86.05C75.9672 86.05 78.518 84.183 78.518 80.4475V68.4952L78.4891 68.5102ZM89.0541 69.7603C88.5126 69.6701 87.9646 69.623 87.4154 69.6196C84.2049 69.6196 82.5996 71.3534 82.5996 74.8224V80.8532H80.669L80.6477 68.5117L82.6011 68.5311V70.732H82.703C83.0313 69.8636 83.5497 69.2049 84.2611 68.7587C85.0394 68.3095 86.2008 68.1074 87.7453 68.1074H89.0572V69.7588L89.0541 69.7603ZM90.8722 73.9016C91.1185 72.4987 91.6718 71.4133 92.5322 70.6437C93.0946 70.199 93.7285 69.8651 94.4384 69.6405C95.1483 69.416 95.9495 69.3067 96.8372 69.3067C98.5732 69.3067 99.99 69.7753 101.091 70.7141C102.191 71.6528 102.755 72.7143 102.755 73.9031H90.8874M102.947 70.0957C102.232 69.4027 101.36 68.8888 100.402 68.597C99.3895 68.2721 98.2069 68.1104 96.8524 68.1104C94.3214 68.1104 92.3589 68.6898 90.9634 69.8472C89.5679 71.0045 88.8702 72.5826 88.8702 74.5784C88.8702 76.5742 89.539 78.1717 90.8798 79.3275C92.3285 80.6211 94.3731 81.2679 97.0135 81.2679C98.0655 81.2679 99.0399 81.1481 99.9353 80.9161C100.831 80.684 101.613 80.3471 102.284 79.9204C103.46 79.088 104.204 78.0639 104.518 76.8422H102.39C101.665 78.9383 99.8623 80.0073 96.9786 80.0073C94.9416 80.0073 93.3759 79.4922 92.2662 78.4592C91.3237 77.5608 90.8524 76.4289 90.8524 75.0215H104.777C104.777 72.9284 104.169 71.286 102.91 70.0807L102.947 70.0957Z"/>
</mask>
<path d="M14.8455 71.3773H6.91042V63.5169H15.2773C18.3388 63.5169 19.8711 64.8644 19.8711 67.5085C19.8711 70.0882 18.1959 71.3788 14.8471 71.3788M20.5506 63.4256C19.4637 62.4674 17.9421 61.9883 15.9856 61.9883L4.62109 62.0482V80.8532H6.91042L6.88914 72.8476H15.3457C17.4663 72.8476 19.1354 72.3685 20.353 71.4103C21.5706 70.452 22.1802 69.1195 22.1802 67.4187C22.1802 65.7178 21.636 64.3853 20.5491 63.4271L20.5506 63.4256ZM35.3674 76.9065C35.1491 77.5219 34.775 78.0723 34.2805 78.5056C33.2544 79.4937 31.6902 79.9833 29.5681 79.9833C27.6679 79.9833 26.2238 79.5042 25.1901 78.546C24.1564 77.5878 23.6623 76.3047 23.6623 74.6981C23.6623 73.8597 23.7961 73.1186 24.0621 72.4703C24.3144 71.8426 24.7109 71.2809 25.2205 70.8293C26.2724 69.8861 27.7226 69.4115 29.5681 69.4115C33.6724 69.4115 35.6988 71.1737 35.6988 74.6966C35.6988 75.5351 35.5817 76.2687 35.3492 76.9035M35.7642 69.9669C34.3687 68.7138 32.3028 68.0864 29.5666 68.0864C26.9823 68.0864 24.9833 68.7273 23.5742 70.0074C22.3018 71.1662 21.6664 72.7293 21.6664 74.6966C21.6664 76.6505 22.3231 78.2271 23.6365 79.4278C24.3616 80.0746 25.2068 80.5433 26.1706 80.8322C27.1343 81.1212 28.2684 81.2814 29.5666 81.2814C32.3028 81.2814 34.3611 80.6616 35.7991 79.4219C37.0715 78.29 37.7069 76.7209 37.7069 74.7131C37.7069 72.6919 37.0639 71.1153 35.7763 69.9819L35.7642 69.9669ZM53.0937 77.4485C53.0937 79.9938 50.7907 81.2455 46.1862 81.2455C44.7786 81.2455 43.5929 81.1556 42.6291 80.982C41.6653 80.8083 40.884 80.5133 40.282 80.1076C39.8221 79.8002 39.4428 79.3897 39.1753 78.9098C38.9017 78.4262 38.7239 77.7869 38.6433 77.0308L40.7715 77.0113C40.7715 78.007 41.147 78.7406 41.8964 79.2122C42.7021 79.7782 44.1264 80.0612 46.1725 80.0612C49.3907 80.0612 51.0005 79.2676 51.0005 77.6776C51.0005 76.7493 50.4608 76.11 49.3816 75.7612C49.1627 75.6938 47.8614 75.5156 45.4748 75.2267C43.0882 74.9377 41.6045 74.6772 41.0162 74.4481C39.7454 73.9495 39.11 73.0557 39.11 71.7621C39.0866 71.1792 39.2349 70.602 39.5369 70.1002C39.839 69.5984 40.282 69.1933 40.8125 68.9339C41.375 68.6793 42.0743 68.4802 42.9164 68.338C43.7586 68.1957 44.733 68.1254 45.8412 68.1254C50.2739 68.1254 52.4902 69.4953 52.4902 72.2352H50.4533C50.4533 70.3098 48.8951 69.3456 45.7788 69.3456C44.1933 69.3456 43.0122 69.5402 42.2323 69.9445C41.4525 70.3487 41.0618 70.9326 41.0618 71.7411C41.0618 72.4957 41.5878 73.0407 42.6397 73.3776C43.2554 73.5528 44.6691 73.7549 46.884 73.984C48.8662 74.1591 50.2252 74.4077 50.964 74.7326C52.3717 75.2716 53.0922 76.1849 53.0922 77.4785L53.0937 77.4485ZM61.5092 80.8921L60.6382 81.0119L60.094 81.0523C58.6985 81.0523 57.6921 80.8532 57.0765 80.4534C56.4608 80.0537 56.1644 79.3575 56.1644 78.3573V69.7783H53.6258V68.5161H56.1492L56.169 64.4617H58.1223V68.5161H61.5244V69.7993L58.1223 69.7783V78.1283C58.1223 78.7496 58.2744 79.1793 58.624 79.4159C58.9736 79.6524 59.5574 79.7707 60.4178 79.7707C60.5394 79.7857 60.6762 79.7797 60.8282 79.7557C60.9802 79.7318 61.2037 79.6809 61.5047 79.603L61.5259 80.8906L61.5092 80.8921ZM75.0187 78.0294C74.4763 78.4652 73.8583 78.8005 73.1945 79.0191C72.5104 79.2482 71.7261 79.3635 70.8383 79.3635C66.7522 79.3635 64.7121 77.7165 64.7121 74.3777C64.7121 72.8311 65.2351 71.6199 66.2779 70.7455C67.3207 69.8711 68.7952 69.4339 70.6939 69.4339C72.6062 69.4339 74.058 69.8741 75.0491 70.756C76.0402 71.6378 76.5358 72.8176 76.5358 74.2984C76.5358 75.9124 76.0296 77.1431 75.0187 78.0324M78.4891 68.5102H76.5358L76.5145 70.6317C75.6541 69.7708 75.04 69.2243 74.669 68.9968C73.5745 68.4054 72.1608 68.1089 70.4248 68.1089C67.8816 68.1089 65.9404 68.6808 64.6027 69.8247C63.3319 70.8728 62.6964 72.3954 62.6964 74.3867C62.6964 75.3689 62.8576 76.2478 63.1783 77.0218C63.4991 77.7959 63.9688 78.4517 64.5844 78.9892C65.9267 80.0926 67.8223 80.6451 70.2728 80.6451C73.2158 80.6451 75.2893 79.8516 76.5358 78.2495V80.446C76.5358 81.8459 76.0873 82.9313 75.192 83.6979C74.2966 84.4645 72.8236 84.8508 70.7729 84.8508C68.8454 84.8508 67.4712 84.5887 66.6686 84.0662C66.0529 83.665 65.6288 82.9673 65.3977 81.9746H63.3987C63.6176 83.3595 64.212 84.3627 65.1834 84.981C66.3052 85.6937 68.1993 86.05 70.8657 86.05C75.9672 86.05 78.518 84.183 78.518 80.4475V68.4952L78.4891 68.5102ZM89.0541 69.7603C88.5126 69.6701 87.9646 69.623 87.4154 69.6196C84.2049 69.6196 82.5996 71.3534 82.5996 74.8224V80.8532H80.669L80.6477 68.5117L82.6011 68.5311V70.732H82.703C83.0313 69.8636 83.5497 69.2049 84.2611 68.7587C85.0394 68.3095 86.2008 68.1074 87.7453 68.1074H89.0572V69.7588L89.0541 69.7603ZM90.8722 73.9016C91.1185 72.4987 91.6718 71.4133 92.5322 70.6437C93.0946 70.199 93.7285 69.8651 94.4384 69.6405C95.1483 69.416 95.9495 69.3067 96.8372 69.3067C98.5732 69.3067 99.99 69.7753 101.091 70.7141C102.191 71.6528 102.755 72.7143 102.755 73.9031H90.8874M102.947 70.0957C102.232 69.4027 101.36 68.8888 100.402 68.597C99.3895 68.2721 98.2069 68.1104 96.8524 68.1104C94.3214 68.1104 92.3589 68.6898 90.9634 69.8472C89.5679 71.0045 88.8702 72.5826 88.8702 74.5784C88.8702 76.5742 89.539 78.1717 90.8798 79.3275C92.3285 80.6211 94.3731 81.2679 97.0135 81.2679C98.0655 81.2679 99.0399 81.1481 99.9353 80.9161C100.831 80.684 101.613 80.3471 102.284 79.9204C103.46 79.088 104.204 78.0639 104.518 76.8422H102.39C101.665 78.9383 99.8623 80.0073 96.9786 80.0073C94.9416 80.0073 93.3759 79.4922 92.2662 78.4592C91.3237 77.5608 90.8524 76.4289 90.8524 75.0215H104.777C104.777 72.9284 104.169 71.286 102.91 70.0807L102.947 70.0957Z" fill="#424147"/>
<path d="M6.91042 71.3773H6.41042V71.8773H6.91042V71.3773ZM6.91042 63.5169V63.0169H6.41042V63.5169H6.91042ZM20.5506 63.4256L20.9015 63.7818L21.2837 63.4054L20.8813 63.0506L20.5506 63.4256ZM15.9856 61.9883L15.9856 61.4883L15.983 61.4883L15.9856 61.9883ZM4.62109 62.0482L4.61846 61.5482L4.12109 61.5508V62.0482H4.62109ZM4.62109 80.8532H4.12109V81.3532H4.62109V80.8532ZM6.91042 80.8532V81.3532H7.41175L7.41042 80.8519L6.91042 80.8532ZM6.88914 72.8476V72.3476H6.38781L6.38914 72.8489L6.88914 72.8476ZM20.5491 63.4271L20.1982 63.0709L19.816 63.4474L20.2184 63.8022L20.5491 63.4271ZM34.2805 78.5056L33.951 78.1295L33.9421 78.1373L33.9337 78.1454L34.2805 78.5056ZM24.0621 72.4703L24.5247 72.6601L24.5261 72.6567L24.0621 72.4703ZM25.2205 70.8293L25.5521 71.2036L25.5543 71.2016L25.2205 70.8293ZM35.7642 69.9669L36.1522 69.6516L36.1274 69.6212L36.0982 69.5949L35.7642 69.9669ZM23.5742 70.0074L23.238 69.6373L23.2375 69.6377L23.5742 70.0074ZM23.6365 79.4278L23.2991 79.7969L23.3037 79.801L23.6365 79.4278ZM35.7991 79.4219L36.1256 79.8006L36.1315 79.7954L35.7991 79.4219ZM35.7763 69.9819L35.3883 70.2972L35.4146 70.3296L35.4459 70.3572L35.7763 69.9819ZM53.0937 77.4485H53.5937L52.5944 77.4232L53.0937 77.4485ZM40.282 80.1076L40.5615 79.693L40.5598 79.6919L40.282 80.1076ZM39.1753 78.9098L39.6121 78.6664L39.6105 78.6636L39.1753 78.9098ZM38.6433 77.0308L38.6387 76.5308L38.0877 76.5359L38.1461 77.0838L38.6433 77.0308ZM40.7715 77.0113H41.2715V76.5067L40.7669 76.5114L40.7715 77.0113ZM41.8964 79.2122L42.1838 78.8031L42.1734 78.7958L42.1627 78.7891L41.8964 79.2122ZM49.3816 75.7612L49.5353 75.2854L49.5286 75.2833L49.3816 75.7612ZM41.0162 74.4481L40.8336 74.9136L40.8348 74.914L41.0162 74.4481ZM39.11 71.7621H39.61V71.7521L39.6096 71.742L39.11 71.7621ZM40.8125 68.9339L40.6064 68.4783L40.5996 68.4814L40.5929 68.4847L40.8125 68.9339ZM52.4902 72.2352V72.7352H52.9902V72.2352H52.4902ZM50.4533 72.2352H49.9533V72.7352H50.4533V72.2352ZM42.6397 73.3776L42.4872 73.8538L42.495 73.8563L42.5029 73.8585L42.6397 73.3776ZM46.884 73.984L46.8325 74.4814L46.84 74.482L46.884 73.984ZM50.964 74.7326L50.7627 75.1903L50.7739 75.1952L50.7852 75.1995L50.964 74.7326ZM53.0922 77.4785H52.5922L53.5916 77.5038L53.0922 77.4785ZM61.5092 80.8921L61.4645 80.3941L61.4528 80.3952L61.4411 80.3968L61.5092 80.8921ZM60.6382 81.0119L60.6752 81.5105L60.6908 81.5094L60.7063 81.5072L60.6382 81.0119ZM60.094 81.0523V81.5523H60.1125L60.131 81.551L60.094 81.0523ZM56.1644 69.7783H56.6644V69.2783H56.1644V69.7783ZM53.6258 69.7783H53.1258V70.2783H53.6258V69.7783ZM53.6258 68.5161V68.0161H53.1258V68.5161H53.6258ZM56.1492 68.5161V69.0161H56.6468L56.6492 68.5186L56.1492 68.5161ZM56.169 64.4617V63.9617H55.6714L55.669 64.4592L56.169 64.4617ZM58.1223 64.4617H58.6223V63.9617H58.1223V64.4617ZM58.1223 68.5161H57.6223V69.0161H58.1223V68.5161ZM61.5244 68.5161H62.0244V68.0161H61.5244V68.5161ZM61.5244 69.7993L61.5213 70.2992L62.0244 70.3023V69.7993H61.5244ZM58.1223 69.7783L58.1254 69.2783L57.6223 69.2752V69.7783H58.1223ZM60.4178 79.7707L60.4789 79.2745L60.4484 79.2707H60.4178V79.7707ZM61.5047 79.603L62.0046 79.5948L61.9941 78.96L61.3794 79.119L61.5047 79.603ZM61.5259 80.8906L61.5707 81.3886L62.0335 81.347L62.0259 80.8824L61.5259 80.8906ZM73.1945 79.0191L73.0381 78.5442L73.0357 78.545L73.1945 79.0191ZM78.4891 68.5102V69.0102H78.6111L78.7193 68.954L78.4891 68.5102ZM76.5358 68.5102V68.0102H76.0408L76.0358 68.5051L76.5358 68.5102ZM76.5145 70.6317L76.1608 70.9852L77.0025 71.8273L77.0145 70.6367L76.5145 70.6317ZM74.669 68.9968L74.9305 68.5706L74.9188 68.5634L74.9067 68.5569L74.669 68.9968ZM64.6027 69.8247L64.9209 70.2105L64.9276 70.2047L64.6027 69.8247ZM64.5844 78.9892L64.2556 79.3658L64.2612 79.3707L64.2669 79.3754L64.5844 78.9892ZM76.5358 78.2495H77.0358V76.7927L76.1412 77.9425L76.5358 78.2495ZM66.6686 84.0662L66.3956 84.4851L66.3958 84.4852L66.6686 84.0662ZM65.3977 81.9746L65.8847 81.8613L65.7947 81.4746H65.3977V81.9746ZM63.3987 81.9746V81.4746H62.8135L62.9049 82.0527L63.3987 81.9746ZM65.1834 84.981L64.9149 85.4028L64.9153 85.4031L65.1834 84.981ZM78.518 68.4952H79.018V67.6727L78.2879 68.0513L78.518 68.4952ZM89.0541 69.7603L88.9719 70.2535L89.1304 70.2799L89.2747 70.2091L89.0541 69.7603ZM87.4154 69.6196L87.4185 69.1196H87.4154V69.6196ZM82.5996 80.8532V81.3532H83.0996V80.8532H82.5996ZM80.669 80.8532L80.169 80.8541L80.1699 81.3532H80.669V80.8532ZM80.6477 68.5117L80.6527 68.0117L80.1469 68.0066L80.1477 68.5125L80.6477 68.5117ZM82.6011 68.5311H83.1011V68.0361L82.6061 68.0311L82.6011 68.5311ZM82.6011 70.732H82.1011V71.232H82.6011V70.732ZM82.703 70.732V71.232H83.0485L83.1707 70.9089L82.703 70.732ZM84.2611 68.7587L84.0112 68.3256L84.0032 68.3302L83.9955 68.3351L84.2611 68.7587ZM89.0572 68.1074H89.5572V67.6074H89.0572V68.1074ZM89.0572 69.7588L89.2777 70.2076L89.5572 70.0702V69.7588H89.0572ZM92.5322 70.6437L92.2221 70.2515L92.2102 70.2609L92.1988 70.271L92.5322 70.6437ZM102.755 73.9031V74.4031H103.255V73.9031H102.755ZM102.947 70.0957L102.757 70.5583L103.295 69.7369L102.947 70.0957ZM100.402 68.597L100.249 69.0731L100.256 69.0753L100.402 68.597ZM90.8798 79.3275L91.2129 78.9545L91.2063 78.9488L90.8798 79.3275ZM102.284 79.9204L102.552 80.3422L102.563 80.3357L102.573 80.3286L102.284 79.9204ZM104.518 76.8422L105.003 76.9669L105.164 76.3422H104.518V76.8422ZM102.39 76.8422V76.3422H102.034L101.918 76.6787L102.39 76.8422ZM92.2662 78.4592L91.9212 78.8211L91.9255 78.8251L92.2662 78.4592ZM90.8524 75.0215V74.5215H90.3524V75.0215H90.8524ZM104.777 75.0215V75.5215H105.277V75.0215H104.777ZM102.91 70.0807L103.1 69.6182L102.564 70.4419L102.91 70.0807ZM14.8455 70.8773H6.91042V71.8773H14.8455V70.8773ZM7.41042 71.3773V63.5169H6.41042V71.3773H7.41042ZM6.91042 64.0169H15.2773V63.0169H6.91042V64.0169ZM15.2773 64.0169C16.7454 64.0169 17.755 64.3414 18.3938 64.8981C19.0197 65.4436 19.3711 66.2842 19.3711 67.5085H20.3711C20.3711 66.0887 19.9564 64.9335 19.0508 64.1443C18.1581 63.3662 16.8707 63.0169 15.2773 63.0169V64.0169ZM19.3711 67.5085C19.3711 68.6812 18.9971 69.4855 18.3098 70.015C17.5978 70.5635 16.4712 70.8788 14.8471 70.8788V71.8788C16.5718 71.8788 17.9572 71.5489 18.9201 70.8071C19.9076 70.0464 20.3711 68.9155 20.3711 67.5085H19.3711ZM20.8813 63.0506C19.6752 61.9873 18.0208 61.4883 15.9856 61.4883V62.4883C17.8634 62.4883 19.2522 62.9475 20.22 63.8007L20.8813 63.0506ZM15.983 61.4883L4.61846 61.5482L4.62373 62.5482L15.9883 62.4883L15.983 61.4883ZM4.12109 62.0482V80.8532H5.12109V62.0482H4.12109ZM4.62109 81.3532H6.91042V80.3532H4.62109V81.3532ZM7.41042 80.8519L7.38914 72.8463L6.38914 72.8489L6.41042 80.8545L7.41042 80.8519ZM6.88914 73.3476H15.3457V72.3476H6.88914V73.3476ZM15.3457 73.3476C17.5375 73.3476 19.3289 72.8524 20.6622 71.8032L20.0438 71.0173C18.9418 71.8845 17.395 72.3476 15.3457 72.3476V73.3476ZM20.6622 71.8032C22.0133 70.74 22.6802 69.2555 22.6802 67.4187H21.6802C21.6802 68.9835 21.128 70.1641 20.0438 71.0173L20.6622 71.8032ZM22.6802 67.4187C22.6802 65.6019 22.0934 64.122 20.8798 63.0521L20.2184 63.8022C21.1786 64.6486 21.6802 65.8338 21.6802 67.4187H22.6802ZM20.9 63.7833L20.9015 63.7818L20.1998 63.0694L20.1982 63.0709L20.9 63.7833ZM34.8962 76.7393C34.7066 77.2735 34.3816 77.7522 33.951 78.1295L34.61 78.8816C35.1683 78.3924 35.5915 77.7703 35.8386 77.0737L34.8962 76.7393ZM33.9337 78.1454C33.0378 79.0081 31.6236 79.4833 29.5681 79.4833V80.4833C31.7568 80.4833 33.471 79.9793 34.6273 78.8657L33.9337 78.1454ZM29.5681 79.4833C27.7512 79.4833 26.444 79.0266 25.53 78.1793L24.8502 78.9127C26.0035 79.9818 27.5846 80.4833 29.5681 80.4833V79.4833ZM25.53 78.1793C24.6169 77.3329 24.1623 76.193 24.1623 74.6981H23.1623C23.1623 76.4164 23.6959 77.8426 24.8502 78.9127L25.53 78.1793ZM24.1623 74.6981C24.1623 73.9128 24.2876 73.238 24.5247 72.6601L23.5996 72.2805C23.3047 72.9992 23.1623 73.8066 23.1623 74.6981H24.1623ZM24.5261 72.6567C24.7492 72.1015 25.1002 71.604 25.5521 71.2036L24.8889 70.4551C24.3216 70.9578 23.8796 71.5836 23.5982 72.2838L24.5261 72.6567ZM25.5543 71.2016C26.4897 70.3629 27.8078 69.9115 29.5681 69.9115V68.9115C27.6374 68.9115 26.0552 69.4093 24.8867 70.4571L25.5543 71.2016ZM29.5681 69.9115C31.5603 69.9115 32.9539 70.3408 33.8457 71.1113C34.7234 71.8696 35.1988 73.032 35.1988 74.6966H36.1988C36.1988 72.8383 35.661 71.3582 34.4995 70.3546C33.352 69.3633 31.6802 68.9115 29.5681 68.9115V69.9115ZM35.1988 74.6966C35.1988 75.4894 35.088 76.1628 34.8797 76.7315L35.8186 77.0755C36.0754 76.3747 36.1988 75.5808 36.1988 74.6966H35.1988ZM36.0982 69.5949C34.5767 68.2286 32.3706 67.5864 29.5666 67.5864V68.5864C32.235 68.5864 34.1606 69.199 35.4301 70.339L36.0982 69.5949ZM29.5666 67.5864C26.903 67.5864 24.7678 68.2476 23.238 69.6373L23.9104 70.3775C25.1989 69.2069 27.0617 68.5864 29.5666 68.5864V67.5864ZM23.2375 69.6377C21.8456 70.9054 21.1664 72.611 21.1664 74.6966H22.1664C22.1664 72.8476 22.758 71.427 23.9109 70.377L23.2375 69.6377ZM21.1664 74.6966C21.1664 76.7756 21.8714 78.4915 23.2991 79.7969L23.9739 79.0588C22.7748 77.9626 22.1664 76.5254 22.1664 74.6966H21.1664ZM23.3037 79.801C24.0852 80.4981 24.9956 81.0019 26.027 81.3112L26.3142 80.3533C25.418 80.0846 24.638 79.6512 23.9693 79.0547L23.3037 79.801ZM26.027 81.3112C27.0447 81.6163 28.2281 81.7814 29.5666 81.7814V80.7814C28.3086 80.7814 27.224 80.6261 26.3142 80.3533L26.027 81.3112ZM29.5666 81.7814C32.3723 81.7814 34.5648 81.1461 36.1256 79.8006L35.4727 79.0432C34.1574 80.177 32.2333 80.7814 29.5666 80.7814V81.7814ZM36.1315 79.7954C37.5298 78.5514 38.2069 76.8355 38.2069 74.7131H37.2069C37.2069 76.6063 36.6131 78.0285 35.4668 79.0483L36.1315 79.7954ZM38.2069 74.7131C38.2069 72.5765 37.5216 70.8521 36.1067 69.6066L35.4459 70.3572C36.6061 71.3785 37.2069 72.8073 37.2069 74.7131H38.2069ZM36.1644 69.6666L36.1522 69.6516L35.3761 70.2822L35.3883 70.2972L36.1644 69.6666ZM52.5937 77.4485C52.5937 78.007 52.4683 78.4702 52.2343 78.8566C51.9997 79.2438 51.6391 79.582 51.1263 79.863C50.0854 80.4336 48.4598 80.7455 46.1862 80.7455V81.7455C48.5171 81.7455 50.3453 81.4315 51.607 80.7399C52.2456 80.3899 52.7485 79.9379 53.0896 79.3746C53.4313 78.8105 53.5937 78.1627 53.5937 77.4485H52.5937ZM46.1862 80.7455C44.7976 80.7455 43.6433 80.6567 42.7178 80.4899L42.5404 81.474C43.5424 81.6546 44.7595 81.7455 46.1862 81.7455V80.7455ZM42.7178 80.4899C41.8023 80.3249 41.0911 80.05 40.5615 79.693L40.0025 80.5222C40.6768 80.9767 41.5284 81.2917 42.5404 81.474L42.7178 80.4899ZM40.5598 79.6919C40.1653 79.4282 39.8407 79.0766 39.6121 78.6664L38.7386 79.1532C39.0449 79.7028 39.4788 80.1722 40.0042 80.5233L40.5598 79.6919ZM39.6105 78.6636C39.3815 78.2588 39.2166 77.6922 39.1405 76.9778L38.1461 77.0838C38.2311 77.8816 38.4219 78.5936 38.7402 79.156L39.6105 78.6636ZM38.6479 77.5308L40.7761 77.5113L40.7669 76.5114L38.6387 76.5308L38.6479 77.5308ZM40.2715 77.0113C40.2715 78.1538 40.7152 79.0597 41.6301 79.6354L42.1627 78.7891C41.5787 78.4215 41.2715 77.8601 41.2715 77.0113H40.2715ZM41.609 79.6214C42.5508 80.2829 44.1139 80.5612 46.1725 80.5612V79.5612C44.139 79.5612 42.8534 79.2734 42.1838 78.8031L41.609 79.6214ZM46.1725 80.5612C47.8066 80.5612 49.1062 80.3623 50.0146 79.914C50.4758 79.6864 50.8526 79.3864 51.1131 79.0006C51.3759 78.6114 51.5005 78.1639 51.5005 77.6776H50.5005C50.5005 77.9863 50.4239 78.2343 50.2843 78.441C50.1424 78.6512 49.9156 78.8477 49.572 79.0173C48.871 79.3632 47.7566 79.5612 46.1725 79.5612V80.5612ZM51.5005 77.6776C51.5005 77.1093 51.3323 76.5993 50.9777 76.1795C50.6298 75.7675 50.1333 75.4787 49.5353 75.2854L49.2278 76.2369C49.7091 76.3925 50.022 76.5977 50.2138 76.8247C50.3989 77.0439 50.5005 77.3177 50.5005 77.6776H51.5005ZM49.5286 75.2833C49.4344 75.2543 49.2755 75.2256 49.0941 75.1963C48.8983 75.1646 48.636 75.1264 48.3089 75.0816C47.654 74.992 46.7291 74.8749 45.5349 74.7303L45.4147 75.723C46.6072 75.8674 47.5261 75.9838 48.1733 76.0724C48.4971 76.1167 48.7504 76.1537 48.9347 76.1835C49.027 76.1984 49.0994 76.211 49.1534 76.2215C49.1804 76.2268 49.201 76.2311 49.2161 76.2346C49.2323 76.2383 49.2371 76.2399 49.2345 76.239L49.5286 75.2833ZM45.5349 74.7303C44.346 74.5863 43.388 74.4502 42.6573 74.3224C41.9149 74.1926 41.4409 74.0769 41.1977 73.9822L40.8348 74.914C41.1799 75.0484 41.7418 75.1775 42.485 75.3075C43.2399 75.4395 44.217 75.578 45.4147 75.723L45.5349 74.7303ZM41.1988 73.9826C40.6317 73.7602 40.2432 73.4645 39.9942 73.1138C39.7467 72.7651 39.61 72.3242 39.61 71.7621H38.61C38.61 72.4936 38.791 73.1464 39.1788 73.6927C39.5653 74.237 40.1299 74.6375 40.8336 74.9136L41.1988 73.9826ZM39.6096 71.742C39.5901 71.2571 39.7134 70.7766 39.9653 70.3581L39.1086 69.8423C38.7563 70.4275 38.5831 71.1012 38.6104 71.7822L39.6096 71.742ZM39.9653 70.3581C40.2173 69.9395 40.5875 69.6005 41.0322 69.383L40.5929 68.4847C39.9766 68.7861 39.4608 69.2573 39.1086 69.8423L39.9653 70.3581ZM41.0187 69.3894C41.5308 69.1577 42.1858 68.9684 42.9997 68.831L42.8331 67.845C41.9627 67.992 41.2192 68.201 40.6064 68.4783L41.0187 69.3894ZM42.9997 68.831C43.8074 68.6946 44.7529 68.6254 45.8412 68.6254V67.6254C44.7131 67.6254 43.7097 67.6969 42.8331 67.845L42.9997 68.831ZM45.8412 68.6254C48.0222 68.6254 49.5736 68.9653 50.5651 69.5781C51.5169 70.1665 51.9902 71.0277 51.9902 72.2352H52.9902C52.9902 70.7028 52.3554 69.5092 51.0909 68.7275C49.8659 67.9704 48.0928 67.6254 45.8412 67.6254V68.6254ZM52.4902 71.7352H50.4533V72.7352H52.4902V71.7352ZM50.9533 72.2352C50.9533 71.11 50.483 70.2215 49.5476 69.6431C48.6518 69.0892 47.3723 68.8456 45.7788 68.8456V69.8456C47.3016 69.8456 48.3593 70.0841 49.0217 70.4936C49.6445 70.8787 49.9533 71.435 49.9533 72.2352H50.9533ZM45.7788 68.8456C44.1706 68.8456 42.8909 69.0399 42.0022 69.5006L42.4625 70.3884C43.1335 70.0405 44.216 69.8456 45.7788 69.8456V68.8456ZM42.0022 69.5006C41.5557 69.732 41.1895 70.0312 40.9365 70.417C40.6814 70.8061 40.5618 71.2523 40.5618 71.7411H41.5618C41.5618 71.4215 41.6377 71.1714 41.7728 70.9654C41.9101 70.7561 42.1291 70.5612 42.4625 70.3884L42.0022 69.5006ZM40.5618 71.7411C40.5618 72.2485 40.744 72.6977 41.0964 73.0631C41.4371 73.4164 41.9162 73.6709 42.4872 73.8538L42.7922 72.9014C42.3114 72.7474 42.0015 72.561 41.8162 72.3689C41.6427 72.189 41.5618 71.9883 41.5618 71.7411H40.5618ZM42.5029 73.8585C43.1689 74.048 44.6297 74.2535 46.8325 74.4813L46.9354 73.4866C44.7085 73.2563 43.3418 73.0575 42.7766 72.8967L42.5029 73.8585ZM46.84 74.482C48.8249 74.6574 50.1078 74.9023 50.7627 75.1903L51.1653 74.2749C50.3426 73.9131 48.9075 73.6608 46.928 73.4859L46.84 74.482ZM50.7852 75.1995C51.4298 75.4463 51.8762 75.7633 52.1614 76.1297C52.442 76.4901 52.5922 76.9307 52.5922 77.4785H53.5922C53.5922 76.7327 53.3821 76.0698 52.9505 75.5154C52.5235 74.967 51.9059 74.5578 51.1428 74.2656L50.7852 75.1995ZM53.5916 77.5038L53.5931 77.4739L52.5944 77.4232L52.5929 77.4531L53.5916 77.5038ZM61.4411 80.3968L60.5701 80.5166L60.7063 81.5072L61.5773 81.3875L61.4411 80.3968ZM60.6011 80.5133L60.0569 80.5537L60.131 81.551L60.6752 81.5105L60.6011 80.5133ZM60.094 80.5523C58.7212 80.5523 57.8381 80.3518 57.3488 80.0341L56.8042 80.8728C57.5462 81.3546 58.6758 81.5523 60.094 81.5523V80.5523ZM57.3488 80.0341C56.927 79.7602 56.6644 79.2611 56.6644 78.3573H55.6644C55.6644 79.4539 55.9946 80.3471 56.8042 80.8728L57.3488 80.0341ZM56.6644 78.3573V69.7783H55.6644V78.3573H56.6644ZM56.1644 69.2783H53.6258V70.2783H56.1644V69.2783ZM54.1258 69.7783V68.5161H53.1258V69.7783H54.1258ZM53.6258 69.0161H56.1492V68.0161H53.6258V69.0161ZM56.6492 68.5186L56.669 64.4641L55.669 64.4592L55.6492 68.5137L56.6492 68.5186ZM56.169 64.9617H58.1223V63.9617H56.169V64.9617ZM57.6223 64.4617V68.5161H58.6223V64.4617H57.6223ZM58.1223 69.0161H61.5244V68.0161H58.1223V69.0161ZM61.0244 68.5161V69.7993H62.0244V68.5161H61.0244ZM61.5275 69.2993L58.1254 69.2783L58.1193 70.2783L61.5213 70.2992L61.5275 69.2993ZM57.6223 69.7783V78.1283H58.6223V69.7783H57.6223ZM57.6223 78.1283C57.6223 78.8111 57.7883 79.4541 58.3438 79.83L58.9042 79.0018C58.7604 78.9045 58.6223 78.6882 58.6223 78.1283H57.6223ZM58.3438 79.83C58.8248 80.1554 59.5394 80.2707 60.4178 80.2707V79.2707C59.5753 79.2707 59.1225 79.1494 58.9042 79.0018L58.3438 79.83ZM60.3567 80.267C60.5377 80.2892 60.7233 80.2784 60.906 80.2496L60.7504 79.2618C60.629 79.281 60.5411 79.2821 60.4789 79.2745L60.3567 80.267ZM60.906 80.2496C61.0836 80.2217 61.3269 80.1655 61.6299 80.0871L61.3794 79.119C61.0805 79.1963 60.8768 79.2419 60.7504 79.2618L60.906 80.2496ZM61.0047 79.6113L61.026 80.8989L62.0259 80.8824L62.0046 79.5948L61.0047 79.6113ZM61.4812 80.3926L61.4645 80.3941L61.5539 81.3901L61.5707 81.3886L61.4812 80.3926ZM74.7055 77.6397C74.2101 78.0377 73.6452 78.3442 73.0381 78.5442L73.3509 79.494C74.0714 79.2567 74.7425 78.8927 75.3318 78.4192L74.7055 77.6397ZM73.0357 78.545C72.4127 78.7536 71.6836 78.8635 70.8383 78.8635V79.8635C71.7685 79.8635 72.6082 79.7427 73.3533 79.4932L73.0357 78.545ZM70.8383 78.8635C68.8492 78.8635 67.4519 78.4604 66.5581 77.7345C65.6846 77.025 65.2121 75.9405 65.2121 74.3777H64.2121C64.2121 76.1538 64.7597 77.5621 65.9277 78.5108C67.0755 79.443 68.7413 79.8635 70.8383 79.8635V78.8635ZM65.2121 74.3777C65.2121 72.9567 65.6857 71.8946 66.5991 71.1286L65.9566 70.3624C64.7845 71.3452 64.2121 72.7055 64.2121 74.3777H65.2121ZM66.5991 71.1286C67.5219 70.3549 68.8664 69.9339 70.6939 69.9339V68.9339C68.724 68.9339 67.1195 69.3873 65.9566 70.3624L66.5991 71.1286ZM70.6939 69.9339C72.5373 69.9339 73.8505 70.3588 74.7167 71.1295L75.3814 70.3824C74.2654 69.3894 72.6752 68.9339 70.6939 68.9339V69.9339ZM74.7167 71.1295C75.5883 71.905 76.0358 72.9421 76.0358 74.2984H77.0358C77.0358 72.6932 76.4922 71.3707 75.3814 70.3824L74.7167 71.1295ZM76.0358 74.2984C76.0358 75.7974 75.5716 76.8801 74.6884 77.657L75.3489 78.4078C76.4876 77.4061 77.0358 76.0274 77.0358 74.2984H76.0358ZM78.4891 68.0102H76.5358V69.0102H78.4891V68.0102ZM76.0358 68.5051L76.0145 70.6267L77.0145 70.6367L77.0357 68.5152L76.0358 68.5051ZM76.8681 70.2783C76.0139 69.4235 75.3598 68.834 74.9305 68.5706L74.4076 69.4229C74.7201 69.6147 75.2943 70.1181 76.1608 70.9852L76.8681 70.2783ZM74.9067 68.5569C73.7163 67.9136 72.2131 67.6089 70.4248 67.6089V68.6089C72.1086 68.6089 73.4328 68.8971 74.4314 69.4366L74.9067 68.5569ZM70.4248 67.6089C67.8145 67.6089 65.739 68.1952 64.2777 69.4447L64.9276 70.2047C66.1419 69.1665 67.9488 68.6089 70.4248 68.6089V67.6089ZM64.2846 69.439C62.8743 70.602 62.1964 72.2808 62.1964 74.3867H63.1964C63.1964 72.5101 63.7895 71.1435 64.9208 70.2105L64.2846 69.439ZM62.1964 74.3867C62.1964 75.4237 62.3667 76.3692 62.7164 77.2132L63.6402 76.8304C63.3485 76.1263 63.1964 75.3141 63.1964 74.3867H62.1964ZM62.7164 77.2132C63.0661 78.0571 63.5808 78.7767 64.2556 79.3658L64.9133 78.6125C64.3568 78.1266 63.9321 77.5347 63.6402 76.8304L62.7164 77.2132ZM64.2669 79.3754C65.729 80.5774 67.7531 81.1451 70.2728 81.1451V80.1451C67.8916 80.1451 66.1244 79.6079 64.902 78.6029L64.2669 79.3754ZM70.2728 81.1451C73.2977 81.1451 75.5522 80.3279 76.9304 78.5566L76.1412 77.9425C75.0263 79.3752 73.1339 80.1451 70.2728 80.1451V81.1451ZM76.0358 78.2495V80.446H77.0358V78.2495H76.0358ZM76.0358 80.446C76.0358 81.73 75.6301 82.6646 74.8668 83.3181L75.5172 84.0777C76.5445 83.1981 77.0358 81.9617 77.0358 80.446H76.0358ZM74.8668 83.3181C74.108 83.9677 72.7836 84.3508 70.7729 84.3508V85.3508C72.8636 85.3508 74.4852 84.9612 75.5172 84.0777L74.8668 83.3181ZM70.7729 84.3508C68.8613 84.3508 67.6145 84.0854 66.9414 83.6472L66.3958 84.4852C67.3279 85.0921 68.8295 85.3508 70.7729 85.3508V84.3508ZM66.9416 83.6473C66.4699 83.3399 66.0979 82.7773 65.8847 81.8613L64.9107 82.088C65.1596 83.1572 65.6359 83.99 66.3956 84.4851L66.9416 83.6473ZM65.3977 81.4746H63.3987V82.4746H65.3977V81.4746ZM62.9049 82.0527C63.1408 83.5452 63.7963 84.6908 64.9149 85.4028L65.4519 84.5592C64.6277 84.0346 64.0945 83.1739 63.8926 81.8966L62.9049 82.0527ZM64.9153 85.4031C66.1646 86.1967 68.1829 86.55 70.8657 86.55V85.55C68.2158 85.55 66.4459 85.1907 65.4515 84.559L64.9153 85.4031ZM70.8657 86.55C73.4627 86.55 75.5009 86.0775 76.9003 85.053C78.3287 84.0073 79.018 82.4418 79.018 80.4475H78.018C78.018 82.1887 77.432 83.4245 76.3096 84.2461C75.1581 85.0891 73.3702 85.55 70.8657 85.55V86.55ZM79.018 80.4475V68.4952H78.018V80.4475H79.018ZM78.2879 68.0513L78.259 68.0663L78.7193 68.954L78.7482 68.9391L78.2879 68.0513ZM89.1363 69.2671C88.5686 69.1726 87.9942 69.1232 87.4185 69.1196L87.4123 70.1196C87.935 70.1229 88.4566 70.1677 88.9719 70.2535L89.1363 69.2671ZM87.4154 69.1196C85.7228 69.1196 84.3642 69.5784 83.4366 70.5805C82.5158 71.5752 82.0996 73.02 82.0996 74.8224H83.0996C83.0996 73.1558 83.486 71.9992 84.1705 71.2598C84.8482 70.5276 85.8975 70.1196 87.4154 70.1196V69.1196ZM82.0996 74.8224V80.8532H83.0996V74.8224H82.0996ZM82.5996 80.3532H80.669V81.3532H82.5996V80.3532ZM81.169 80.8523L81.1477 68.5108L80.1477 68.5125L80.169 80.8541L81.169 80.8523ZM80.6428 69.0116L82.5961 69.0311L82.6061 68.0311L80.6527 68.0117L80.6428 69.0116ZM82.1011 68.5311V70.732H83.1011V68.5311H82.1011ZM82.6011 71.232H82.703V70.232H82.6011V71.232ZM83.1707 70.9089C83.465 70.1303 83.9183 69.5639 84.5268 69.1823L83.9955 68.3351C83.181 68.8459 82.5976 69.5969 82.2353 70.5552L83.1707 70.9089ZM84.511 69.1918C85.1727 68.8099 86.2251 68.6074 87.7453 68.6074V67.6074C86.1765 67.6074 84.9061 67.8092 84.0112 68.3256L84.511 69.1918ZM87.7453 68.6074H89.0572V67.6074H87.7453V68.6074ZM88.5572 68.1074V69.7588H89.5572V68.1074H88.5572ZM88.8366 69.3101L88.8335 69.3116L89.2747 70.2091L89.2777 70.2076L88.8366 69.3101ZM91.3647 73.9881C91.5962 72.6693 92.1068 71.695 92.8655 71.0164L92.1988 70.271C91.2368 71.1315 90.6408 72.3281 90.3797 73.8152L91.3647 73.9881ZM92.8423 71.0359C93.3555 70.6301 93.935 70.3242 94.5892 70.1173L94.2876 69.1638C93.522 69.406 92.8338 69.7679 92.2221 70.2515L92.8423 71.0359ZM94.5892 70.1173C95.2409 69.9111 95.9896 69.8067 96.8372 69.8067V68.8067C95.9093 68.8067 95.0558 68.9208 94.2876 69.1638L94.5892 70.1173ZM96.8372 69.8067C98.4792 69.8067 99.7733 70.2477 100.766 71.0945L101.415 70.3336C100.207 69.3029 98.6672 68.8067 96.8372 68.8067V69.8067ZM100.766 71.0945C101.785 71.9636 102.255 72.8958 102.255 73.9031H103.255C103.255 72.5329 102.597 71.342 101.415 70.3336L100.766 71.0945ZM102.755 73.4031H90.8874V74.4031H102.755V73.4031ZM103.295 69.7369C102.523 68.9882 101.581 68.4335 100.548 68.1187L100.256 69.0753C101.139 69.344 101.942 69.8173 102.598 70.4546L103.295 69.7369ZM100.555 68.1209C99.4814 67.7765 98.245 67.6104 96.8524 67.6104V68.6104C98.1687 68.6104 99.2977 68.7677 100.249 69.0731L100.555 68.1209ZM96.8524 67.6104C94.2503 67.6104 92.1591 68.2059 90.6442 69.4623L91.2826 70.232C92.5587 69.1737 94.3925 68.6104 96.8524 68.6104V67.6104ZM90.6442 69.4623C89.1216 70.7251 88.3702 72.4509 88.3702 74.5784H89.3702C89.3702 72.7142 90.0142 71.284 91.2826 70.232L90.6442 69.4623ZM88.3702 74.5784C88.3702 76.6967 89.0861 78.4414 90.5533 79.7062L91.2063 78.9488C89.992 77.902 89.3702 76.4516 89.3702 74.5784H88.3702ZM90.5468 79.7005C92.1156 81.1014 94.2948 81.7679 97.0135 81.7679V80.7679C94.4514 80.7679 92.5413 80.1409 91.2128 78.9546L90.5468 79.7005ZM97.0135 81.7679C98.1034 81.7679 99.1204 81.6438 100.061 81.4001L99.8098 80.4321C98.9594 80.6525 98.0275 80.7679 97.0135 80.7679V81.7679ZM100.061 81.4001C101.001 81.1563 101.833 80.7998 102.552 80.3422L102.015 79.4986C101.394 79.8944 100.66 80.2118 99.8098 80.4321L100.061 81.4001ZM102.573 80.3286C103.831 79.4381 104.654 78.3194 105.003 76.9669L104.034 76.7174C103.753 77.8084 103.09 78.7379 101.995 79.5123L102.573 80.3286ZM104.518 76.3422H102.39V77.3422H104.518V76.3422ZM101.918 76.6787C101.591 77.6222 101.033 78.3147 100.241 78.7795C99.4389 79.2502 98.3628 79.5073 96.9786 79.5073V80.5073C98.478 80.5073 99.7452 80.2299 100.747 79.642C101.759 79.0483 102.464 78.1582 102.863 77.0056L101.918 76.6787ZM96.9786 79.5073C95.024 79.5073 93.5962 79.0142 92.6068 78.0932L91.9255 78.8251C93.1555 79.9703 94.8592 80.5073 96.9786 80.5073V79.5073ZM92.6111 78.0972C91.7746 77.2999 91.3524 76.3021 91.3524 75.0215H90.3524C90.3524 76.5558 90.8727 77.8218 91.9212 78.8211L92.6111 78.0972ZM90.8524 75.5215H104.777V74.5215H90.8524V75.5215ZM105.277 75.0215C105.277 72.8256 104.635 71.0401 103.256 69.7196L102.564 70.4419C103.703 71.5319 104.277 73.0313 104.277 75.0215H105.277ZM102.72 70.5433L102.757 70.5583L103.136 69.6331L103.1 69.6182L102.72 70.5433Z" fill="#424147" mask="url(#path-1-outside-1_1147_6138)"/>
<mask id="path-3-outside-2_1147_6138" maskUnits="userSpaceOnUse" x="105.432" y="60.1602" width="63" height="24" fill="black">
<rect fill="white" x="105.432" y="60.1602" width="63" height="24"/>
<path d="M125.223 75.7932C125.223 79.5501 122.24 81.4277 116.277 81.4277C112.703 81.4277 110.093 80.7829 108.449 79.4856C107.089 78.4216 106.432 76.7988 106.432 74.6187H108.849C108.849 78.1268 111.328 79.8802 116.292 79.8802C118.67 79.8802 120.391 79.5209 121.451 78.8054C122.348 78.1714 122.811 77.178 122.811 75.8269C122.811 74.4882 122.199 73.5501 120.975 73.0112C120.28 72.7041 118.587 72.3556 115.897 71.9134C112.512 71.3884 110.317 70.8648 109.312 70.3413C107.858 69.569 107.13 68.2579 107.13 66.4078C107.13 64.6837 107.734 63.3986 108.985 62.5573C110.315 61.633 112.602 61.1709 115.837 61.1709C121.685 61.1709 124.606 63.1438 124.606 67.0895H122.17C122.17 64.1341 119.999 62.6571 115.672 62.6571C113.496 62.6571 111.903 62.9549 110.897 63.5476C109.945 64.1832 109.469 65.1136 109.469 66.3449C109.469 67.6299 110.081 68.5342 111.305 69.0593C111.955 69.3633 113.874 69.784 117.056 70.3244C120.048 70.7804 122.066 71.3116 123.101 71.9211C124.529 72.6673 125.242 73.9585 125.242 75.7962L125.223 75.7932ZM144.728 77.7123C143.824 78.4466 142.793 79.0041 141.688 79.3566C140.558 79.722 139.293 79.9047 137.892 79.9047C135.021 79.9047 132.724 79.1371 130.962 77.5557C129.2 75.9743 128.317 73.9063 128.317 71.3009C128.317 68.5834 129.191 66.4692 130.939 64.9524C132.688 63.4355 135.019 62.677 137.89 62.677C140.816 62.677 143.116 63.4693 144.789 65.0568C145.673 65.829 146.326 66.7456 146.749 67.7666C147.172 68.7876 147.383 69.9774 147.383 71.3024C147.383 74.0045 146.498 76.1417 144.73 77.7138M146.007 78.9927C147.258 78.0961 148.183 76.9968 148.783 75.7333C149.383 74.4697 149.682 72.9697 149.682 71.3147C149.682 68.3208 148.703 65.9196 146.744 64.0987C145.697 63.1054 144.432 62.3669 142.966 61.8848C141.501 61.4027 139.793 61.1602 137.889 61.1602C134.191 61.1602 131.288 62.0706 129.18 63.893C127.072 65.7154 126.019 68.1842 126.019 71.3024C126.019 74.3377 127.081 76.7865 129.192 78.6488C131.303 80.5112 134.224 81.4431 137.909 81.4431C139.349 81.4431 140.606 81.3433 141.68 81.1468C142.755 80.9503 143.664 80.6447 144.412 80.2348L147.961 82.7328L149.442 81.351L146.007 78.9835V78.9927ZM167.661 80.9625H151.253V61.6561L153.51 61.6146V79.3474H167.684L167.663 80.9595L167.661 80.9625Z"/>
</mask>
<path d="M125.223 75.7932C125.223 79.5501 122.24 81.4277 116.277 81.4277C112.703 81.4277 110.093 80.7829 108.449 79.4856C107.089 78.4216 106.432 76.7988 106.432 74.6187H108.849C108.849 78.1268 111.328 79.8802 116.292 79.8802C118.67 79.8802 120.391 79.5209 121.451 78.8054C122.348 78.1714 122.811 77.178 122.811 75.8269C122.811 74.4882 122.199 73.5501 120.975 73.0112C120.28 72.7041 118.587 72.3556 115.897 71.9134C112.512 71.3884 110.317 70.8648 109.312 70.3413C107.858 69.569 107.13 68.2579 107.13 66.4078C107.13 64.6837 107.734 63.3986 108.985 62.5573C110.315 61.633 112.602 61.1709 115.837 61.1709C121.685 61.1709 124.606 63.1438 124.606 67.0895H122.17C122.17 64.1341 119.999 62.6571 115.672 62.6571C113.496 62.6571 111.903 62.9549 110.897 63.5476C109.945 64.1832 109.469 65.1136 109.469 66.3449C109.469 67.6299 110.081 68.5342 111.305 69.0593C111.955 69.3633 113.874 69.784 117.056 70.3244C120.048 70.7804 122.066 71.3116 123.101 71.9211C124.529 72.6673 125.242 73.9585 125.242 75.7962L125.223 75.7932ZM144.728 77.7123C143.824 78.4466 142.793 79.0041 141.688 79.3566C140.558 79.722 139.293 79.9047 137.892 79.9047C135.021 79.9047 132.724 79.1371 130.962 77.5557C129.2 75.9743 128.317 73.9063 128.317 71.3009C128.317 68.5834 129.191 66.4692 130.939 64.9524C132.688 63.4355 135.019 62.677 137.89 62.677C140.816 62.677 143.116 63.4693 144.789 65.0568C145.673 65.829 146.326 66.7456 146.749 67.7666C147.172 68.7876 147.383 69.9774 147.383 71.3024C147.383 74.0045 146.498 76.1417 144.73 77.7138M146.007 78.9927C147.258 78.0961 148.183 76.9968 148.783 75.7333C149.383 74.4697 149.682 72.9697 149.682 71.3147C149.682 68.3208 148.703 65.9196 146.744 64.0987C145.697 63.1054 144.432 62.3669 142.966 61.8848C141.501 61.4027 139.793 61.1602 137.889 61.1602C134.191 61.1602 131.288 62.0706 129.18 63.893C127.072 65.7154 126.019 68.1842 126.019 71.3024C126.019 74.3377 127.081 76.7865 129.192 78.6488C131.303 80.5112 134.224 81.4431 137.909 81.4431C139.349 81.4431 140.606 81.3433 141.68 81.1468C142.755 80.9503 143.664 80.6447 144.412 80.2348L147.961 82.7328L149.442 81.351L146.007 78.9835V78.9927ZM167.661 80.9625H151.253V61.6561L153.51 61.6146V79.3474H167.684L167.663 80.9595L167.661 80.9625Z" fill="#424147"/>
<path d="M125.223 75.7932L125.3 75.2992L124.723 75.209V75.7932H125.223ZM108.449 79.4856L108.759 79.0931L108.757 79.0918L108.449 79.4856ZM106.432 74.6187V74.1187H105.932V74.6187H106.432ZM108.849 74.6187H109.349V74.1187H108.849V74.6187ZM121.451 78.8054L121.731 79.2199L121.739 79.2138L121.451 78.8054ZM120.975 73.0112L120.773 73.4686L120.773 73.4688L120.975 73.0112ZM115.897 71.9134L115.978 71.4201L115.974 71.4194L115.897 71.9134ZM109.312 70.3413L109.077 70.7829L109.081 70.7847L109.312 70.3413ZM108.985 62.5573L109.264 62.9723L109.271 62.9679L108.985 62.5573ZM124.606 67.0895V67.5895H125.106V67.0895H124.606ZM122.17 67.0895H121.67V67.5895H122.17V67.0895ZM110.897 63.5476L110.643 63.1167L110.631 63.1239L110.619 63.1317L110.897 63.5476ZM111.305 69.0593L111.517 68.6064L111.51 68.603L111.502 68.5998L111.305 69.0593ZM117.056 70.3244L116.973 70.8174L116.981 70.8187L117.056 70.3244ZM123.101 71.9211L122.847 72.352L122.858 72.3584L122.869 72.3643L123.101 71.9211ZM125.242 75.7962L125.165 76.2902L125.742 76.3804V75.7962H125.242ZM141.688 79.3566L141.536 78.8803L141.534 78.8809L141.688 79.3566ZM144.789 65.0568L144.445 65.4194L144.452 65.4265L144.46 65.4333L144.789 65.0568ZM146.007 78.9927H145.507V79.9662L146.298 79.3992L146.007 78.9927ZM146.744 64.0987L146.4 64.4615L146.404 64.4649L146.744 64.0987ZM144.412 80.2348L144.7 79.826L144.445 79.6466L144.172 79.7963L144.412 80.2348ZM147.961 82.7328L147.673 83.1416L148.005 83.3754L148.302 83.0983L147.961 82.7328ZM149.442 81.351L149.783 81.7166L150.237 81.2923L149.725 80.9393L149.442 81.351ZM146.007 78.9835L146.29 78.5719L145.507 78.0317V78.9835H146.007ZM167.661 80.9625V81.4625H167.973L168.11 81.183L167.661 80.9625ZM151.253 80.9625H150.753V81.4625H151.253V80.9625ZM151.253 61.6561L151.244 61.1561L150.753 61.1652V61.6561H151.253ZM153.51 61.6146H154.01V61.1053L153.5 61.1147L153.51 61.6146ZM153.51 79.3474H153.01V79.8474H153.51V79.3474ZM167.684 79.3474L168.184 79.354L168.191 78.8474H167.684V79.3474ZM167.663 80.9595L168.112 81.1799L168.161 81.0787L168.163 80.966L167.663 80.9595ZM124.723 75.7932C124.723 77.5134 124.054 78.7557 122.719 79.5962C121.346 80.4611 119.222 80.9277 116.277 80.9277V81.9277C119.294 81.9277 121.643 81.4555 123.252 80.4424C124.9 79.4048 125.723 77.8298 125.723 75.7932H124.723ZM116.277 80.9277C112.743 80.9277 110.271 80.2862 108.759 79.0931L108.139 79.8781C109.915 81.2796 112.663 81.9277 116.277 81.9277V80.9277ZM108.757 79.0918C107.552 78.1493 106.932 76.6943 106.932 74.6187H105.932C105.932 76.9033 106.626 78.6939 108.141 79.8794L108.757 79.0918ZM106.432 75.1187H108.849V74.1187H106.432V75.1187ZM108.349 74.6187C108.349 76.506 109.026 77.9871 110.42 78.9732C111.783 79.9369 113.766 80.3802 116.292 80.3802V79.3802C113.853 79.3802 112.115 78.9468 110.998 78.1567C109.912 77.3892 109.349 76.2395 109.349 74.6187H108.349ZM116.292 80.3802C118.697 80.3802 120.544 80.0214 121.731 79.2198L121.171 78.3911C120.239 79.0204 118.644 79.3802 116.292 79.3802V80.3802ZM121.739 79.2138C122.797 78.4663 123.311 77.303 123.311 75.8269H122.311C122.311 77.0531 121.899 77.8764 121.162 78.3971L121.739 79.2138ZM123.311 75.8269C123.311 75.0797 123.139 74.4111 122.771 73.846C122.402 73.2808 121.86 72.8544 121.176 72.5536L120.773 73.4688C121.314 73.7069 121.69 74.0189 121.933 74.3922C122.176 74.7655 122.311 75.2354 122.311 75.8269H123.311ZM121.177 72.5538C120.777 72.3773 120.135 72.2047 119.289 72.024C118.431 71.8408 117.326 71.6416 115.978 71.4201L115.816 72.4068C117.158 72.6275 118.245 72.8236 119.08 73.002C119.926 73.1828 120.477 73.338 120.773 73.4686L121.177 72.5538ZM115.974 71.4194C114.289 71.1579 112.908 70.8982 111.828 70.6405C110.739 70.3806 109.989 70.13 109.543 69.8979L109.081 70.7847C109.64 71.0761 110.49 71.3491 111.596 71.6131C112.712 71.8794 114.121 72.1439 115.821 72.4075L115.974 71.4194ZM109.546 69.8997C108.896 69.5543 108.425 69.099 108.113 68.5361C107.799 67.9702 107.63 67.2675 107.63 66.4078H106.63C106.63 67.3982 106.825 68.2762 107.238 69.0214C107.654 69.7697 108.274 70.356 109.077 70.7829L109.546 69.8997ZM107.63 66.4078C107.63 64.8166 108.177 63.7034 109.264 62.9722L108.706 62.1424C107.291 63.0939 106.63 64.5507 106.63 66.4078H107.63ZM109.271 62.9679C110.467 62.1364 112.619 61.6709 115.837 61.6709V60.6709C112.584 60.6709 110.163 61.1297 108.7 62.1467L109.271 62.9679ZM115.837 61.6709C118.72 61.6709 120.794 62.1601 122.135 63.065C123.44 63.9462 124.106 65.2596 124.106 67.0895H125.106C125.106 64.9737 124.311 63.3278 122.694 62.2361C121.112 61.1681 118.802 60.6709 115.837 60.6709V61.6709ZM124.606 66.5895H122.17V67.5895H124.606V66.5895ZM122.67 67.0895C122.67 65.4706 122.064 64.1965 120.825 63.3519C119.62 62.5306 117.877 62.1571 115.672 62.1571V63.1571C117.794 63.1571 119.299 63.5221 120.262 64.1781C121.19 64.8109 121.67 65.753 121.67 67.0895H122.67ZM115.672 62.1571C113.472 62.1571 111.768 62.4545 110.643 63.1167L111.151 63.9784C112.039 63.4554 113.521 63.1571 115.672 63.1571V62.1571ZM110.619 63.1317C109.517 63.8679 108.969 64.961 108.969 66.3449H109.969C109.969 65.2661 110.373 64.4985 111.175 63.9634L110.619 63.1317ZM108.969 66.3449C108.969 67.0693 109.143 67.7184 109.514 68.2673C109.884 68.8148 110.427 69.2269 111.108 69.5188L111.502 68.5998C110.959 68.3667 110.584 68.064 110.342 67.7069C110.101 67.3511 109.969 66.9056 109.969 66.3449H108.969ZM111.093 69.5122C111.476 69.6911 112.171 69.8821 113.124 70.0915C114.094 70.3047 115.378 70.5465 116.973 70.8173L117.14 69.8315C115.552 69.5618 114.286 69.3231 113.338 69.1148C112.374 68.9029 111.784 68.7315 111.517 68.6064L111.093 69.5122ZM116.981 70.8187C119.978 71.2755 121.905 71.7973 122.847 72.352L123.355 71.4903C122.226 70.8259 120.119 70.2853 117.132 69.8301L116.981 70.8187ZM122.869 72.3643C123.505 72.6963 123.964 73.1391 124.269 73.6911C124.576 74.2468 124.742 74.9414 124.742 75.7962H125.742C125.742 74.8133 125.551 73.9434 125.145 73.2075C124.736 72.468 124.125 71.8921 123.333 71.478L122.869 72.3643ZM125.319 75.3022L125.3 75.2992L125.145 76.2872L125.165 76.2902L125.319 75.3022ZM144.413 77.3241C143.557 78.0193 142.581 78.5468 141.536 78.8803L141.84 79.833C143.004 79.4614 144.09 78.8739 145.043 78.1005L144.413 77.3241ZM141.534 78.8809C140.461 79.2276 139.25 79.4047 137.892 79.4047V80.4047C139.336 80.4047 140.654 80.2164 141.842 79.8324L141.534 78.8809ZM137.892 79.4047C135.114 79.4047 132.946 78.6646 131.296 77.1836L130.628 77.9278C132.502 79.6096 134.928 80.4047 137.892 80.4047V79.4047ZM131.296 77.1836C129.65 75.7061 128.817 73.7784 128.817 71.3009H127.817C127.817 74.0342 128.75 76.2426 130.628 77.9278L131.296 77.1836ZM128.817 71.3009C128.817 68.7006 129.647 66.7352 131.267 65.33L130.612 64.5747C128.734 66.2033 127.817 68.4662 127.817 71.3009H128.817ZM131.267 65.33C132.903 63.9103 135.109 63.177 137.89 63.177V62.177C134.93 62.177 132.472 62.9607 130.612 64.5747L131.267 65.33ZM137.89 63.177C140.724 63.177 142.888 63.9422 144.445 65.4194L145.133 64.6941C143.344 62.9963 140.908 62.177 137.89 62.177V63.177ZM144.46 65.4333C145.287 66.1556 145.894 67.0091 146.287 67.958L147.211 67.5752C146.758 66.4821 146.059 65.5024 145.118 64.6802L144.46 65.4333ZM146.287 67.958C146.68 68.9068 146.883 70.0294 146.883 71.3024H147.883C147.883 69.9255 147.664 68.6683 147.211 67.5752L146.287 67.958ZM146.883 71.3024C146.883 73.884 146.043 75.8768 144.398 77.3402L145.062 78.0875C146.952 76.4066 147.883 74.1251 147.883 71.3024H146.883ZM146.298 79.3992C147.614 78.4564 148.596 77.2926 149.234 75.9477L148.331 75.5188C147.77 76.7011 146.902 77.7359 145.715 78.5863L146.298 79.3992ZM149.234 75.9477C149.872 74.6043 150.182 73.0283 150.182 71.3147H149.182C149.182 72.9112 148.893 74.3351 148.331 75.5188L149.234 75.9477ZM150.182 71.3147C150.182 68.1999 149.157 65.6596 147.085 63.7326L146.404 64.4649C148.248 66.1796 149.182 68.4417 149.182 71.3147H150.182ZM147.088 63.736C145.983 62.6878 144.653 61.9131 143.123 61.4099L142.81 62.3598C144.212 62.8207 145.411 63.523 146.4 64.4615L147.088 63.736ZM143.123 61.4099C141.596 60.9077 139.834 60.6602 137.889 60.6602V61.6602C139.752 61.6602 141.405 61.8977 142.81 62.3598L143.123 61.4099ZM137.889 60.6602C134.111 60.6602 131.078 61.5912 128.853 63.5148L129.507 64.2713C131.498 62.55 134.271 61.6602 137.889 61.6602V60.6602ZM128.853 63.5148C126.622 65.4441 125.519 68.0583 125.519 71.3024H126.519C126.519 68.31 127.523 65.9867 129.507 64.2713L128.853 63.5148ZM125.519 71.3024C125.519 74.4694 126.634 77.059 128.862 79.0238L129.523 78.2739C127.528 76.514 126.519 74.206 126.519 71.3024H125.519ZM128.862 79.0238C131.09 80.9893 134.142 81.9431 137.909 81.9431V80.9431C134.307 80.9431 131.517 80.033 129.523 78.2739L128.862 79.0238ZM137.909 81.9431C139.37 81.9431 140.659 81.8419 141.77 81.6386L141.59 80.6549C140.553 80.8447 139.327 80.9431 137.909 80.9431V81.9431ZM141.77 81.6386C142.884 81.4349 143.848 81.1146 144.653 80.6733L144.172 79.7963C143.481 80.1749 142.625 80.4657 141.59 80.6549L141.77 81.6386ZM144.125 80.6437L147.673 83.1416L148.248 82.3239L144.7 79.826L144.125 80.6437ZM148.302 83.0983L149.783 81.7166L149.1 80.9854L147.62 82.3672L148.302 83.0983ZM149.725 80.9393L146.29 78.5719L145.723 79.3952L149.158 81.7627L149.725 80.9393ZM145.507 78.9835V78.9927H146.507V78.9835H145.507ZM167.661 80.4625H151.253V81.4625H167.661V80.4625ZM151.753 80.9625V61.6561H150.753V80.9625H151.753ZM151.263 62.156L153.519 62.1145L153.5 61.1147L151.244 61.1561L151.263 62.156ZM153.01 61.6146V79.3474H154.01V61.6146H153.01ZM153.51 79.8474H167.684V78.8474H153.51V79.8474ZM167.184 79.3408L167.163 80.9529L168.163 80.966L168.184 79.354L167.184 79.3408ZM167.214 80.739L167.212 80.7421L168.11 81.183L168.112 81.1799L167.214 80.739Z" fill="#424147" mask="url(#path-3-outside-2_1147_6138)"/>
<path d="M85.1774 42.7515C85.0326 47.928 85.2136 53.1391 85.7206 54.4062C86.2275 55.6732 87.3154 58.138 91.0556 57.3375C94.1788 56.6694 95.3164 55.3768 95.8083 52.5222L96.9625 43.3986M80.7114 16.8044C80.7114 16.8044 63.7829 9.90343 64.5675 25.5954C64.7183 28.936 69.3654 50.8564 74.8875 44.2353C76.9063 41.8276 78.7304 39.9165 78.7304 39.9165M89.8395 15.5449C89.236 15.7285 99.2543 11.8988 104.939 19.1564C106.946 21.7145 104.638 32.1729 99.0552 40.4101" stroke="#424147" stroke-linecap="round" stroke-linejoin="round"/>
<path d="M99.055 40.3949C99.055 40.3949 99.4172 42.175 104.69 41.0901C106.999 40.6146 105.596 42.4248 103.268 43.5098C101.345 44.3976 97.0363 44.6278 96.9639 43.3984C96.7828 40.2233 99.2331 41.1894 99.055 40.3949ZM99.055 40.3949C98.8951 39.6786 97.7997 38.9758 97.0755 37.2243C96.4418 35.6939 88.4 23.964 99.3085 25.7066C99.7083 25.6238 96.463 15.3581 86.2546 15.1911C76.0461 15.0241 76.3841 27.711 76.3841 27.711" stroke="#424147" stroke-linecap="round" stroke-linejoin="bevel"/>
<path d="M82.3192 41.4793C80.8964 43.0639 81.3143 43.3453 78.4718 43.9276C75.5946 44.519 77.2844 45.5723 78.3888 45.8477C79.7271 46.1818 82.8246 46.6543 84.9143 43.7335C85.551 42.8457 84.9113 41.4251 84.0362 41.0625C83.6137 40.8879 83.0479 40.6712 82.3222 41.4793H82.3192Z" stroke="#424147" stroke-linejoin="round"/>
<path d="M82.2256 41.4533C82.0823 40.5203 82.5334 39.4128 83.0147 38.1126C83.7389 36.1654 85.4288 34.2182 84.0754 28.0426C83.0796 23.4409 76.3836 27.084 76.3806 27.7085C76.3776 28.333 76.6824 30.8716 76.2689 33.8285C75.7258 37.6868 78.7283 40.9507 82.1879 40.6151" stroke="#424147" stroke-linecap="round" stroke-linejoin="round"/>
<path d="M80.6363 27.6145C80.6061 27.8282 81.0286 28.397 81.5763 28.4722C82.1239 28.5475 82.5947 28.1036 82.6233 27.8914C82.652 27.6792 82.2311 27.443 81.6819 27.3647C81.1327 27.2865 80.6634 27.3993 80.6348 27.613L80.6363 27.6145Z" fill="#424147" stroke="#424147" stroke-width="0.289"/>
<path d="M97.3436 27.1806C97.3738 27.3943 96.9513 27.9631 96.4036 28.0383C95.856 28.1136 95.3852 27.6697 95.355 27.4575C95.3249 27.2453 95.7473 27.0091 96.2965 26.9338C96.8457 26.8586 97.3149 26.9684 97.3451 27.1821L97.3436 27.1806Z" fill="#424147" stroke="#424147" stroke-width="0.144"/>
<path d="M98.9737 25.4824C99.037 27.1748 98.7206 28.3305 98.6816 30.1327C98.6225 32.7552 99.5463 35.7542 98.1543 38.7579" stroke="#424147" stroke-width="0.866" stroke-linecap="round" stroke-linejoin="round"/>
</svg>
