<svg width="655" height="100" viewBox="0 0 655 100" fill="none" xmlns="http://www.w3.org/2000/svg">
<path d="M118.153 41.767C119.226 41.767 120.256 42.1919 121.016 42.9487C121.777 43.7055 122.207 44.7327 122.212 45.8056V88.0714C122.212 90.2969 120.412 92.1133 118.173 92.1133H46.1103C45.0383 92.1133 44.0102 91.6874 43.2522 90.9294C42.4942 90.1714 42.0684 89.1433 42.0684 88.0714V11.4208C42.0684 9.19861 43.8681 7.38223 46.1136 7.38223H54.8728C57.0951 7.38223 58.9114 9.17865 58.9114 11.4208V37.9646C58.9709 38.911 59.357 39.8073 60.0037 40.5008C60.6504 41.1943 61.5178 41.6418 62.4577 41.767H69.0113C70.9973 41.584 72.6507 39.9673 72.7605 37.9646V11.4175C72.7605 9.19528 74.5569 7.37891 76.7991 7.37891H85.5583C87.7806 7.37891 89.6003 9.17532 89.6003 11.4175V37.6851C89.6003 39.761 91.1239 41.5242 93.1266 41.7637H118.157L118.153 41.767ZM106.62 70.7526V62.4824C106.62 60.2601 104.823 58.4404 102.581 58.4404H93.8185C91.5963 58.4404 89.7766 60.2402 89.7766 62.4824V70.7492C89.7766 72.9715 91.5763 74.7878 93.8185 74.7878H102.578C104.8 74.7878 106.616 72.9914 106.616 70.7492L106.62 70.7526ZM180.539 92.1898L176.351 72.6421C175.833 70.0239 175.171 67.4363 174.368 64.8909C173.653 62.6321 172.638 60.7392 171.374 59.1989C170.09 57.6553 168.416 56.4976 166.341 55.6893C164.268 54.9008 161.55 54.495 158.19 54.495H149.391V92.1865H139.807V7.52861H160.778C164.248 7.52861 167.608 7.89454 170.878 8.60979C174.128 9.32835 177.013 10.5226 179.511 12.176C182.023 13.8527 184.09 16.1157 185.532 18.7695C187.056 21.5074 187.811 24.8674 187.811 28.8727C187.811 31.9399 187.445 34.6579 186.727 36.9899C186.073 39.2043 184.972 41.2615 183.493 43.0345C182.063 44.7244 180.263 46.1549 178.134 47.3126C176.005 48.4703 173.486 49.4084 170.622 50.1237V50.3632C173.413 51.0784 175.652 51.9966 177.325 53.0811C178.995 54.1823 180.336 55.4863 181.347 57.0133C182.339 58.5369 183.11 60.2801 183.659 62.2462C184.212 64.2123 184.724 66.4711 185.24 68.9894L190.123 92.1865L180.539 92.1898ZM178.207 29.8807C178.207 26.3744 177.582 23.6365 176.351 21.707C175.172 19.8297 173.467 18.3416 171.447 17.4289C169.408 16.5107 167.096 15.9585 164.504 15.7755C161.853 15.5896 159.195 15.4975 156.537 15.4994H149.408V46.5408H154.677C157.561 46.5408 160.389 46.3412 163.217 45.9187C165.855 45.5539 168.409 44.7321 170.765 43.4902C172.979 42.3049 174.841 40.5574 176.164 38.4237C177.505 36.238 178.207 33.3904 178.207 29.8807ZM234.272 92.1898V84.4552H234.036C233.229 85.9824 232.13 87.3364 230.802 88.4406C229.441 89.5783 227.954 90.5364 226.338 91.2883C224.71 92.0424 223.004 92.6148 221.251 92.9949C219.569 93.3665 217.851 93.5572 216.128 93.5637C213.613 93.5637 211.371 93.1778 209.425 92.3894C207.56 91.683 205.883 90.5586 204.521 89.1026C203.159 87.6149 202.127 85.8552 201.494 83.9396C200.795 81.9203 200.446 79.6814 200.446 77.1997C200.446 74.9575 200.885 72.9748 201.767 71.2116C202.648 69.4485 203.806 67.9049 205.276 66.5642C206.796 65.1823 208.501 64.02 210.343 63.1111C212.272 62.1364 214.255 61.3646 216.311 60.7758C220.216 59.6479 224.256 59.0603 228.32 59.0293C229.315 59.0293 230.286 59.0126 231.205 58.996C232.123 58.976 233.078 58.8663 234.089 58.6633V57.4158C234.089 55.2668 234.052 53.1177 233.996 50.9687C233.971 48.9913 233.606 47.033 232.915 45.1802C232.278 43.5037 231.151 42.058 229.681 41.0318C228.194 39.9839 225.972 39.4516 223.071 39.4516C221.344 39.4516 219.801 39.618 218.423 39.9307C217.145 40.1985 215.934 40.7225 214.864 41.4709C213.84 42.2227 213.008 43.2051 212.435 44.3386C211.813 45.5328 211.391 46.9999 211.151 48.7464H201.86C201.893 45.7857 202.522 43.2906 203.749 41.2347C204.932 39.2176 206.559 37.4963 208.507 36.2014C210.551 34.8677 212.815 33.9039 215.193 33.3538C217.694 32.7502 220.259 32.4487 222.831 32.4556C229.461 32.4556 234.382 33.9592 237.595 36.9533C240.812 39.9473 242.426 44.7045 242.426 51.2082V92.1865H234.275L234.272 92.1898ZM229.115 65.6993C227.239 65.6993 225.183 65.9022 222.978 66.3247C220.822 66.7239 218.732 67.4227 216.77 68.4006C214.841 69.3753 213.244 70.6228 211.943 72.203C210.639 73.7832 209.994 75.7293 209.994 78.0447C209.994 80.5231 210.749 82.5623 212.236 84.1592C213.743 85.756 215.725 86.5477 218.204 86.5477C219.674 86.5477 221.105 86.3282 222.462 85.8491C223.812 85.4002 225.092 84.7642 226.264 83.9596C227.459 83.1449 228.539 82.175 229.478 81.0753C230.436 79.9542 231.225 78.74 231.813 77.4159C232.289 76.3348 232.675 75.3434 232.988 74.4618C233.584 72.6892 233.918 70.8388 233.979 68.9694C234.016 68.0147 234.036 66.9135 234.036 65.6827H229.112L229.115 65.6993ZM305.546 63.6068C305.546 67.4458 305.16 71.1584 304.372 74.7546C303.58 78.3574 302.276 81.551 300.44 84.3454C298.612 87.1316 296.135 89.432 293.221 91.0488C290.247 92.7188 286.538 93.5637 282.11 93.5637C277.998 93.5637 274.545 92.9217 271.754 91.6542C268.963 90.3701 266.704 88.607 265.014 86.3282C263.327 84.0494 262.096 81.3714 261.361 78.2642C260.602 74.9508 260.233 71.5602 260.26 68.161V7.52861H268.577V43.4736H268.873C269.356 41.7891 270.146 40.2081 271.202 38.8096C272.23 37.4716 273.466 36.306 274.861 35.3565C276.278 34.4097 277.832 33.6849 279.468 33.2074C281.161 32.7049 282.919 32.4505 284.685 32.4522C287.476 32.4522 289.937 32.8947 292.047 33.7929C294.159 34.6944 295.995 35.922 297.519 37.4855C299.063 39.0491 300.347 40.8455 301.378 42.9081C302.431 44.9979 303.257 47.1951 303.84 49.4617C304.445 51.7771 304.868 54.1457 305.124 56.5708C305.417 58.976 305.546 61.328 305.546 63.6068ZM295.959 63.3872C295.949 61.8605 295.883 60.3347 295.759 58.813C295.605 57.0691 295.365 55.3338 295.041 53.6134C294.708 51.8336 294.232 50.1037 293.627 48.4171C293.066 46.8078 292.281 45.2857 291.295 43.8961C290.371 42.6034 289.19 41.516 287.825 40.7025C286.464 39.8741 284.884 39.4716 283.084 39.4716C281.175 39.4716 279.468 39.9107 277.998 40.7923C276.507 41.6918 275.205 42.8712 274.162 44.2654C273.078 45.6958 272.176 47.3326 271.461 49.1689C270.748 50.9962 270.178 52.8758 269.754 54.791C269.345 56.6447 269.045 58.5209 268.856 60.4098C268.683 62.0388 268.589 63.6753 268.577 65.3134C268.577 67.5556 268.743 69.9042 269.056 72.366C269.369 74.8477 270.011 77.1431 270.945 79.2556C271.884 81.3681 273.224 83.1146 274.971 84.4918C276.714 85.8691 279.009 86.5477 281.89 86.5477C283.803 86.5477 285.493 86.1818 286.96 85.4632C288.392 84.7588 289.666 83.7721 290.706 82.5623C291.754 81.3514 292.599 79.9342 293.278 78.3374C293.956 76.7406 294.492 75.0872 294.894 73.3806C295.297 71.6707 295.573 69.9442 295.739 68.2342C295.886 66.5276 295.959 64.9075 295.959 63.3872ZM364.552 63.6068C364.552 67.4458 364.166 71.1584 363.374 74.7546C362.586 78.3574 361.282 81.551 359.449 84.3454C357.621 87.1316 355.144 89.432 352.23 91.0488C349.253 92.7188 345.543 93.5637 341.119 93.5637C337.004 93.5637 333.551 92.9217 330.759 91.6542C327.968 90.3701 325.71 88.607 324.02 86.3282C322.33 84.0494 321.102 81.3714 320.367 78.2642C319.608 74.9508 319.238 71.5602 319.266 68.161V7.52861H327.582V43.4736H327.879C328.362 41.7891 329.151 40.2081 330.207 38.8096C331.236 37.4716 332.471 36.306 333.867 35.3565C335.284 34.4091 336.838 33.6843 338.474 33.2074C340.167 32.7049 341.924 32.4505 343.69 32.4522C346.481 32.4522 348.94 32.8947 351.052 33.7929C353.165 34.6944 355.001 35.922 356.525 37.4855C358.068 39.0491 359.352 40.8455 360.384 42.9081C361.437 44.9979 362.263 47.1951 362.845 49.4617C363.451 51.7771 363.87 54.1457 364.13 56.5708C364.422 58.976 364.552 61.328 364.552 63.6068ZM354.965 63.3872C354.955 61.8605 354.888 60.3347 354.765 58.813C354.611 57.0691 354.371 55.3338 354.046 53.6134C353.714 51.8336 353.238 50.1037 352.633 48.4171C352.072 46.8078 351.287 45.2857 350.3 43.8961C349.377 42.6034 348.195 41.516 346.831 40.7025C345.47 39.8741 343.89 39.4716 342.09 39.4716C340.181 39.4716 338.474 39.9107 337.004 40.7923C335.512 41.6915 334.208 42.8708 333.165 44.2654C332.083 45.6958 331.182 47.3326 330.467 49.1689C329.754 50.9962 329.183 52.8758 328.76 54.791C328.35 56.6447 328.05 58.5209 327.862 60.4098C327.688 62.0388 327.595 63.6753 327.582 65.3134C327.582 67.5556 327.749 69.9042 328.061 72.366C328.374 74.8477 329.016 77.1431 329.951 79.2556C330.889 81.3681 332.23 83.1146 333.976 84.4918C335.72 85.8691 338.015 86.5477 340.896 86.5477C342.809 86.5477 344.499 86.1818 345.966 85.4632C347.397 84.7588 348.672 83.7721 349.712 82.5623C350.76 81.3514 351.605 79.9342 352.283 78.3374C352.961 76.7336 353.501 75.0755 353.9 73.3806C354.303 71.6707 354.579 69.9442 354.745 68.2342C354.891 66.5276 354.965 64.9075 354.965 63.3872ZM379.283 18.55V7.52528H390.297V18.5466H379.279L379.283 18.55ZM380.603 92.1865V33.7763H388.92V92.1865H380.603ZM421.811 40.7757V76.7206C421.811 79.8444 422.566 82.2496 424.09 83.9762C425.614 85.7061 428.039 86.5477 431.362 86.5477C432.349 86.5649 433.334 86.4722 434.3 86.2716C435.242 86.0422 436.169 85.7533 437.074 85.4067V92.905C435.843 93.1046 434.612 93.271 433.382 93.3808C432.171 93.5105 430.94 93.5637 429.689 93.5637C426.934 93.5637 424.549 93.3076 422.53 92.7919C420.507 92.2796 418.817 91.4346 417.46 90.2404C416.099 89.066 415.091 87.5224 414.433 85.593C413.767 83.6635 413.438 81.2949 413.438 78.4672V40.7757H403.907V33.7563H413.438V20.1667L421.755 14.8972V33.7596H437.513V40.779L421.811 40.7757Z" fill="#424147"/>
<path d="M519.27 92.4235V17.9387H519.037L494.113 92.4036H484.656L459.788 17.9387H459.496V92.4036H450.939V7.76232H465.317L489.336 79.7854H489.576L513.654 7.76232H527.849V92.4235H519.27ZM575.045 92.4501C571.097 92.4501 567.59 91.8613 564.56 90.687C561.628 89.573 558.926 87.9289 556.589 85.8367C554.296 83.7561 552.355 81.3183 550.84 78.6177C549.264 75.8214 548.002 72.8592 547.078 69.7853C546.108 66.5926 545.413 63.3227 545.002 60.0115C544.586 56.6844 544.377 53.3345 544.377 49.9815C544.377 46.4751 544.559 42.9655 544.945 39.4758C545.311 36.0624 545.949 32.6838 546.855 29.3726C547.753 26.1224 548.967 23.1284 550.474 20.3173C551.954 17.5782 553.9 15.1175 556.223 13.0451C558.535 10.9859 561.289 9.36912 564.45 8.19479C567.627 7.02047 571.336 6.43164 575.561 6.43164C579.673 6.43164 583.272 7.0371 586.376 8.25135C589.328 9.3836 592.034 11.0732 594.347 13.2281C596.569 15.3239 598.405 17.7857 599.856 20.63C601.306 23.4577 602.464 26.4883 603.309 29.7052C604.154 32.9188 604.739 36.2588 605.072 39.7319C605.405 43.205 605.588 46.6215 605.588 49.9815C605.57 54.0473 605.3 58.1082 604.779 62.1406C604.475 64.4561 604.058 66.7554 603.529 69.0302C602.996 71.3455 602.298 73.5312 601.453 75.5705C600.651 77.5313 599.636 79.3978 598.425 81.136C597.341 82.715 595.948 84.0582 594.33 85.0848L594.566 85.3243L611.998 84.2398V92.4501H575.045ZM595.172 49.8551C595.172 47.6495 595.099 45.2443 594.972 42.6361C594.827 40.006 594.527 37.3866 594.074 34.7918C593.617 32.206 592.947 29.6624 592.071 27.1869C591.248 24.8391 590.064 22.6337 588.562 20.65C587.115 18.7703 585.287 17.2173 583.199 16.0924C581.087 14.9546 578.535 14.3858 575.581 14.3858C572.454 14.3858 569.792 14.9347 567.57 16.0392C565.401 17.0998 563.48 18.6077 561.935 20.4637C560.356 22.3869 559.097 24.5514 558.206 26.8742C557.261 29.3335 556.536 31.8717 556.04 34.4591C555.541 37.1071 555.212 39.7519 555.045 42.3966C554.879 45.058 554.809 47.5397 554.809 49.8551C554.809 52.0573 554.899 54.4293 555.102 56.9809C555.301 59.5358 555.654 62.0873 556.186 64.6589C556.699 67.2138 557.434 69.6922 558.372 72.0774C559.25 74.3708 560.477 76.515 562.008 78.4347C563.495 80.2711 565.295 81.7415 567.407 82.8426C569.52 83.9471 572.031 84.496 574.899 84.496C578.133 84.496 580.887 83.9837 583.146 82.9358C585.303 81.9609 587.226 80.5323 588.781 78.7475C590.31 76.9436 591.511 74.8853 592.328 72.6662C593.193 70.3708 593.831 67.929 594.257 65.3575C594.676 62.7859 594.936 60.1579 595.025 57.5131C595.119 54.8318 595.172 52.2802 595.172 49.8551Z" fill="#424147"/>
</svg>
