<svg width="347" height="100" viewBox="0 0 347 100" fill="none" xmlns="http://www.w3.org/2000/svg">
<path d="M55.8698 45.3489C56.4762 45.3488 57.058 45.589 57.4879 46.0168C57.9178 46.4445 58.1608 47.0251 58.1637 47.6315V71.5209C58.1637 72.7788 57.1465 73.8054 55.881 73.8054H15.1498C14.5439 73.8054 13.9628 73.5647 13.5344 73.1363C13.1059 72.7079 12.8652 72.1268 12.8652 71.5209V28.1967C12.8652 26.9406 13.8825 25.914 15.1517 25.914H20.1025C21.3586 25.914 22.3852 26.9294 22.3852 28.1967V43.1997C22.4189 43.7346 22.6371 44.2412 23.0026 44.6332C23.3681 45.0251 23.8584 45.2781 24.3896 45.3489H28.0939C29.2164 45.2454 30.1509 44.3316 30.213 43.1997V28.1948C30.213 26.9388 31.2283 25.9121 32.4957 25.9121H37.4465C38.7025 25.9121 39.7311 26.9275 39.7311 28.1948V43.0417C39.7311 44.215 40.5923 45.2116 41.7242 45.347H55.8716L55.8698 45.3489ZM49.3507 61.732V57.0575C49.3507 55.8015 48.3354 54.773 47.068 54.773H42.1153C40.8593 54.773 39.8307 55.7902 39.8307 57.0575V61.7301C39.8307 62.9861 40.848 64.0128 42.1153 64.0128H47.0662C48.3222 64.0128 49.3489 62.9974 49.3489 61.7301L49.3507 61.732ZM91.1312 73.8487L88.7639 62.8C88.4711 61.3201 88.097 59.8576 87.6432 58.4189C87.2389 57.1421 86.6654 56.0723 85.9509 55.2017C85.2251 54.3292 84.2793 53.6749 83.106 53.2179C81.9346 52.7723 80.3984 52.5429 78.4993 52.5429H73.5259V73.8468H68.1087V25.9967H79.9622C81.9233 25.9967 83.8224 26.2036 85.6708 26.6078C87.5078 27.014 89.1381 27.689 90.5502 28.6235C91.9702 29.5712 93.1383 30.8503 93.9535 32.3503C94.8147 33.8978 95.2415 35.7969 95.2415 38.0608C95.2415 39.7944 95.0347 41.3306 94.6286 42.6487C94.2589 43.9004 93.6369 45.0631 92.8009 46.0653C91.9924 47.0204 90.9751 47.829 89.7717 48.4833C88.5683 49.1377 87.1449 49.6679 85.526 50.0722V50.2076C87.1036 50.6118 88.369 51.1308 89.3148 51.7438C90.2587 52.3662 91.0165 53.1032 91.5881 53.9663C92.1484 54.8275 92.5847 55.8128 92.8949 56.924C93.207 58.0353 93.4966 59.312 93.7881 60.7354L96.5484 73.8468L91.1312 73.8487ZM89.8131 38.6305C89.8131 36.6487 89.4596 35.1012 88.7639 34.0106C88.0979 32.9495 87.1339 32.1084 85.9923 31.5925C84.8397 31.0736 83.5329 30.7614 82.0681 30.658C80.5693 30.5529 79.0672 30.5009 77.5648 30.5019H73.5353V48.0471H76.5137C78.1439 48.0471 79.7422 47.9343 81.3404 47.6955C82.8315 47.4893 84.2752 47.0248 85.6068 46.3229C86.8579 45.6529 87.9105 44.6652 88.6586 43.4591C89.4163 42.2238 89.8131 40.6142 89.8131 38.6305ZM121.502 73.8487V69.477H121.368C120.912 70.3401 120.291 71.1054 119.541 71.7296C118.772 72.3726 117.931 72.9142 117.017 73.3391C116.097 73.7654 115.133 74.0889 114.142 74.3037C113.191 74.5138 112.221 74.6216 111.247 74.6253C109.825 74.6253 108.558 74.4071 107.458 73.9615C106.404 73.5623 105.456 72.9267 104.686 72.1038C103.916 71.2629 103.333 70.2683 102.975 69.1855C102.58 68.0442 102.383 66.7787 102.383 65.376C102.383 64.1087 102.631 62.988 103.129 61.9915C103.628 60.9949 104.282 60.1224 105.113 59.3647C105.972 58.5836 106.936 57.9266 107.977 57.4129C109.067 56.862 110.188 56.4258 111.35 56.0929C113.557 55.4554 115.841 55.1233 118.138 55.1058C118.7 55.1058 119.249 55.0964 119.768 55.087C120.287 55.0757 120.827 55.0136 121.399 54.8989V54.1938C121.399 52.9791 121.378 51.7645 121.346 50.5498C121.332 49.4322 121.125 48.3253 120.735 47.2781C120.375 46.3305 119.738 45.5133 118.907 44.9333C118.067 44.341 116.811 44.0402 115.171 44.0402C114.195 44.0402 113.323 44.1342 112.544 44.3109C111.822 44.4623 111.137 44.7585 110.532 45.1815C109.954 45.6064 109.483 46.1617 109.16 46.8023C108.808 47.4774 108.569 48.3066 108.434 49.2937H103.182C103.201 47.6203 103.556 46.21 104.25 45.048C104.919 43.9079 105.838 42.935 106.939 42.2031C108.095 41.4493 109.374 40.9045 110.718 40.5936C112.132 40.2524 113.581 40.082 115.036 40.0859C118.783 40.0859 121.564 40.9358 123.38 42.628C125.199 44.3203 126.111 47.0092 126.111 50.6852V73.8468H121.504L121.502 73.8487ZM118.587 58.8758C117.527 58.8758 116.365 58.9905 115.118 59.2293C113.9 59.4549 112.719 59.8499 111.61 60.4026C110.519 60.9535 109.616 61.6586 108.881 62.5518C108.144 63.4449 107.779 64.5449 107.779 65.8536C107.779 67.2544 108.206 68.4071 109.047 69.3096C109.899 70.2122 111.019 70.6597 112.42 70.6597C113.251 70.6597 114.06 70.5356 114.827 70.2648C115.59 70.0111 116.313 69.6516 116.976 69.1968C117.651 68.7363 118.262 68.1881 118.792 67.5666C119.334 66.9329 119.78 66.2466 120.112 65.4982C120.381 64.8871 120.599 64.3268 120.776 63.8285C121.113 62.8266 121.302 61.7807 121.336 60.7241C121.357 60.1845 121.368 59.5621 121.368 58.8664H118.586L118.587 58.8758ZM161.788 57.6931C161.788 59.863 161.569 61.9614 161.124 63.994C160.676 66.0304 159.939 67.8355 158.901 69.4149C157.868 70.9897 156.468 72.29 154.821 73.2037C153.14 74.1477 151.043 74.6253 148.541 74.6253C146.217 74.6253 144.265 74.2624 142.687 73.546C141.11 72.8202 139.833 71.8236 138.878 70.5356C137.925 69.2476 137.229 67.7339 136.813 65.9777C136.384 64.1049 136.175 62.1885 136.191 60.2672V25.9967H140.892V46.3135H141.059C141.332 45.3614 141.778 44.4677 142.375 43.6773C142.957 42.921 143.655 42.2622 144.444 41.7255C145.245 41.1904 146.123 40.7807 147.048 40.5108C148.005 40.2268 148.998 40.083 149.996 40.084C151.574 40.084 152.965 40.3341 154.157 40.8418C155.351 41.3513 156.389 42.0452 157.25 42.9289C158.123 43.8126 158.849 44.828 159.431 45.9938C160.027 47.175 160.493 48.4169 160.823 49.698C161.165 51.0067 161.404 52.3455 161.549 53.7162C161.714 55.0757 161.788 56.4051 161.788 57.6931ZM156.368 57.569C156.363 56.7061 156.325 55.8437 156.256 54.9836C156.169 53.9978 156.033 53.017 155.85 52.0446C155.661 51.0387 155.393 50.0609 155.05 49.1076C154.734 48.198 154.29 47.3377 153.732 46.5523C153.21 45.8216 152.542 45.207 151.771 44.7472C151.002 44.279 150.109 44.0514 149.092 44.0514C148.012 44.0514 147.048 44.2996 146.217 44.7979C145.374 45.3064 144.638 45.9729 144.049 46.761C143.436 47.5695 142.926 48.4946 142.522 49.5325C142.119 50.5654 141.797 51.6278 141.557 52.7103C141.326 53.758 141.156 54.8184 141.05 55.8861C140.951 56.8068 140.899 57.7318 140.892 58.6577C140.892 59.925 140.986 61.2525 141.162 62.6439C141.339 64.0466 141.702 65.3441 142.23 66.538C142.761 67.732 143.518 68.7192 144.506 69.4977C145.491 70.2761 146.788 70.6597 148.417 70.6597C149.498 70.6597 150.453 70.4528 151.282 70.0467C152.091 69.6486 152.812 69.0908 153.399 68.4071C153.992 67.7226 154.469 66.9216 154.853 66.0191C155.237 65.1165 155.539 64.182 155.767 63.2174C155.994 62.2509 156.15 61.2751 156.244 60.3086C156.327 59.344 156.368 58.4283 156.368 57.569ZM195.139 57.6931C195.139 59.863 194.92 61.9614 194.473 63.994C194.027 66.0304 193.29 67.8355 192.254 69.4149C191.221 70.9897 189.821 72.29 188.174 73.2037C186.491 74.1477 184.394 74.6253 181.894 74.6253C179.568 74.6253 177.616 74.2624 176.038 73.546C174.461 72.8202 173.184 71.8236 172.229 70.5356C171.274 69.2476 170.58 67.7339 170.164 65.9777C169.735 64.1049 169.526 62.1885 169.542 60.2672V25.9967H174.243V46.3135H174.41C174.683 45.3614 175.129 44.4677 175.726 43.6773C176.308 42.921 177.006 42.2622 177.795 41.7255C178.596 41.19 179.474 40.7804 180.399 40.5108C181.356 40.2268 182.349 40.083 183.347 40.084C184.925 40.084 186.314 40.3341 187.508 40.8418C188.702 41.3513 189.74 42.0452 190.601 42.9289C191.474 43.8126 192.2 44.828 192.783 45.9938C193.378 47.175 193.844 48.4169 194.174 49.698C194.516 51.0067 194.753 52.3455 194.9 53.7162C195.065 55.0757 195.139 56.4051 195.139 57.6931ZM189.719 57.569C189.714 56.7061 189.677 55.8437 189.607 54.9836C189.52 53.9978 189.384 53.017 189.201 52.0446C189.012 51.0387 188.744 50.0609 188.401 49.1076C188.085 48.198 187.641 47.3377 187.083 46.5523C186.561 45.8216 185.894 45.207 185.122 44.7472C184.353 44.279 183.46 44.0514 182.443 44.0514C181.363 44.0514 180.399 44.2996 179.568 44.7979C178.725 45.3062 177.988 45.9728 177.398 46.761C176.787 47.5695 176.277 48.4946 175.873 49.5325C175.47 50.5654 175.148 51.6278 174.908 52.7103C174.677 53.758 174.507 54.8184 174.401 55.8861C174.303 56.8068 174.25 57.7318 174.243 58.6577C174.243 59.925 174.337 61.2525 174.513 62.6439C174.69 64.0466 175.053 65.3441 175.581 66.538C176.112 67.732 176.869 68.7192 177.857 69.4977C178.842 70.2761 180.139 70.6597 181.768 70.6597C182.849 70.6597 183.804 70.4528 184.633 70.0467C185.442 69.6486 186.163 69.0908 186.751 68.4071C187.343 67.7226 187.82 66.9216 188.204 66.0191C188.587 65.1126 188.893 64.1754 189.118 63.2174C189.345 62.2509 189.501 61.2751 189.595 60.3086C189.678 59.344 189.719 58.4283 189.719 57.569ZM203.465 32.2262V25.9948H209.69V32.2243H203.463L203.465 32.2262ZM204.211 73.8468V40.8324H208.912V73.8468H204.211ZM227.502 44.7885V65.1053C227.502 66.8709 227.929 68.2303 228.79 69.2062C229.652 70.184 231.022 70.6597 232.901 70.6597C233.458 70.6694 234.015 70.617 234.561 70.5036C235.094 70.3739 235.617 70.2107 236.129 70.0147V74.253C235.434 74.3658 234.738 74.4598 234.042 74.5218C233.358 74.5952 232.662 74.6253 231.955 74.6253C230.398 74.6253 229.05 74.4805 227.909 74.189C226.765 73.8995 225.81 73.4219 225.043 72.7468C224.274 72.0831 223.704 71.2106 223.332 70.12C222.956 69.0295 222.77 67.6907 222.77 66.0924V44.7885H217.383V40.8211H222.77V33.14L227.47 30.1616V40.823H236.377V44.7904L227.502 44.7885Z" fill="#424147"/>
<path d="M282.588 73.981V31.8809H282.457L268.369 73.9698H263.024L248.968 31.8809H248.803V73.9698H243.967V26.1291H252.093L265.669 66.8377H265.805L279.414 26.1291H287.438V73.981H282.588ZM314.114 73.9961C311.882 73.9961 309.9 73.6633 308.187 72.9995C306.53 72.3699 305.002 71.4406 303.682 70.258C302.386 69.082 301.288 67.7042 300.432 66.1778C299.542 64.5972 298.828 62.923 298.306 61.1855C297.758 59.381 297.365 57.5328 297.133 55.6612C296.897 53.7807 296.779 51.8873 296.779 49.9921C296.779 48.0102 296.882 46.0265 297.101 44.0541C297.307 42.1248 297.668 40.2151 298.18 38.3436C298.688 36.5065 299.374 34.8142 300.226 33.2254C301.062 31.6772 302.162 30.2864 303.475 29.115C304.782 27.9511 306.338 27.0373 308.125 26.3735C309.92 25.7098 312.017 25.377 314.405 25.377C316.729 25.377 318.764 25.7192 320.518 26.4055C322.186 27.0454 323.716 28.0005 325.023 29.2184C326.279 30.403 327.317 31.7944 328.137 33.4021C328.957 35.0004 329.611 36.7133 330.089 38.5316C330.566 40.348 330.897 42.2358 331.085 44.1988C331.273 46.1619 331.377 48.093 331.377 49.9921C331.367 52.2902 331.214 54.5854 330.92 56.8646C330.748 58.1734 330.512 59.473 330.213 60.7587C329.912 62.0674 329.517 63.3028 329.039 64.4554C328.587 65.5637 328.013 66.6187 327.328 67.6011C326.715 68.4936 325.928 69.2528 325.014 69.8331L325.147 69.9685L335 69.3555V73.9961H314.114ZM325.489 49.9206C325.489 48.674 325.448 47.3145 325.377 45.8403C325.295 44.3537 325.125 42.8732 324.869 41.4066C324.611 39.9451 324.232 38.5074 323.737 37.1082C323.271 35.7812 322.602 34.5346 321.753 33.4134C320.935 32.351 319.903 31.4732 318.722 30.8374C317.528 30.1943 316.086 29.8728 314.416 29.8728C312.649 29.8728 311.145 30.183 309.889 30.8073C308.662 31.4068 307.577 32.2591 306.703 33.3081C305.811 34.3951 305.099 35.6185 304.595 36.9314C304.061 38.3215 303.652 39.7561 303.371 41.2185C303.089 42.7153 302.903 44.2101 302.809 45.705C302.715 47.2092 302.676 48.6119 302.676 49.9206C302.676 51.1654 302.726 52.506 302.841 53.9482C302.954 55.3923 303.153 56.8345 303.454 58.288C303.744 59.7321 304.159 61.1329 304.689 62.4811C305.186 63.7773 305.879 64.9893 306.745 66.0743C307.585 67.1123 308.602 67.9434 309.796 68.5657C310.99 69.19 312.41 69.5003 314.031 69.5003C315.859 69.5003 317.415 69.2107 318.692 68.6184C319.912 68.0674 320.998 67.2599 321.877 66.2511C322.742 65.2315 323.42 64.0681 323.882 62.8139C324.371 61.5165 324.732 60.1363 324.972 58.6828C325.209 57.2294 325.356 55.7439 325.407 54.2491C325.459 52.7336 325.489 51.2914 325.489 49.9206Z" fill="#424147"/>
</svg>
