<svg width="360" height="100" viewBox="0 0 360 100" fill="none" xmlns="http://www.w3.org/2000/svg">
<path d="M74.394 58.9325C79.3805 58.9325 83.4228 54.8937 83.4228 49.9116C83.4228 44.9294 79.3805 40.8906 74.394 40.8906C69.4076 40.8906 65.3652 44.9294 65.3652 49.9116C65.3652 54.8937 69.4076 58.9325 74.394 58.9325Z" fill="#424147"/>
<path fill-rule="evenodd" clip-rule="evenodd" d="M74.397 31.5684C86.5193 31.5684 97.7807 33.3063 106.272 36.2269C116.502 39.746 122.792 45.0799 122.792 49.9099C122.792 54.943 116.126 60.6096 105.14 64.2464C96.834 66.9959 85.9042 68.4312 74.397 68.4312C62.5989 68.4312 51.4268 67.084 43.0274 64.2162C32.4006 60.5871 26 54.8471 26 49.9099C26 45.1191 32.0058 39.8263 42.0924 36.3127C50.6151 33.3439 62.1546 31.5684 74.3953 31.5684H74.397Z" stroke="#424147" stroke-width="1.66272"/>
<path fill-rule="evenodd" clip-rule="evenodd" d="M58.4163 40.7971C64.4724 30.3051 71.6048 21.4264 78.3791 15.5362C86.5409 8.4395 94.3081 5.66022 98.4955 8.07285C102.86 10.5873 104.442 19.1882 102.107 30.5135C100.343 39.0761 96.1258 49.2527 90.3771 59.2125C84.4829 69.4241 77.7338 78.4208 71.0519 84.2562C62.5967 91.641 54.4223 94.3135 50.1416 91.8469C45.9878 89.4553 44.3993 81.6116 46.392 71.1259C48.0757 62.2662 52.3009 51.3917 58.4143 40.797L58.4163 40.7971Z" stroke="#424147" stroke-width="1.66272"/>
<path fill-rule="evenodd" clip-rule="evenodd" d="M58.4315 59.2371C52.3583 48.7569 48.2233 38.1467 46.4974 29.3414C44.4198 18.7321 45.8887 10.6205 50.0724 8.20083C54.4321 5.67906 62.6805 8.60435 71.3346 16.2819C77.8778 22.0864 84.5966 30.8179 90.3621 40.7683C96.2731 50.97 100.703 61.3054 102.427 70.0036C104.608 81.0108 102.843 89.4211 98.5658 91.8947C94.4162 94.2949 86.8225 91.7537 78.7254 84.7919C71.8841 78.91 64.5647 69.8214 58.4315 59.2369V59.2371Z" stroke="#424147" stroke-width="1.66272"/>
<path fill-rule="evenodd" clip-rule="evenodd" d="M188.963 78.7006L175.129 57.8196C182.121 57.2031 188.42 52.1419 188.42 42.8953C188.42 33.4865 181.738 27.4648 172.363 27.4648H151.775V78.6617H158.153V58.3192H168.372L181.432 78.6617L188.963 78.7006ZM171.6 52.7551H158.156V33.1815H171.6C177.672 33.1815 181.819 37.1721 181.819 42.931C181.819 48.6898 177.669 52.7615 171.6 52.7615V52.7551ZM212.703 79.6188C218.775 79.6188 223.766 77.6235 227.455 73.9411L224.689 70.1776C221.766 73.1722 217.467 74.8593 213.242 74.8593C205.254 74.8593 200.334 69.0258 199.873 62.0438H229.91V60.5838C229.91 49.4555 223.302 40.7021 212.083 40.7021C201.481 40.7021 193.801 49.3776 193.801 60.1231C193.801 71.7154 201.715 79.5896 212.7 79.5896L212.703 79.6188ZM224.231 57.8163H199.877C200.185 52.1386 204.098 45.4551 212.015 45.4551C220.467 45.4551 224.153 52.2879 224.231 57.8163ZM268.179 78.6974V53.2125C268.179 44.232 261.652 40.6988 253.813 40.6988C247.741 40.6988 242.98 42.6941 238.986 46.8405L241.675 50.8311C244.977 47.3012 248.592 45.6887 253.047 45.6887C258.424 45.6887 262.421 48.5276 262.421 53.5175V60.1945C259.424 56.7392 255.2 55.1267 250.127 55.1267C243.828 55.1267 237.139 59.0427 237.139 67.3322C237.139 75.3913 243.821 79.6156 250.127 79.6156C255.122 79.6156 259.35 77.8506 262.421 74.4732V78.6909L268.179 78.6974ZM252.202 75.4724C246.825 75.4724 243.058 72.0982 243.058 67.4133C243.058 62.6538 246.825 59.2763 252.202 59.2763C256.274 59.2763 260.191 60.8109 262.421 63.8834V70.8686C260.194 73.9378 256.274 75.4724 252.202 75.4724ZM296.04 79.6188C302.801 79.6188 306.795 76.8546 309.639 73.1722L305.798 69.6422C303.34 72.9418 300.19 74.4764 296.381 74.4764C288.467 74.4764 283.554 68.3347 283.554 60.1231C283.554 51.9115 288.471 45.8477 296.381 45.8477C300.222 45.8477 303.372 47.3077 305.798 50.6819L309.639 47.152C306.798 43.4663 302.801 40.7053 296.04 40.7053C284.977 40.7053 277.524 49.1505 277.524 60.1264C277.524 71.1801 284.977 79.5928 296.04 79.5928V79.6188ZM327.084 79.6188C330.461 79.6188 332.539 78.6195 334 77.2406L332.312 72.9418C331.542 73.7854 330.038 74.4764 328.392 74.4764C325.859 74.4764 324.625 72.4811 324.625 69.7168V46.688H332.159V41.6235H324.625V31.4912H318.862V41.6235H312.715V46.6912H318.862V70.9497C318.862 76.4782 321.628 79.6253 327.084 79.6253V79.6188Z" fill="#424147"/>
</svg>
