<svg width="30" height="30" viewBox="0 0 30 30" fill="none" xmlns="http://www.w3.org/2000/svg">
<circle opacity="0.1" cx="15" cy="15" r="15" fill="url(#paint0_linear_816_78709)"/>
<path d="M21.3265 7.93649C20.9514 7.55145 20.3962 7.408 19.8784 7.559L7.806 11.0696C7.25977 11.2214 6.87262 11.657 6.76832 12.2104C6.66178 12.7736 7.03393 13.4886 7.52013 13.7876L11.2949 16.1076C11.6821 16.3454 12.1818 16.2858 12.5022 15.9627L16.8247 11.6132C17.0423 11.3867 17.4024 11.3867 17.62 11.6132C17.8376 11.8322 17.8376 12.187 17.62 12.4135L13.29 16.7637C12.9689 17.0861 12.9088 17.5881 13.1452 17.9777L15.4516 21.7903C15.7217 22.2433 16.1869 22.5 16.6971 22.5C16.7572 22.5 16.8247 22.5 16.8847 22.4924C17.47 22.417 17.9351 22.0168 18.1077 21.4506L21.6867 9.39359C21.8442 8.88021 21.7017 8.32153 21.3265 7.93649" fill="url(#paint1_linear_816_78709)"/>
<defs>
<linearGradient id="paint0_linear_816_78709" x1="0" y1="0" x2="30.599" y2="0.813926" gradientUnits="userSpaceOnUse">
<stop stop-color="#34CCFF"/>
<stop offset="1" stop-color="#91E5FF"/>
</linearGradient>
<linearGradient id="paint1_linear_816_78709" x1="6.75" y1="7.5" x2="22.0495" y2="7.90696" gradientUnits="userSpaceOnUse">
<stop stop-color="#34CCFF"/>
<stop offset="1" stop-color="#91E5FF"/>
</linearGradient>
</defs>
</svg>
