<svg width="30" height="30" viewBox="0 0 30 30" fill="none" xmlns="http://www.w3.org/2000/svg">
<circle opacity="0.1" cx="15" cy="15" r="15" fill="url(#paint0_linear_816_78721)"/>
<path d="M19.4392 16.74C19.2449 16.9282 19.1557 17.2005 19.1999 17.4675L19.8667 21.1575C19.9229 21.4702 19.7909 21.7868 19.5292 21.9675C19.2727 22.155 18.9314 22.1775 18.6517 22.0275L15.3299 20.295C15.2144 20.2335 15.0862 20.2005 14.9549 20.1968H14.7517C14.6812 20.2073 14.6122 20.2297 14.5492 20.2642L11.2267 22.005C11.0624 22.0875 10.8764 22.1168 10.6942 22.0875C10.2502 22.0035 9.95391 21.5805 10.0267 21.1343L10.6942 17.4442C10.7384 17.175 10.6492 16.9012 10.4549 16.71L7.74666 14.085C7.52016 13.8652 7.44141 13.5353 7.54491 13.2375C7.64541 12.9405 7.90191 12.7238 8.21166 12.675L11.9392 12.1342C12.2227 12.105 12.4717 11.9325 12.5992 11.6775L14.2417 8.31C14.2807 8.235 14.3309 8.166 14.3917 8.1075L14.4592 8.055C14.4944 8.016 14.5349 7.98375 14.5799 7.9575L14.6617 7.9275L14.7892 7.875H15.1049C15.3869 7.90425 15.6352 8.073 15.7649 8.325L17.4292 11.6775C17.5492 11.9228 17.7824 12.093 18.0517 12.1342L21.7792 12.675C22.0942 12.72 22.3574 12.9375 22.4617 13.2375C22.5599 13.5383 22.4752 13.8682 22.2442 14.085L19.4392 16.74Z" fill="url(#paint1_linear_816_78721)"/>
<defs>
<linearGradient id="paint0_linear_816_78721" x1="0" y1="0" x2="30.599" y2="0.813926" gradientUnits="userSpaceOnUse">
<stop stop-color="#34CCFF"/>
<stop offset="1" stop-color="#91E5FF"/>
</linearGradient>
<linearGradient id="paint1_linear_816_78721" x1="7.5" y1="7.875" x2="22.8003" y2="8.30343" gradientUnits="userSpaceOnUse">
<stop stop-color="#34CCFF"/>
<stop offset="1" stop-color="#91E5FF"/>
</linearGradient>
</defs>
</svg>
