<svg width="100" height="100" viewBox="0 0 100 100" fill="none" xmlns="http://www.w3.org/2000/svg">
<path fill-rule="evenodd" clip-rule="evenodd" d="M80.0567 34.8015V36.6163V38.7146V63.3837V65.1985C80.0567 66.5596 79.9433 67.8639 79.7165 69.1683C79.4896 70.4726 79.0926 71.7202 78.4688 72.9112C77.845 74.0454 77.1078 75.1229 76.1437 76.087C75.2363 77.051 74.1588 77.7883 72.9679 78.4121C71.7769 79.0359 70.5293 79.4329 69.225 79.6597C67.9391 79.8834 66.598 79.9417 65.3106 79.9976L65.2552 80H34.8015C33.4405 80 32.1361 79.8866 30.8318 79.6597C29.5274 79.4329 28.2798 79.0359 27.0888 78.4121C25.9546 77.7883 24.8771 77.051 23.913 76.087C22.949 75.1796 22.2117 74.1021 21.5879 72.9112C20.9641 71.7202 20.5671 70.4726 20.3403 69.1683C20.1166 67.8822 20.0583 66.5411 20.0024 65.2535L20 65.1985V34.7448C20.0567 33.3837 20.1134 32.0794 20.3403 30.775C20.5671 29.4707 20.9641 28.2231 21.5879 27.0321C22.2117 25.8979 22.949 24.8204 23.913 23.8563C24.0265 23.7429 24.1541 23.6295 24.2817 23.5161C24.4093 23.4026 24.5369 23.2892 24.6503 23.1758C25.4442 22.552 26.2382 21.9849 27.1456 21.5312C27.2873 21.4745 27.4433 21.4036 27.5992 21.3327C27.7552 21.2618 27.9112 21.1909 28.0529 21.1342C28.9603 20.794 29.9244 20.5104 30.8885 20.3403C31.8258 20.1749 32.8168 20.1167 33.7571 20.0614C33.7839 20.0599 33.8107 20.0583 33.8374 20.0567C34.121 20 34.4613 20 34.8015 20H65.2552C66.6163 20 67.9206 20.1134 69.225 20.3403C70.5293 20.5671 71.7769 20.9641 72.9679 21.5879C74.1021 22.2117 75.1796 22.949 76.1437 23.913C77.1078 24.8204 77.845 25.8979 78.4688 27.0888C79.0926 28.2798 79.4896 29.5274 79.7165 30.8318C79.9401 32.1178 79.9984 33.459 80.0543 34.7466L80.0567 34.8015ZM67.6931 56.4073L67.523 57.0878C72.7404 63.4394 71.3226 70.2447 70.5287 69.0538C67.8065 63.8364 62.816 65.1407 60.264 66.4451C60.1506 66.5018 60.0372 66.5727 59.9237 66.6435C59.8103 66.7144 59.6969 66.7853 59.5835 66.842C59.5835 66.8987 59.5268 66.8988 59.5268 66.8988C54.2527 69.7343 47.1071 69.9044 39.9615 66.842C33.9502 64.2333 29.0164 59.8099 25.8406 54.7059C27.4852 55.8969 29.2432 56.9744 31.1147 57.825C38.6572 61.3978 46.2564 61.1143 51.644 57.825C43.988 51.9271 37.5797 44.2711 32.7026 38.0329C31.7952 36.9554 30.9445 35.7645 30.2073 34.5736C36.1052 39.9044 45.3491 46.653 48.695 48.5244C41.6629 41.0953 35.4247 31.9082 35.7082 32.1917C46.8235 43.3638 57.0882 49.7154 57.0882 49.7154C57.4852 49.8855 57.7687 50.0556 57.9956 50.2258C58.2224 49.6587 58.3925 49.0916 58.5627 48.5244C60.3207 42.0594 58.3358 34.6303 53.799 28.5055C64.1203 34.687 70.1884 46.4829 67.6931 56.4073Z" fill="#424147"/>
</svg>
