<svg width="101" height="100" viewBox="0 0 101 100" fill="none" xmlns="http://www.w3.org/2000/svg">
<g clip-path="url(#clip0_1134_6081)">
<path fill-rule="evenodd" clip-rule="evenodd" d="M100.685 24.6932V27.7092V31.1965V72.1955V75.2116C100.685 77.4736 100.496 79.6414 100.119 81.8091C99.742 83.9769 99.0823 86.0504 98.0455 88.0297C97.0088 89.9147 95.7835 91.7054 94.1812 93.3077C92.6732 94.91 90.8825 96.1352 88.9032 97.172C86.924 98.2087 84.8504 98.8685 82.6827 99.2455C80.5455 99.6172 78.3168 99.714 76.177 99.807L76.0851 99.811H25.4725C23.2105 99.811 21.0427 99.6225 18.8749 99.2455C16.7072 98.8685 14.6337 98.2087 12.6544 97.172C10.7694 96.1352 8.97862 94.91 7.37635 93.3077C5.77409 91.7997 4.54883 90.0089 3.51207 88.0297C2.47531 86.0504 1.81556 83.9769 1.43856 81.8091C1.06685 79.6718 0.970003 77.4429 0.877022 75.303L0.873047 75.2116V24.5989C0.967298 22.3369 1.06155 20.1692 1.43856 18.0014C1.81556 15.8336 2.47531 13.7601 3.51207 11.7808C4.54883 9.89582 5.77409 8.10505 7.37635 6.50279C7.56486 6.31429 7.77692 6.12579 7.98898 5.93729C8.20104 5.7488 8.4131 5.5603 8.6016 5.3718C9.92111 4.33504 11.2406 3.39254 12.7486 2.63853C12.9843 2.54428 13.2435 2.42646 13.5026 2.30865C13.7618 2.19083 14.021 2.07301 14.2566 1.97876C15.7647 1.41326 17.3669 0.942012 18.9692 0.65926C20.527 0.384351 22.1739 0.287631 23.7367 0.195853C23.7813 0.193235 23.8258 0.190621 23.8702 0.188006C24.3415 0.0937558 24.907 0.09375 25.4725 0.09375H76.0851C78.3471 0.09375 80.5149 0.282257 82.6827 0.65926C84.8504 1.03626 86.924 1.696 88.9032 2.73276C90.7882 3.76952 92.579 4.99478 94.1812 6.59704C95.7835 8.10505 97.0088 9.89582 98.0455 11.8751C99.0823 13.8544 99.742 15.9279 100.119 18.0956C100.491 20.2329 100.588 22.4618 100.681 24.6016L100.685 24.6932ZM80.1374 60.6026L79.8546 61.7336C88.5257 72.2897 86.1694 83.5998 84.8499 81.6205C80.3259 72.9494 72.0318 75.1172 67.7905 77.2849C67.602 77.3792 67.4136 77.497 67.2251 77.6148C67.0366 77.7326 66.848 77.8505 66.6595 77.9447C66.6595 78.039 66.5653 78.039 66.5653 78.039C57.8 82.7515 45.9244 83.0343 34.0488 77.9447C24.0582 73.6092 15.8584 66.2576 10.5804 57.7751C13.3136 59.7543 16.2354 61.5451 19.3457 62.9589C31.881 68.8967 44.5106 68.4254 53.4644 62.9589C40.7406 53.1568 30.0903 40.4329 21.9847 30.0653C20.4767 28.2746 19.0629 26.2953 17.8377 24.3161C27.6397 33.1756 43.0026 44.3914 48.5634 47.5017C36.8763 35.1549 26.5087 19.8863 26.98 20.3575C45.4531 38.9249 62.5125 49.481 62.5125 49.481C63.1723 49.7637 63.6435 50.0465 64.0205 50.3292C64.3975 49.3868 64.6802 48.4443 64.963 47.5018L64.963 47.5017C67.8848 36.7571 64.586 24.4103 57.046 14.2312C74.1996 24.5046 84.2844 44.1087 80.1374 60.6026Z" fill="#424147"/>
</g>
<defs>
<clipPath id="clip0_1134_6081">
<rect width="100" height="100" fill="white" transform="translate(0.683594)"/>
</clipPath>
</defs>
</svg>
